%TF.GenerationSoftware,KiCad,Pcbnew,10.0.4*%
%TF.CreationDate,2026-09-07T16:17:39+02:00*%
%TF.ProjectId,WandStrobeDriver,57616e64-5374-4726-9f62-654472697665,rev?*%
%TF.SameCoordinates,Original*%
%TF.FileFunction,Copper,L2,Bot*%
%TF.FilePolarity,Positive*%
%FSLAX46Y46*%
G04 Gerber Fmt 4.6, Leading zero omitted, Abs format (unit mm)*
G04 Created by KiCad (PCBNEW 10.0.4) date 2026-09-07 16:17:39*
%MOMM*%
%LPD*%
G01*
G04 APERTURE LIST*
G04 Aperture macros list*
%AMRoundRect*
0 Rectangle with rounded corners*
0 $1 Rounding radius*
0 $2 $3 $4 $5 $6 $7 $8 $9 X,Y pos of 4 corners*
0 Add a 4 corners polygon primitive as box body*
4,1,4,$2,$3,$4,$5,$6,$7,$8,$9,$2,$3,0*
0 Add four circle primitives for the rounded corners*
1,1,$1+$1,$2,$3*
1,1,$1+$1,$4,$5*
1,1,$1+$1,$6,$7*
1,1,$1+$1,$8,$9*
0 Add four rect primitives between the rounded corners*
20,1,$1+$1,$2,$3,$4,$5,0*
20,1,$1+$1,$4,$5,$6,$7,0*
20,1,$1+$1,$6,$7,$8,$9,0*
20,1,$1+$1,$8,$9,$2,$3,0*%
G04 Aperture macros list end*
%TA.AperFunction,ComponentPad*%
%ADD10RoundRect,0.249999X0.850001X-0.850001X0.850001X0.850001X-0.850001X0.850001X-0.850001X-0.850001X0*%
%TD*%
%TA.AperFunction,ComponentPad*%
%ADD11C,2.200000*%
%TD*%
%TA.AperFunction,ComponentPad*%
%ADD12O,2.200000X3.500000*%
%TD*%
%TA.AperFunction,ComponentPad*%
%ADD13R,1.500000X2.500000*%
%TD*%
%TA.AperFunction,ComponentPad*%
%ADD14O,1.500000X2.500000*%
%TD*%
%TA.AperFunction,ComponentPad*%
%ADD15C,2.010000*%
%TD*%
%TA.AperFunction,ComponentPad*%
%ADD16RoundRect,0.250000X-0.750000X-0.750000X0.750000X-0.750000X0.750000X0.750000X-0.750000X0.750000X0*%
%TD*%
%TA.AperFunction,ComponentPad*%
%ADD17C,2.000000*%
%TD*%
%TA.AperFunction,ComponentPad*%
%ADD18RoundRect,0.250000X-0.550000X-0.550000X0.550000X-0.550000X0.550000X0.550000X-0.550000X0.550000X0*%
%TD*%
%TA.AperFunction,ComponentPad*%
%ADD19C,1.600000*%
%TD*%
%TA.AperFunction,ComponentPad*%
%ADD20RoundRect,0.250000X0.750000X-0.600000X0.750000X0.600000X-0.750000X0.600000X-0.750000X-0.600000X0*%
%TD*%
%TA.AperFunction,ComponentPad*%
%ADD21O,2.000000X1.700000*%
%TD*%
%TA.AperFunction,ViaPad*%
%ADD22C,0.800000*%
%TD*%
%TA.AperFunction,Conductor*%
%ADD23C,0.400000*%
%TD*%
%TA.AperFunction,Conductor*%
%ADD24C,0.600000*%
%TD*%
G04 APERTURE END LIST*
D10*
%TO.P,J1,1*%
%TO.N,Net-(J1-Pin_1)*%
X105000000Y-68000000D03*
D11*
%TO.P,J1,2*%
%TO.N,GND*%
X105000000Y-65460000D03*
%TD*%
D12*
%TO.P,SW1,*%
%TO.N,*%
X113900000Y-62000000D03*
X122100000Y-62000000D03*
D13*
%TO.P,SW1,1*%
%TO.N,Net-(SW1-A)*%
X116000000Y-62000000D03*
D14*
%TO.P,SW1,2*%
%TO.N,Net-(J1-Pin_1)*%
X118000000Y-62000000D03*
%TO.P,SW1,3*%
%TO.N,unconnected-(SW1-C-Pad3)*%
X120000000Y-62000000D03*
%TD*%
D15*
%TO.P,F1,1*%
%TO.N,Net-(SW1-A)*%
X127000000Y-62000000D03*
%TO.P,F1,2*%
%TO.N,Net-(D1-A)*%
X132100000Y-63200000D03*
%TD*%
D16*
%TO.P,C1,1*%
%TO.N,+9V*%
X108000000Y-78000000D03*
D17*
%TO.P,C1,2*%
%TO.N,GND*%
X113000000Y-78000000D03*
%TD*%
D18*
%TO.P,C3,1*%
%TO.N,VCC*%
X144000000Y-76000000D03*
D19*
%TO.P,C3,2*%
%TO.N,GND*%
X146000000Y-76000000D03*
%TD*%
D18*
%TO.P,U1,1*%
%TO.N,GND*%
X114000000Y-90000000D03*
D19*
%TO.P,U1,2*%
%TO.N,Net-(U1-THRES)*%
X114000000Y-92540000D03*
%TO.P,U1,3*%
%TO.N,/GATE*%
X114000000Y-95080000D03*
%TO.P,U1,4*%
%TO.N,VCC*%
X114000000Y-97620000D03*
%TO.P,U1,5*%
%TO.N,Net-(U1-CONT)*%
X121620000Y-97620000D03*
%TO.P,U1,6*%
%TO.N,Net-(U1-THRES)*%
X121620000Y-95080000D03*
%TO.P,U1,7*%
%TO.N,Net-(U1-DISCH)*%
X121620000Y-92540000D03*
%TO.P,U1,8*%
%TO.N,VCC*%
X121620000Y-90000000D03*
%TD*%
%TO.P,R1,1*%
%TO.N,VCC*%
X130000000Y-86000000D03*
%TO.P,R1,2*%
%TO.N,Net-(U1-DISCH)*%
X140160000Y-86000000D03*
%TD*%
%TO.P,R2,1*%
%TO.N,Net-(U1-DISCH)*%
X136000000Y-94000000D03*
%TO.P,R2,2*%
%TO.N,Net-(U1-THRES)*%
X125840000Y-94000000D03*
%TD*%
%TO.P,C6,1*%
%TO.N,Net-(U1-THRES)*%
X130000000Y-108000000D03*
%TO.P,C6,2*%
%TO.N,GND*%
X135000000Y-108000000D03*
%TD*%
D20*
%TO.P,J2,1*%
%TO.N,/SW_LED*%
X172000000Y-66000000D03*
D21*
%TO.P,J2,2*%
%TO.N,GND*%
X172000000Y-63500000D03*
%TD*%
D20*
%TO.P,J3,1*%
%TO.N,/SW_LED*%
X172000000Y-78000000D03*
D21*
%TO.P,J3,2*%
%TO.N,GND*%
X172000000Y-75500000D03*
%TD*%
D20*
%TO.P,J4,1*%
%TO.N,/SW_LED*%
X172000000Y-90000000D03*
D21*
%TO.P,J4,2*%
%TO.N,GND*%
X172000000Y-87500000D03*
%TD*%
D20*
%TO.P,J5,1*%
%TO.N,/SW_LED*%
X172000000Y-102000000D03*
D21*
%TO.P,J5,2*%
%TO.N,GND*%
X172000000Y-99500000D03*
%TD*%
D22*
%TO.N,/GATE*%
X150000000Y-83000000D03*
X142000000Y-106000000D03*
%TO.N,GND*%
X120000000Y-79000000D03*
X146000000Y-73000000D03*
X124000000Y-102950000D03*
X129000000Y-81940000D03*
X158000000Y-111000000D03*
%TD*%
%TO.N,VCC*%
D23*
X114000000Y-97620000D02*
X114000000Y-100000000D01*
X114000000Y-100000000D02*
X129000000Y-100000000D01*
X129000000Y-100000000D02*
X129000000Y-90000000D01*
X129000000Y-90000000D02*
X121620000Y-90000000D01*
%TO.N,/GATE*%
X114000000Y-95080000D02*
X117800000Y-95080000D01*
X117800000Y-95080000D02*
X117800000Y-83000000D01*
X117800000Y-83000000D02*
X150000000Y-83000000D01*
X142000000Y-83000000D02*
X142000000Y-106000000D01*
%TO.N,GND*%
D24*
X102500000Y-81000000D02*
X155000000Y-81000000D01*
X102500000Y-81000000D02*
X102500000Y-65460000D01*
X102500000Y-65460000D02*
X105000000Y-65460000D01*
X113000000Y-81000000D02*
X113000000Y-78000000D01*
X146000000Y-81000000D02*
X146000000Y-76000000D01*
X120000000Y-81000000D02*
X120000000Y-79000000D01*
X146000000Y-81000000D02*
X146000000Y-73000000D01*
X124000000Y-102950000D02*
X124000000Y-101000000D01*
X129000000Y-81000000D02*
X129000000Y-81940000D01*
X112000000Y-81000000D02*
X112000000Y-101000000D01*
X112000000Y-101000000D02*
X137000000Y-101000000D01*
X137000000Y-101000000D02*
X137000000Y-108000000D01*
X137000000Y-108000000D02*
X135000000Y-108000000D01*
X112000000Y-90000000D02*
X114000000Y-90000000D01*
X155000000Y-81000000D02*
X155000000Y-111000000D01*
X155000000Y-111000000D02*
X158000000Y-111000000D01*
X155000000Y-81000000D02*
X176000000Y-81000000D01*
X176000000Y-63500000D02*
X176000000Y-99500000D01*
X176000000Y-63500000D02*
X172000000Y-63500000D01*
X176000000Y-75500000D02*
X172000000Y-75500000D01*
X176000000Y-87500000D02*
X172000000Y-87500000D01*
X176000000Y-99500000D02*
X172000000Y-99500000D01*
%TD*%
M02*
