%TF.GenerationSoftware,KiCad,Pcbnew,10.0.4*%
%TF.CreationDate,2026-09-07T16:17:39+02:00*%
%TF.ProjectId,WandStrobeDriver,57616e64-5374-4726-9f62-654472697665,rev?*%
%TF.SameCoordinates,Original*%
%TF.FileFunction,Legend,Top*%
%TF.FilePolarity,Positive*%
%FSLAX46Y46*%
G04 Gerber Fmt 4.6, Leading zero omitted, Abs format (unit mm)*
G04 Created by KiCad (PCBNEW 10.0.4) date 2026-09-07 16:17:39*
%MOMM*%
%LPD*%
G01*
G04 APERTURE LIST*
%ADD10C,0.150000*%
%ADD11C,0.120000*%
G04 APERTURE END LIST*
D10*
X103298684Y-111739866D02*
X103632017Y-113139866D01*
X103632017Y-113139866D02*
X103898684Y-112139866D01*
X103898684Y-112139866D02*
X104165350Y-113139866D01*
X104165350Y-113139866D02*
X104498684Y-111739866D01*
X104965350Y-112739866D02*
X105632017Y-112739866D01*
X104832017Y-113139866D02*
X105298684Y-111739866D01*
X105298684Y-111739866D02*
X105765350Y-113139866D01*
X106232017Y-113139866D02*
X106232017Y-111739866D01*
X106232017Y-111739866D02*
X107032017Y-113139866D01*
X107032017Y-113139866D02*
X107032017Y-111739866D01*
X107698684Y-113139866D02*
X107698684Y-111739866D01*
X107698684Y-111739866D02*
X108032017Y-111739866D01*
X108032017Y-111739866D02*
X108232017Y-111806533D01*
X108232017Y-111806533D02*
X108365351Y-111939866D01*
X108365351Y-111939866D02*
X108432017Y-112073200D01*
X108432017Y-112073200D02*
X108498684Y-112339866D01*
X108498684Y-112339866D02*
X108498684Y-112539866D01*
X108498684Y-112539866D02*
X108432017Y-112806533D01*
X108432017Y-112806533D02*
X108365351Y-112939866D01*
X108365351Y-112939866D02*
X108232017Y-113073200D01*
X108232017Y-113073200D02*
X108032017Y-113139866D01*
X108032017Y-113139866D02*
X107698684Y-113139866D01*
X110098684Y-113073200D02*
X110298684Y-113139866D01*
X110298684Y-113139866D02*
X110632018Y-113139866D01*
X110632018Y-113139866D02*
X110765351Y-113073200D01*
X110765351Y-113073200D02*
X110832018Y-113006533D01*
X110832018Y-113006533D02*
X110898684Y-112873200D01*
X110898684Y-112873200D02*
X110898684Y-112739866D01*
X110898684Y-112739866D02*
X110832018Y-112606533D01*
X110832018Y-112606533D02*
X110765351Y-112539866D01*
X110765351Y-112539866D02*
X110632018Y-112473200D01*
X110632018Y-112473200D02*
X110365351Y-112406533D01*
X110365351Y-112406533D02*
X110232018Y-112339866D01*
X110232018Y-112339866D02*
X110165351Y-112273200D01*
X110165351Y-112273200D02*
X110098684Y-112139866D01*
X110098684Y-112139866D02*
X110098684Y-112006533D01*
X110098684Y-112006533D02*
X110165351Y-111873200D01*
X110165351Y-111873200D02*
X110232018Y-111806533D01*
X110232018Y-111806533D02*
X110365351Y-111739866D01*
X110365351Y-111739866D02*
X110698684Y-111739866D01*
X110698684Y-111739866D02*
X110898684Y-111806533D01*
X111298684Y-111739866D02*
X112098684Y-111739866D01*
X111698684Y-113139866D02*
X111698684Y-111739866D01*
X113365351Y-113139866D02*
X112898684Y-112473200D01*
X112565351Y-113139866D02*
X112565351Y-111739866D01*
X112565351Y-111739866D02*
X113098684Y-111739866D01*
X113098684Y-111739866D02*
X113232018Y-111806533D01*
X113232018Y-111806533D02*
X113298684Y-111873200D01*
X113298684Y-111873200D02*
X113365351Y-112006533D01*
X113365351Y-112006533D02*
X113365351Y-112206533D01*
X113365351Y-112206533D02*
X113298684Y-112339866D01*
X113298684Y-112339866D02*
X113232018Y-112406533D01*
X113232018Y-112406533D02*
X113098684Y-112473200D01*
X113098684Y-112473200D02*
X112565351Y-112473200D01*
X114232018Y-111739866D02*
X114498684Y-111739866D01*
X114498684Y-111739866D02*
X114632018Y-111806533D01*
X114632018Y-111806533D02*
X114765351Y-111939866D01*
X114765351Y-111939866D02*
X114832018Y-112206533D01*
X114832018Y-112206533D02*
X114832018Y-112673200D01*
X114832018Y-112673200D02*
X114765351Y-112939866D01*
X114765351Y-112939866D02*
X114632018Y-113073200D01*
X114632018Y-113073200D02*
X114498684Y-113139866D01*
X114498684Y-113139866D02*
X114232018Y-113139866D01*
X114232018Y-113139866D02*
X114098684Y-113073200D01*
X114098684Y-113073200D02*
X113965351Y-112939866D01*
X113965351Y-112939866D02*
X113898684Y-112673200D01*
X113898684Y-112673200D02*
X113898684Y-112206533D01*
X113898684Y-112206533D02*
X113965351Y-111939866D01*
X113965351Y-111939866D02*
X114098684Y-111806533D01*
X114098684Y-111806533D02*
X114232018Y-111739866D01*
X115898685Y-112406533D02*
X116098685Y-112473200D01*
X116098685Y-112473200D02*
X116165351Y-112539866D01*
X116165351Y-112539866D02*
X116232018Y-112673200D01*
X116232018Y-112673200D02*
X116232018Y-112873200D01*
X116232018Y-112873200D02*
X116165351Y-113006533D01*
X116165351Y-113006533D02*
X116098685Y-113073200D01*
X116098685Y-113073200D02*
X115965351Y-113139866D01*
X115965351Y-113139866D02*
X115432018Y-113139866D01*
X115432018Y-113139866D02*
X115432018Y-111739866D01*
X115432018Y-111739866D02*
X115898685Y-111739866D01*
X115898685Y-111739866D02*
X116032018Y-111806533D01*
X116032018Y-111806533D02*
X116098685Y-111873200D01*
X116098685Y-111873200D02*
X116165351Y-112006533D01*
X116165351Y-112006533D02*
X116165351Y-112139866D01*
X116165351Y-112139866D02*
X116098685Y-112273200D01*
X116098685Y-112273200D02*
X116032018Y-112339866D01*
X116032018Y-112339866D02*
X115898685Y-112406533D01*
X115898685Y-112406533D02*
X115432018Y-112406533D01*
X116832018Y-112406533D02*
X117298685Y-112406533D01*
X117498685Y-113139866D02*
X116832018Y-113139866D01*
X116832018Y-113139866D02*
X116832018Y-111739866D01*
X116832018Y-111739866D02*
X117498685Y-111739866D01*
X119165352Y-113139866D02*
X119165352Y-111739866D01*
X119165352Y-111739866D02*
X119498685Y-111739866D01*
X119498685Y-111739866D02*
X119698685Y-111806533D01*
X119698685Y-111806533D02*
X119832019Y-111939866D01*
X119832019Y-111939866D02*
X119898685Y-112073200D01*
X119898685Y-112073200D02*
X119965352Y-112339866D01*
X119965352Y-112339866D02*
X119965352Y-112539866D01*
X119965352Y-112539866D02*
X119898685Y-112806533D01*
X119898685Y-112806533D02*
X119832019Y-112939866D01*
X119832019Y-112939866D02*
X119698685Y-113073200D01*
X119698685Y-113073200D02*
X119498685Y-113139866D01*
X119498685Y-113139866D02*
X119165352Y-113139866D01*
X121365352Y-113139866D02*
X120898685Y-112473200D01*
X120565352Y-113139866D02*
X120565352Y-111739866D01*
X120565352Y-111739866D02*
X121098685Y-111739866D01*
X121098685Y-111739866D02*
X121232019Y-111806533D01*
X121232019Y-111806533D02*
X121298685Y-111873200D01*
X121298685Y-111873200D02*
X121365352Y-112006533D01*
X121365352Y-112006533D02*
X121365352Y-112206533D01*
X121365352Y-112206533D02*
X121298685Y-112339866D01*
X121298685Y-112339866D02*
X121232019Y-112406533D01*
X121232019Y-112406533D02*
X121098685Y-112473200D01*
X121098685Y-112473200D02*
X120565352Y-112473200D01*
X121965352Y-113139866D02*
X121965352Y-111739866D01*
X122432019Y-111739866D02*
X122898686Y-113139866D01*
X122898686Y-113139866D02*
X123365352Y-111739866D01*
X123832019Y-112406533D02*
X124298686Y-112406533D01*
X124498686Y-113139866D02*
X123832019Y-113139866D01*
X123832019Y-113139866D02*
X123832019Y-111739866D01*
X123832019Y-111739866D02*
X124498686Y-111739866D01*
X125898686Y-113139866D02*
X125432019Y-112473200D01*
X125098686Y-113139866D02*
X125098686Y-111739866D01*
X125098686Y-111739866D02*
X125632019Y-111739866D01*
X125632019Y-111739866D02*
X125765353Y-111806533D01*
X125765353Y-111806533D02*
X125832019Y-111873200D01*
X125832019Y-111873200D02*
X125898686Y-112006533D01*
X125898686Y-112006533D02*
X125898686Y-112206533D01*
X125898686Y-112206533D02*
X125832019Y-112339866D01*
X125832019Y-112339866D02*
X125765353Y-112406533D01*
X125765353Y-112406533D02*
X125632019Y-112473200D01*
X125632019Y-112473200D02*
X125098686Y-112473200D01*
X128632020Y-113139866D02*
X128632020Y-112206533D01*
X128632020Y-112473200D02*
X128698687Y-112339866D01*
X128698687Y-112339866D02*
X128765353Y-112273200D01*
X128765353Y-112273200D02*
X128898687Y-112206533D01*
X128898687Y-112206533D02*
X129032020Y-112206533D01*
X130032020Y-113073200D02*
X129898687Y-113139866D01*
X129898687Y-113139866D02*
X129632020Y-113139866D01*
X129632020Y-113139866D02*
X129498687Y-113073200D01*
X129498687Y-113073200D02*
X129432020Y-112939866D01*
X129432020Y-112939866D02*
X129432020Y-112406533D01*
X129432020Y-112406533D02*
X129498687Y-112273200D01*
X129498687Y-112273200D02*
X129632020Y-112206533D01*
X129632020Y-112206533D02*
X129898687Y-112206533D01*
X129898687Y-112206533D02*
X130032020Y-112273200D01*
X130032020Y-112273200D02*
X130098687Y-112406533D01*
X130098687Y-112406533D02*
X130098687Y-112539866D01*
X130098687Y-112539866D02*
X129432020Y-112673200D01*
X130565354Y-112206533D02*
X130898687Y-113139866D01*
X130898687Y-113139866D02*
X131232020Y-112206533D01*
X133298688Y-112406533D02*
X133498688Y-112473200D01*
X133498688Y-112473200D02*
X133565354Y-112539866D01*
X133565354Y-112539866D02*
X133632021Y-112673200D01*
X133632021Y-112673200D02*
X133632021Y-112873200D01*
X133632021Y-112873200D02*
X133565354Y-113006533D01*
X133565354Y-113006533D02*
X133498688Y-113073200D01*
X133498688Y-113073200D02*
X133365354Y-113139866D01*
X133365354Y-113139866D02*
X132832021Y-113139866D01*
X132832021Y-113139866D02*
X132832021Y-111739866D01*
X132832021Y-111739866D02*
X133298688Y-111739866D01*
X133298688Y-111739866D02*
X133432021Y-111806533D01*
X133432021Y-111806533D02*
X133498688Y-111873200D01*
X133498688Y-111873200D02*
X133565354Y-112006533D01*
X133565354Y-112006533D02*
X133565354Y-112139866D01*
X133565354Y-112139866D02*
X133498688Y-112273200D01*
X133498688Y-112273200D02*
X133432021Y-112339866D01*
X133432021Y-112339866D02*
X133298688Y-112406533D01*
X133298688Y-112406533D02*
X132832021Y-112406533D01*
X136432022Y-113139866D02*
X136698688Y-113139866D01*
X136698688Y-113139866D02*
X136832022Y-113073200D01*
X136832022Y-113073200D02*
X136898688Y-113006533D01*
X136898688Y-113006533D02*
X137032022Y-112806533D01*
X137032022Y-112806533D02*
X137098688Y-112539866D01*
X137098688Y-112539866D02*
X137098688Y-112006533D01*
X137098688Y-112006533D02*
X137032022Y-111873200D01*
X137032022Y-111873200D02*
X136965355Y-111806533D01*
X136965355Y-111806533D02*
X136832022Y-111739866D01*
X136832022Y-111739866D02*
X136565355Y-111739866D01*
X136565355Y-111739866D02*
X136432022Y-111806533D01*
X136432022Y-111806533D02*
X136365355Y-111873200D01*
X136365355Y-111873200D02*
X136298688Y-112006533D01*
X136298688Y-112006533D02*
X136298688Y-112339866D01*
X136298688Y-112339866D02*
X136365355Y-112473200D01*
X136365355Y-112473200D02*
X136432022Y-112539866D01*
X136432022Y-112539866D02*
X136565355Y-112606533D01*
X136565355Y-112606533D02*
X136832022Y-112606533D01*
X136832022Y-112606533D02*
X136965355Y-112539866D01*
X136965355Y-112539866D02*
X137032022Y-112473200D01*
X137032022Y-112473200D02*
X137098688Y-112339866D01*
X137498688Y-111739866D02*
X137965355Y-113139866D01*
X137965355Y-113139866D02*
X138432021Y-111739866D01*
X104562295Y-59266666D02*
X105133723Y-59266666D01*
X105133723Y-59266666D02*
X105248009Y-59304761D01*
X105248009Y-59304761D02*
X105324200Y-59380952D01*
X105324200Y-59380952D02*
X105362295Y-59495237D01*
X105362295Y-59495237D02*
X105362295Y-59571428D01*
X105362295Y-58466666D02*
X105362295Y-58923809D01*
X105362295Y-58695237D02*
X104562295Y-58695237D01*
X104562295Y-58695237D02*
X104676580Y-58771428D01*
X104676580Y-58771428D02*
X104752771Y-58847618D01*
X104752771Y-58847618D02*
X104790866Y-58923809D01*
X114933332Y-58624200D02*
X115047618Y-58662295D01*
X115047618Y-58662295D02*
X115238094Y-58662295D01*
X115238094Y-58662295D02*
X115314285Y-58624200D01*
X115314285Y-58624200D02*
X115352380Y-58586104D01*
X115352380Y-58586104D02*
X115390475Y-58509914D01*
X115390475Y-58509914D02*
X115390475Y-58433723D01*
X115390475Y-58433723D02*
X115352380Y-58357533D01*
X115352380Y-58357533D02*
X115314285Y-58319438D01*
X115314285Y-58319438D02*
X115238094Y-58281342D01*
X115238094Y-58281342D02*
X115085713Y-58243247D01*
X115085713Y-58243247D02*
X115009523Y-58205152D01*
X115009523Y-58205152D02*
X114971428Y-58167057D01*
X114971428Y-58167057D02*
X114933332Y-58090866D01*
X114933332Y-58090866D02*
X114933332Y-58014676D01*
X114933332Y-58014676D02*
X114971428Y-57938485D01*
X114971428Y-57938485D02*
X115009523Y-57900390D01*
X115009523Y-57900390D02*
X115085713Y-57862295D01*
X115085713Y-57862295D02*
X115276190Y-57862295D01*
X115276190Y-57862295D02*
X115390475Y-57900390D01*
X115657142Y-57862295D02*
X115847618Y-58662295D01*
X115847618Y-58662295D02*
X115999999Y-58090866D01*
X115999999Y-58090866D02*
X116152380Y-58662295D01*
X116152380Y-58662295D02*
X116342857Y-57862295D01*
X117066666Y-58662295D02*
X116609523Y-58662295D01*
X116838095Y-58662295D02*
X116838095Y-57862295D01*
X116838095Y-57862295D02*
X116761904Y-57976580D01*
X116761904Y-57976580D02*
X116685714Y-58052771D01*
X116685714Y-58052771D02*
X116609523Y-58090866D01*
X126733333Y-58243247D02*
X126466667Y-58243247D01*
X126466667Y-58662295D02*
X126466667Y-57862295D01*
X126466667Y-57862295D02*
X126847619Y-57862295D01*
X127571428Y-58662295D02*
X127114285Y-58662295D01*
X127342857Y-58662295D02*
X127342857Y-57862295D01*
X127342857Y-57862295D02*
X127266666Y-57976580D01*
X127266666Y-57976580D02*
X127190476Y-58052771D01*
X127190476Y-58052771D02*
X127114285Y-58090866D01*
X138409524Y-67262295D02*
X138409524Y-66462295D01*
X138409524Y-66462295D02*
X138600000Y-66462295D01*
X138600000Y-66462295D02*
X138714286Y-66500390D01*
X138714286Y-66500390D02*
X138790476Y-66576580D01*
X138790476Y-66576580D02*
X138828571Y-66652771D01*
X138828571Y-66652771D02*
X138866667Y-66805152D01*
X138866667Y-66805152D02*
X138866667Y-66919438D01*
X138866667Y-66919438D02*
X138828571Y-67071819D01*
X138828571Y-67071819D02*
X138790476Y-67148009D01*
X138790476Y-67148009D02*
X138714286Y-67224200D01*
X138714286Y-67224200D02*
X138600000Y-67262295D01*
X138600000Y-67262295D02*
X138409524Y-67262295D01*
X139628571Y-67262295D02*
X139171428Y-67262295D01*
X139400000Y-67262295D02*
X139400000Y-66462295D01*
X139400000Y-66462295D02*
X139323809Y-66576580D01*
X139323809Y-66576580D02*
X139247619Y-66652771D01*
X139247619Y-66652771D02*
X139171428Y-66690866D01*
X110366667Y-71786104D02*
X110328571Y-71824200D01*
X110328571Y-71824200D02*
X110214286Y-71862295D01*
X110214286Y-71862295D02*
X110138095Y-71862295D01*
X110138095Y-71862295D02*
X110023809Y-71824200D01*
X110023809Y-71824200D02*
X109947619Y-71748009D01*
X109947619Y-71748009D02*
X109909524Y-71671819D01*
X109909524Y-71671819D02*
X109871428Y-71519438D01*
X109871428Y-71519438D02*
X109871428Y-71405152D01*
X109871428Y-71405152D02*
X109909524Y-71252771D01*
X109909524Y-71252771D02*
X109947619Y-71176580D01*
X109947619Y-71176580D02*
X110023809Y-71100390D01*
X110023809Y-71100390D02*
X110138095Y-71062295D01*
X110138095Y-71062295D02*
X110214286Y-71062295D01*
X110214286Y-71062295D02*
X110328571Y-71100390D01*
X110328571Y-71100390D02*
X110366667Y-71138485D01*
X111128571Y-71862295D02*
X110671428Y-71862295D01*
X110900000Y-71862295D02*
X110900000Y-71062295D01*
X110900000Y-71062295D02*
X110823809Y-71176580D01*
X110823809Y-71176580D02*
X110747619Y-71252771D01*
X110747619Y-71252771D02*
X110671428Y-71290866D01*
X123986104Y-76133332D02*
X124024200Y-76171428D01*
X124024200Y-76171428D02*
X124062295Y-76285713D01*
X124062295Y-76285713D02*
X124062295Y-76361904D01*
X124062295Y-76361904D02*
X124024200Y-76476190D01*
X124024200Y-76476190D02*
X123948009Y-76552380D01*
X123948009Y-76552380D02*
X123871819Y-76590475D01*
X123871819Y-76590475D02*
X123719438Y-76628571D01*
X123719438Y-76628571D02*
X123605152Y-76628571D01*
X123605152Y-76628571D02*
X123452771Y-76590475D01*
X123452771Y-76590475D02*
X123376580Y-76552380D01*
X123376580Y-76552380D02*
X123300390Y-76476190D01*
X123300390Y-76476190D02*
X123262295Y-76361904D01*
X123262295Y-76361904D02*
X123262295Y-76285713D01*
X123262295Y-76285713D02*
X123300390Y-76171428D01*
X123300390Y-76171428D02*
X123338485Y-76133332D01*
X123338485Y-75828571D02*
X123300390Y-75790475D01*
X123300390Y-75790475D02*
X123262295Y-75714285D01*
X123262295Y-75714285D02*
X123262295Y-75523809D01*
X123262295Y-75523809D02*
X123300390Y-75447618D01*
X123300390Y-75447618D02*
X123338485Y-75409523D01*
X123338485Y-75409523D02*
X123414676Y-75371428D01*
X123414676Y-75371428D02*
X123490866Y-75371428D01*
X123490866Y-75371428D02*
X123605152Y-75409523D01*
X123605152Y-75409523D02*
X124062295Y-75866666D01*
X124062295Y-75866666D02*
X124062295Y-75371428D01*
X130062295Y-76133332D02*
X129681342Y-76399999D01*
X130062295Y-76590475D02*
X129262295Y-76590475D01*
X129262295Y-76590475D02*
X129262295Y-76285713D01*
X129262295Y-76285713D02*
X129300390Y-76209523D01*
X129300390Y-76209523D02*
X129338485Y-76171428D01*
X129338485Y-76171428D02*
X129414676Y-76133332D01*
X129414676Y-76133332D02*
X129528961Y-76133332D01*
X129528961Y-76133332D02*
X129605152Y-76171428D01*
X129605152Y-76171428D02*
X129643247Y-76209523D01*
X129643247Y-76209523D02*
X129681342Y-76285713D01*
X129681342Y-76285713D02*
X129681342Y-76590475D01*
X129262295Y-75409523D02*
X129262295Y-75790475D01*
X129262295Y-75790475D02*
X129643247Y-75828571D01*
X129643247Y-75828571D02*
X129605152Y-75790475D01*
X129605152Y-75790475D02*
X129567057Y-75714285D01*
X129567057Y-75714285D02*
X129567057Y-75523809D01*
X129567057Y-75523809D02*
X129605152Y-75447618D01*
X129605152Y-75447618D02*
X129643247Y-75409523D01*
X129643247Y-75409523D02*
X129719438Y-75371428D01*
X129719438Y-75371428D02*
X129909914Y-75371428D01*
X129909914Y-75371428D02*
X129986104Y-75409523D01*
X129986104Y-75409523D02*
X130024200Y-75447618D01*
X130024200Y-75447618D02*
X130062295Y-75523809D01*
X130062295Y-75523809D02*
X130062295Y-75714285D01*
X130062295Y-75714285D02*
X130024200Y-75790475D01*
X130024200Y-75790475D02*
X129986104Y-75828571D01*
X122662295Y-81590475D02*
X121862295Y-81590475D01*
X121862295Y-81590475D02*
X121862295Y-81399999D01*
X121862295Y-81399999D02*
X121900390Y-81285713D01*
X121900390Y-81285713D02*
X121976580Y-81209523D01*
X121976580Y-81209523D02*
X122052771Y-81171428D01*
X122052771Y-81171428D02*
X122205152Y-81133332D01*
X122205152Y-81133332D02*
X122319438Y-81133332D01*
X122319438Y-81133332D02*
X122471819Y-81171428D01*
X122471819Y-81171428D02*
X122548009Y-81209523D01*
X122548009Y-81209523D02*
X122624200Y-81285713D01*
X122624200Y-81285713D02*
X122662295Y-81399999D01*
X122662295Y-81399999D02*
X122662295Y-81590475D01*
X121938485Y-80828571D02*
X121900390Y-80790475D01*
X121900390Y-80790475D02*
X121862295Y-80714285D01*
X121862295Y-80714285D02*
X121862295Y-80523809D01*
X121862295Y-80523809D02*
X121900390Y-80447618D01*
X121900390Y-80447618D02*
X121938485Y-80409523D01*
X121938485Y-80409523D02*
X122014676Y-80371428D01*
X122014676Y-80371428D02*
X122090866Y-80371428D01*
X122090866Y-80371428D02*
X122205152Y-80409523D01*
X122205152Y-80409523D02*
X122662295Y-80866666D01*
X122662295Y-80866666D02*
X122662295Y-80371428D01*
X148062295Y-66514285D02*
X147681342Y-66780952D01*
X148062295Y-66971428D02*
X147262295Y-66971428D01*
X147262295Y-66971428D02*
X147262295Y-66666666D01*
X147262295Y-66666666D02*
X147300390Y-66590476D01*
X147300390Y-66590476D02*
X147338485Y-66552381D01*
X147338485Y-66552381D02*
X147414676Y-66514285D01*
X147414676Y-66514285D02*
X147528961Y-66514285D01*
X147528961Y-66514285D02*
X147605152Y-66552381D01*
X147605152Y-66552381D02*
X147643247Y-66590476D01*
X147643247Y-66590476D02*
X147681342Y-66666666D01*
X147681342Y-66666666D02*
X147681342Y-66971428D01*
X148062295Y-65752381D02*
X148062295Y-66209524D01*
X148062295Y-65980952D02*
X147262295Y-65980952D01*
X147262295Y-65980952D02*
X147376580Y-66057143D01*
X147376580Y-66057143D02*
X147452771Y-66133333D01*
X147452771Y-66133333D02*
X147490866Y-66209524D01*
X147262295Y-65257142D02*
X147262295Y-65180952D01*
X147262295Y-65180952D02*
X147300390Y-65104761D01*
X147300390Y-65104761D02*
X147338485Y-65066666D01*
X147338485Y-65066666D02*
X147414676Y-65028571D01*
X147414676Y-65028571D02*
X147567057Y-64990476D01*
X147567057Y-64990476D02*
X147757533Y-64990476D01*
X147757533Y-64990476D02*
X147909914Y-65028571D01*
X147909914Y-65028571D02*
X147986104Y-65066666D01*
X147986104Y-65066666D02*
X148024200Y-65104761D01*
X148024200Y-65104761D02*
X148062295Y-65180952D01*
X148062295Y-65180952D02*
X148062295Y-65257142D01*
X148062295Y-65257142D02*
X148024200Y-65333333D01*
X148024200Y-65333333D02*
X147986104Y-65371428D01*
X147986104Y-65371428D02*
X147909914Y-65409523D01*
X147909914Y-65409523D02*
X147757533Y-65447619D01*
X147757533Y-65447619D02*
X147567057Y-65447619D01*
X147567057Y-65447619D02*
X147414676Y-65409523D01*
X147414676Y-65409523D02*
X147338485Y-65371428D01*
X147338485Y-65371428D02*
X147300390Y-65333333D01*
X147300390Y-65333333D02*
X147262295Y-65257142D01*
X143866667Y-72586104D02*
X143828571Y-72624200D01*
X143828571Y-72624200D02*
X143714286Y-72662295D01*
X143714286Y-72662295D02*
X143638095Y-72662295D01*
X143638095Y-72662295D02*
X143523809Y-72624200D01*
X143523809Y-72624200D02*
X143447619Y-72548009D01*
X143447619Y-72548009D02*
X143409524Y-72471819D01*
X143409524Y-72471819D02*
X143371428Y-72319438D01*
X143371428Y-72319438D02*
X143371428Y-72205152D01*
X143371428Y-72205152D02*
X143409524Y-72052771D01*
X143409524Y-72052771D02*
X143447619Y-71976580D01*
X143447619Y-71976580D02*
X143523809Y-71900390D01*
X143523809Y-71900390D02*
X143638095Y-71862295D01*
X143638095Y-71862295D02*
X143714286Y-71862295D01*
X143714286Y-71862295D02*
X143828571Y-71900390D01*
X143828571Y-71900390D02*
X143866667Y-71938485D01*
X144133333Y-71862295D02*
X144628571Y-71862295D01*
X144628571Y-71862295D02*
X144361905Y-72167057D01*
X144361905Y-72167057D02*
X144476190Y-72167057D01*
X144476190Y-72167057D02*
X144552381Y-72205152D01*
X144552381Y-72205152D02*
X144590476Y-72243247D01*
X144590476Y-72243247D02*
X144628571Y-72319438D01*
X144628571Y-72319438D02*
X144628571Y-72509914D01*
X144628571Y-72509914D02*
X144590476Y-72586104D01*
X144590476Y-72586104D02*
X144552381Y-72624200D01*
X144552381Y-72624200D02*
X144476190Y-72662295D01*
X144476190Y-72662295D02*
X144247619Y-72662295D01*
X144247619Y-72662295D02*
X144171428Y-72624200D01*
X144171428Y-72624200D02*
X144133333Y-72586104D01*
X149986104Y-70133332D02*
X150024200Y-70171428D01*
X150024200Y-70171428D02*
X150062295Y-70285713D01*
X150062295Y-70285713D02*
X150062295Y-70361904D01*
X150062295Y-70361904D02*
X150024200Y-70476190D01*
X150024200Y-70476190D02*
X149948009Y-70552380D01*
X149948009Y-70552380D02*
X149871819Y-70590475D01*
X149871819Y-70590475D02*
X149719438Y-70628571D01*
X149719438Y-70628571D02*
X149605152Y-70628571D01*
X149605152Y-70628571D02*
X149452771Y-70590475D01*
X149452771Y-70590475D02*
X149376580Y-70552380D01*
X149376580Y-70552380D02*
X149300390Y-70476190D01*
X149300390Y-70476190D02*
X149262295Y-70361904D01*
X149262295Y-70361904D02*
X149262295Y-70285713D01*
X149262295Y-70285713D02*
X149300390Y-70171428D01*
X149300390Y-70171428D02*
X149338485Y-70133332D01*
X149528961Y-69447618D02*
X150062295Y-69447618D01*
X149224200Y-69638094D02*
X149795628Y-69828571D01*
X149795628Y-69828571D02*
X149795628Y-69333332D01*
X158062295Y-66133332D02*
X157681342Y-66399999D01*
X158062295Y-66590475D02*
X157262295Y-66590475D01*
X157262295Y-66590475D02*
X157262295Y-66285713D01*
X157262295Y-66285713D02*
X157300390Y-66209523D01*
X157300390Y-66209523D02*
X157338485Y-66171428D01*
X157338485Y-66171428D02*
X157414676Y-66133332D01*
X157414676Y-66133332D02*
X157528961Y-66133332D01*
X157528961Y-66133332D02*
X157605152Y-66171428D01*
X157605152Y-66171428D02*
X157643247Y-66209523D01*
X157643247Y-66209523D02*
X157681342Y-66285713D01*
X157681342Y-66285713D02*
X157681342Y-66590475D01*
X157528961Y-65447618D02*
X158062295Y-65447618D01*
X157224200Y-65638094D02*
X157795628Y-65828571D01*
X157795628Y-65828571D02*
X157795628Y-65333332D01*
X153866667Y-82662295D02*
X153600000Y-82281342D01*
X153409524Y-82662295D02*
X153409524Y-81862295D01*
X153409524Y-81862295D02*
X153714286Y-81862295D01*
X153714286Y-81862295D02*
X153790476Y-81900390D01*
X153790476Y-81900390D02*
X153828571Y-81938485D01*
X153828571Y-81938485D02*
X153866667Y-82014676D01*
X153866667Y-82014676D02*
X153866667Y-82128961D01*
X153866667Y-82128961D02*
X153828571Y-82205152D01*
X153828571Y-82205152D02*
X153790476Y-82243247D01*
X153790476Y-82243247D02*
X153714286Y-82281342D01*
X153714286Y-82281342D02*
X153409524Y-82281342D01*
X154133333Y-81862295D02*
X154628571Y-81862295D01*
X154628571Y-81862295D02*
X154361905Y-82167057D01*
X154361905Y-82167057D02*
X154476190Y-82167057D01*
X154476190Y-82167057D02*
X154552381Y-82205152D01*
X154552381Y-82205152D02*
X154590476Y-82243247D01*
X154590476Y-82243247D02*
X154628571Y-82319438D01*
X154628571Y-82319438D02*
X154628571Y-82509914D01*
X154628571Y-82509914D02*
X154590476Y-82586104D01*
X154590476Y-82586104D02*
X154552381Y-82624200D01*
X154552381Y-82624200D02*
X154476190Y-82662295D01*
X154476190Y-82662295D02*
X154247619Y-82662295D01*
X154247619Y-82662295D02*
X154171428Y-82624200D01*
X154171428Y-82624200D02*
X154133333Y-82586104D01*
X158738485Y-80076190D02*
X158700390Y-80152380D01*
X158700390Y-80152380D02*
X158624200Y-80228571D01*
X158624200Y-80228571D02*
X158509914Y-80342857D01*
X158509914Y-80342857D02*
X158471819Y-80419047D01*
X158471819Y-80419047D02*
X158471819Y-80495238D01*
X158662295Y-80457142D02*
X158624200Y-80533333D01*
X158624200Y-80533333D02*
X158548009Y-80609523D01*
X158548009Y-80609523D02*
X158395628Y-80647619D01*
X158395628Y-80647619D02*
X158128961Y-80647619D01*
X158128961Y-80647619D02*
X157976580Y-80609523D01*
X157976580Y-80609523D02*
X157900390Y-80533333D01*
X157900390Y-80533333D02*
X157862295Y-80457142D01*
X157862295Y-80457142D02*
X157862295Y-80304761D01*
X157862295Y-80304761D02*
X157900390Y-80228571D01*
X157900390Y-80228571D02*
X157976580Y-80152380D01*
X157976580Y-80152380D02*
X158128961Y-80114285D01*
X158128961Y-80114285D02*
X158395628Y-80114285D01*
X158395628Y-80114285D02*
X158548009Y-80152380D01*
X158548009Y-80152380D02*
X158624200Y-80228571D01*
X158624200Y-80228571D02*
X158662295Y-80304761D01*
X158662295Y-80304761D02*
X158662295Y-80457142D01*
X158662295Y-79352381D02*
X158662295Y-79809524D01*
X158662295Y-79580952D02*
X157862295Y-79580952D01*
X157862295Y-79580952D02*
X157976580Y-79657143D01*
X157976580Y-79657143D02*
X158052771Y-79733333D01*
X158052771Y-79733333D02*
X158090866Y-79809524D01*
X113390476Y-85862295D02*
X113390476Y-86509914D01*
X113390476Y-86509914D02*
X113428571Y-86586104D01*
X113428571Y-86586104D02*
X113466666Y-86624200D01*
X113466666Y-86624200D02*
X113542857Y-86662295D01*
X113542857Y-86662295D02*
X113695238Y-86662295D01*
X113695238Y-86662295D02*
X113771428Y-86624200D01*
X113771428Y-86624200D02*
X113809523Y-86586104D01*
X113809523Y-86586104D02*
X113847619Y-86509914D01*
X113847619Y-86509914D02*
X113847619Y-85862295D01*
X114647618Y-86662295D02*
X114190475Y-86662295D01*
X114419047Y-86662295D02*
X114419047Y-85862295D01*
X114419047Y-85862295D02*
X114342856Y-85976580D01*
X114342856Y-85976580D02*
X114266666Y-86052771D01*
X114266666Y-86052771D02*
X114190475Y-86090866D01*
X129866667Y-82662295D02*
X129600000Y-82281342D01*
X129409524Y-82662295D02*
X129409524Y-81862295D01*
X129409524Y-81862295D02*
X129714286Y-81862295D01*
X129714286Y-81862295D02*
X129790476Y-81900390D01*
X129790476Y-81900390D02*
X129828571Y-81938485D01*
X129828571Y-81938485D02*
X129866667Y-82014676D01*
X129866667Y-82014676D02*
X129866667Y-82128961D01*
X129866667Y-82128961D02*
X129828571Y-82205152D01*
X129828571Y-82205152D02*
X129790476Y-82243247D01*
X129790476Y-82243247D02*
X129714286Y-82281342D01*
X129714286Y-82281342D02*
X129409524Y-82281342D01*
X130628571Y-82662295D02*
X130171428Y-82662295D01*
X130400000Y-82662295D02*
X130400000Y-81862295D01*
X130400000Y-81862295D02*
X130323809Y-81976580D01*
X130323809Y-81976580D02*
X130247619Y-82052771D01*
X130247619Y-82052771D02*
X130171428Y-82090866D01*
X135866667Y-98062295D02*
X135600000Y-97681342D01*
X135409524Y-98062295D02*
X135409524Y-97262295D01*
X135409524Y-97262295D02*
X135714286Y-97262295D01*
X135714286Y-97262295D02*
X135790476Y-97300390D01*
X135790476Y-97300390D02*
X135828571Y-97338485D01*
X135828571Y-97338485D02*
X135866667Y-97414676D01*
X135866667Y-97414676D02*
X135866667Y-97528961D01*
X135866667Y-97528961D02*
X135828571Y-97605152D01*
X135828571Y-97605152D02*
X135790476Y-97643247D01*
X135790476Y-97643247D02*
X135714286Y-97681342D01*
X135714286Y-97681342D02*
X135409524Y-97681342D01*
X136171428Y-97338485D02*
X136209524Y-97300390D01*
X136209524Y-97300390D02*
X136285714Y-97262295D01*
X136285714Y-97262295D02*
X136476190Y-97262295D01*
X136476190Y-97262295D02*
X136552381Y-97300390D01*
X136552381Y-97300390D02*
X136590476Y-97338485D01*
X136590476Y-97338485D02*
X136628571Y-97414676D01*
X136628571Y-97414676D02*
X136628571Y-97490866D01*
X136628571Y-97490866D02*
X136590476Y-97605152D01*
X136590476Y-97605152D02*
X136133333Y-98062295D01*
X136133333Y-98062295D02*
X136628571Y-98062295D01*
X129866667Y-104586104D02*
X129828571Y-104624200D01*
X129828571Y-104624200D02*
X129714286Y-104662295D01*
X129714286Y-104662295D02*
X129638095Y-104662295D01*
X129638095Y-104662295D02*
X129523809Y-104624200D01*
X129523809Y-104624200D02*
X129447619Y-104548009D01*
X129447619Y-104548009D02*
X129409524Y-104471819D01*
X129409524Y-104471819D02*
X129371428Y-104319438D01*
X129371428Y-104319438D02*
X129371428Y-104205152D01*
X129371428Y-104205152D02*
X129409524Y-104052771D01*
X129409524Y-104052771D02*
X129447619Y-103976580D01*
X129447619Y-103976580D02*
X129523809Y-103900390D01*
X129523809Y-103900390D02*
X129638095Y-103862295D01*
X129638095Y-103862295D02*
X129714286Y-103862295D01*
X129714286Y-103862295D02*
X129828571Y-103900390D01*
X129828571Y-103900390D02*
X129866667Y-103938485D01*
X130552381Y-103862295D02*
X130400000Y-103862295D01*
X130400000Y-103862295D02*
X130323809Y-103900390D01*
X130323809Y-103900390D02*
X130285714Y-103938485D01*
X130285714Y-103938485D02*
X130209524Y-104052771D01*
X130209524Y-104052771D02*
X130171428Y-104205152D01*
X130171428Y-104205152D02*
X130171428Y-104509914D01*
X130171428Y-104509914D02*
X130209524Y-104586104D01*
X130209524Y-104586104D02*
X130247619Y-104624200D01*
X130247619Y-104624200D02*
X130323809Y-104662295D01*
X130323809Y-104662295D02*
X130476190Y-104662295D01*
X130476190Y-104662295D02*
X130552381Y-104624200D01*
X130552381Y-104624200D02*
X130590476Y-104586104D01*
X130590476Y-104586104D02*
X130628571Y-104509914D01*
X130628571Y-104509914D02*
X130628571Y-104319438D01*
X130628571Y-104319438D02*
X130590476Y-104243247D01*
X130590476Y-104243247D02*
X130552381Y-104205152D01*
X130552381Y-104205152D02*
X130476190Y-104167057D01*
X130476190Y-104167057D02*
X130323809Y-104167057D01*
X130323809Y-104167057D02*
X130247619Y-104205152D01*
X130247619Y-104205152D02*
X130209524Y-104243247D01*
X130209524Y-104243247D02*
X130171428Y-104319438D01*
X118206104Y-102133332D02*
X118244200Y-102171428D01*
X118244200Y-102171428D02*
X118282295Y-102285713D01*
X118282295Y-102285713D02*
X118282295Y-102361904D01*
X118282295Y-102361904D02*
X118244200Y-102476190D01*
X118244200Y-102476190D02*
X118168009Y-102552380D01*
X118168009Y-102552380D02*
X118091819Y-102590475D01*
X118091819Y-102590475D02*
X117939438Y-102628571D01*
X117939438Y-102628571D02*
X117825152Y-102628571D01*
X117825152Y-102628571D02*
X117672771Y-102590475D01*
X117672771Y-102590475D02*
X117596580Y-102552380D01*
X117596580Y-102552380D02*
X117520390Y-102476190D01*
X117520390Y-102476190D02*
X117482295Y-102361904D01*
X117482295Y-102361904D02*
X117482295Y-102285713D01*
X117482295Y-102285713D02*
X117520390Y-102171428D01*
X117520390Y-102171428D02*
X117558485Y-102133332D01*
X117482295Y-101409523D02*
X117482295Y-101790475D01*
X117482295Y-101790475D02*
X117863247Y-101828571D01*
X117863247Y-101828571D02*
X117825152Y-101790475D01*
X117825152Y-101790475D02*
X117787057Y-101714285D01*
X117787057Y-101714285D02*
X117787057Y-101523809D01*
X117787057Y-101523809D02*
X117825152Y-101447618D01*
X117825152Y-101447618D02*
X117863247Y-101409523D01*
X117863247Y-101409523D02*
X117939438Y-101371428D01*
X117939438Y-101371428D02*
X118129914Y-101371428D01*
X118129914Y-101371428D02*
X118206104Y-101409523D01*
X118206104Y-101409523D02*
X118244200Y-101447618D01*
X118244200Y-101447618D02*
X118282295Y-101523809D01*
X118282295Y-101523809D02*
X118282295Y-101714285D01*
X118282295Y-101714285D02*
X118244200Y-101790475D01*
X118244200Y-101790475D02*
X118206104Y-101828571D01*
X167862295Y-66266666D02*
X168433723Y-66266666D01*
X168433723Y-66266666D02*
X168548009Y-66304761D01*
X168548009Y-66304761D02*
X168624200Y-66380952D01*
X168624200Y-66380952D02*
X168662295Y-66495237D01*
X168662295Y-66495237D02*
X168662295Y-66571428D01*
X167938485Y-65923809D02*
X167900390Y-65885713D01*
X167900390Y-65885713D02*
X167862295Y-65809523D01*
X167862295Y-65809523D02*
X167862295Y-65619047D01*
X167862295Y-65619047D02*
X167900390Y-65542856D01*
X167900390Y-65542856D02*
X167938485Y-65504761D01*
X167938485Y-65504761D02*
X168014676Y-65466666D01*
X168014676Y-65466666D02*
X168090866Y-65466666D01*
X168090866Y-65466666D02*
X168205152Y-65504761D01*
X168205152Y-65504761D02*
X168662295Y-65961904D01*
X168662295Y-65961904D02*
X168662295Y-65466666D01*
X167862295Y-78266666D02*
X168433723Y-78266666D01*
X168433723Y-78266666D02*
X168548009Y-78304761D01*
X168548009Y-78304761D02*
X168624200Y-78380952D01*
X168624200Y-78380952D02*
X168662295Y-78495237D01*
X168662295Y-78495237D02*
X168662295Y-78571428D01*
X167862295Y-77961904D02*
X167862295Y-77466666D01*
X167862295Y-77466666D02*
X168167057Y-77733332D01*
X168167057Y-77733332D02*
X168167057Y-77619047D01*
X168167057Y-77619047D02*
X168205152Y-77542856D01*
X168205152Y-77542856D02*
X168243247Y-77504761D01*
X168243247Y-77504761D02*
X168319438Y-77466666D01*
X168319438Y-77466666D02*
X168509914Y-77466666D01*
X168509914Y-77466666D02*
X168586104Y-77504761D01*
X168586104Y-77504761D02*
X168624200Y-77542856D01*
X168624200Y-77542856D02*
X168662295Y-77619047D01*
X168662295Y-77619047D02*
X168662295Y-77847618D01*
X168662295Y-77847618D02*
X168624200Y-77923809D01*
X168624200Y-77923809D02*
X168586104Y-77961904D01*
X167862295Y-90266666D02*
X168433723Y-90266666D01*
X168433723Y-90266666D02*
X168548009Y-90304761D01*
X168548009Y-90304761D02*
X168624200Y-90380952D01*
X168624200Y-90380952D02*
X168662295Y-90495237D01*
X168662295Y-90495237D02*
X168662295Y-90571428D01*
X168128961Y-89542856D02*
X168662295Y-89542856D01*
X167824200Y-89733332D02*
X168395628Y-89923809D01*
X168395628Y-89923809D02*
X168395628Y-89428570D01*
X167862295Y-102266666D02*
X168433723Y-102266666D01*
X168433723Y-102266666D02*
X168548009Y-102304761D01*
X168548009Y-102304761D02*
X168624200Y-102380952D01*
X168624200Y-102380952D02*
X168662295Y-102495237D01*
X168662295Y-102495237D02*
X168662295Y-102571428D01*
X167862295Y-101504761D02*
X167862295Y-101885713D01*
X167862295Y-101885713D02*
X168243247Y-101923809D01*
X168243247Y-101923809D02*
X168205152Y-101885713D01*
X168205152Y-101885713D02*
X168167057Y-101809523D01*
X168167057Y-101809523D02*
X168167057Y-101619047D01*
X168167057Y-101619047D02*
X168205152Y-101542856D01*
X168205152Y-101542856D02*
X168243247Y-101504761D01*
X168243247Y-101504761D02*
X168319438Y-101466666D01*
X168319438Y-101466666D02*
X168509914Y-101466666D01*
X168509914Y-101466666D02*
X168586104Y-101504761D01*
X168586104Y-101504761D02*
X168624200Y-101542856D01*
X168624200Y-101542856D02*
X168662295Y-101619047D01*
X168662295Y-101619047D02*
X168662295Y-101809523D01*
X168662295Y-101809523D02*
X168624200Y-101885713D01*
X168624200Y-101885713D02*
X168586104Y-101923809D01*
X140990476Y-103862295D02*
X141447619Y-103862295D01*
X141219047Y-104662295D02*
X141219047Y-103862295D01*
X141714286Y-104662295D02*
X141714286Y-103862295D01*
X141714286Y-103862295D02*
X142019048Y-103862295D01*
X142019048Y-103862295D02*
X142095238Y-103900390D01*
X142095238Y-103900390D02*
X142133333Y-103938485D01*
X142133333Y-103938485D02*
X142171429Y-104014676D01*
X142171429Y-104014676D02*
X142171429Y-104128961D01*
X142171429Y-104128961D02*
X142133333Y-104205152D01*
X142133333Y-104205152D02*
X142095238Y-104243247D01*
X142095238Y-104243247D02*
X142019048Y-104281342D01*
X142019048Y-104281342D02*
X141714286Y-104281342D01*
X142933333Y-104662295D02*
X142476190Y-104662295D01*
X142704762Y-104662295D02*
X142704762Y-103862295D01*
X142704762Y-103862295D02*
X142628571Y-103976580D01*
X142628571Y-103976580D02*
X142552381Y-104052771D01*
X142552381Y-104052771D02*
X142476190Y-104090866D01*
X166990476Y-103862295D02*
X167447619Y-103862295D01*
X167219047Y-104662295D02*
X167219047Y-103862295D01*
X167714286Y-104662295D02*
X167714286Y-103862295D01*
X167714286Y-103862295D02*
X168019048Y-103862295D01*
X168019048Y-103862295D02*
X168095238Y-103900390D01*
X168095238Y-103900390D02*
X168133333Y-103938485D01*
X168133333Y-103938485D02*
X168171429Y-104014676D01*
X168171429Y-104014676D02*
X168171429Y-104128961D01*
X168171429Y-104128961D02*
X168133333Y-104205152D01*
X168133333Y-104205152D02*
X168095238Y-104243247D01*
X168095238Y-104243247D02*
X168019048Y-104281342D01*
X168019048Y-104281342D02*
X167714286Y-104281342D01*
X168476190Y-103938485D02*
X168514286Y-103900390D01*
X168514286Y-103900390D02*
X168590476Y-103862295D01*
X168590476Y-103862295D02*
X168780952Y-103862295D01*
X168780952Y-103862295D02*
X168857143Y-103900390D01*
X168857143Y-103900390D02*
X168895238Y-103938485D01*
X168895238Y-103938485D02*
X168933333Y-104014676D01*
X168933333Y-104014676D02*
X168933333Y-104090866D01*
X168933333Y-104090866D02*
X168895238Y-104205152D01*
X168895238Y-104205152D02*
X168438095Y-104662295D01*
X168438095Y-104662295D02*
X168933333Y-104662295D01*
X156990476Y-103862295D02*
X157447619Y-103862295D01*
X157219047Y-104662295D02*
X157219047Y-103862295D01*
X157714286Y-104662295D02*
X157714286Y-103862295D01*
X157714286Y-103862295D02*
X158019048Y-103862295D01*
X158019048Y-103862295D02*
X158095238Y-103900390D01*
X158095238Y-103900390D02*
X158133333Y-103938485D01*
X158133333Y-103938485D02*
X158171429Y-104014676D01*
X158171429Y-104014676D02*
X158171429Y-104128961D01*
X158171429Y-104128961D02*
X158133333Y-104205152D01*
X158133333Y-104205152D02*
X158095238Y-104243247D01*
X158095238Y-104243247D02*
X158019048Y-104281342D01*
X158019048Y-104281342D02*
X157714286Y-104281342D01*
X158438095Y-103862295D02*
X158933333Y-103862295D01*
X158933333Y-103862295D02*
X158666667Y-104167057D01*
X158666667Y-104167057D02*
X158780952Y-104167057D01*
X158780952Y-104167057D02*
X158857143Y-104205152D01*
X158857143Y-104205152D02*
X158895238Y-104243247D01*
X158895238Y-104243247D02*
X158933333Y-104319438D01*
X158933333Y-104319438D02*
X158933333Y-104509914D01*
X158933333Y-104509914D02*
X158895238Y-104586104D01*
X158895238Y-104586104D02*
X158857143Y-104624200D01*
X158857143Y-104624200D02*
X158780952Y-104662295D01*
X158780952Y-104662295D02*
X158552381Y-104662295D01*
X158552381Y-104662295D02*
X158476190Y-104624200D01*
X158476190Y-104624200D02*
X158438095Y-104586104D01*
%TO.C,J1*%
D11*
X101780000Y-69620000D02*
X101780000Y-63840000D01*
X102300000Y-69620000D02*
X102300000Y-63840000D01*
X107600000Y-69620000D02*
X107600000Y-69030000D01*
X108220000Y-69620000D02*
X101780000Y-69620000D01*
X108220000Y-69030000D02*
X108220000Y-69620000D01*
X107600000Y-66970000D02*
X107600000Y-66490000D01*
X108220000Y-66490000D02*
X108220000Y-66970000D01*
X107600000Y-64430000D02*
X107600000Y-63840000D01*
X101780000Y-63840000D02*
X108220000Y-63840000D01*
X108220000Y-63840000D02*
X108220000Y-64430000D01*
X108570000Y-68000000D02*
X109180000Y-67560000D01*
X109180000Y-68440000D01*
X108570000Y-68000000D01*
G36*
X109180000Y-68440000D02*
G01*
X108570000Y-68000000D01*
X109180000Y-67560000D01*
X109180000Y-68440000D01*
G37*
%TO.C,SW1*%
X113700000Y-59700000D02*
X122300000Y-59700000D01*
X113700000Y-64300000D02*
X115900000Y-64300000D01*
X120000000Y-64300000D02*
X122300000Y-64300000D01*
%TO.C,F1*%
X125900000Y-61000000D02*
X126162000Y-61000000D01*
X125900000Y-61298000D02*
X125900000Y-61000000D01*
X125900000Y-64200000D02*
X125900000Y-62702000D01*
X127838000Y-61000000D02*
X133200000Y-61000000D01*
X131262000Y-64200000D02*
X125900000Y-64200000D01*
X133200000Y-61000000D02*
X133200000Y-62498000D01*
X133200000Y-63902000D02*
X133200000Y-64200000D01*
X133200000Y-64200000D02*
X132938000Y-64200000D01*
%TO.C,D1*%
X142510000Y-64850000D02*
X142510000Y-61550000D01*
X142510000Y-64850000D02*
X137000000Y-64850000D01*
X142510000Y-61550000D02*
X137000000Y-61550000D01*
%TO.C,C1*%
X105020354Y-75125000D02*
X106020354Y-75125000D01*
X105520354Y-74625000D02*
X105520354Y-75625000D01*
X110500000Y-72920000D02*
X110500000Y-83080000D01*
X110540000Y-72920000D02*
X110540000Y-83080000D01*
X110580000Y-72921000D02*
X110580000Y-83079000D01*
X110620000Y-72921000D02*
X110620000Y-83079000D01*
X110660000Y-72923000D02*
X110660000Y-83077000D01*
X110700000Y-72924000D02*
X110700000Y-83076000D01*
X110740000Y-72926000D02*
X110740000Y-83074000D01*
X110780000Y-72928000D02*
X110780000Y-83072000D01*
X110820000Y-72930000D02*
X110820000Y-83070000D01*
X110860000Y-72933000D02*
X110860000Y-83067000D01*
X110900000Y-72936000D02*
X110900000Y-83064000D01*
X110940000Y-72939000D02*
X110940000Y-83061000D01*
X110980000Y-72943000D02*
X110980000Y-83057000D01*
X111020000Y-72946000D02*
X111020000Y-83054000D01*
X111060000Y-72951000D02*
X111060000Y-83049000D01*
X111100000Y-72955000D02*
X111100000Y-83045000D01*
X111140000Y-72960000D02*
X111140000Y-83040000D01*
X111180000Y-72965000D02*
X111180000Y-83035000D01*
X111220000Y-72971000D02*
X111220000Y-83029000D01*
X111260000Y-72977000D02*
X111260000Y-83023000D01*
X111300000Y-72983000D02*
X111300000Y-83017000D01*
X111340000Y-72989000D02*
X111340000Y-83011000D01*
X111380000Y-72996000D02*
X111380000Y-83004000D01*
X111420000Y-73003000D02*
X111420000Y-82997000D01*
X111460000Y-73011000D02*
X111460000Y-82989000D01*
X111500000Y-73019000D02*
X111500000Y-82981000D01*
X111540000Y-73027000D02*
X111540000Y-82973000D01*
X111580000Y-73035000D02*
X111580000Y-82965000D01*
X111620000Y-73044000D02*
X111620000Y-82956000D01*
X111660000Y-73053000D02*
X111660000Y-82947000D01*
X111700000Y-73063000D02*
X111700000Y-82937000D01*
X111740000Y-73072000D02*
X111740000Y-82928000D01*
X111780000Y-73083000D02*
X111780000Y-76760000D01*
X111780000Y-79240000D02*
X111780000Y-82917000D01*
X111820000Y-73093000D02*
X111820000Y-76760000D01*
X111820000Y-79240000D02*
X111820000Y-82907000D01*
X111860000Y-73104000D02*
X111860000Y-76760000D01*
X111860000Y-79240000D02*
X111860000Y-82896000D01*
X111900000Y-73115000D02*
X111900000Y-76760000D01*
X111900000Y-79240000D02*
X111900000Y-82885000D01*
X111940000Y-73127000D02*
X111940000Y-76760000D01*
X111940000Y-79240000D02*
X111940000Y-82873000D01*
X111980000Y-73139000D02*
X111980000Y-76760000D01*
X111980000Y-79240000D02*
X111980000Y-82861000D01*
X112020000Y-73151000D02*
X112020000Y-76760000D01*
X112020000Y-79240000D02*
X112020000Y-82849000D01*
X112060000Y-73163000D02*
X112060000Y-76760000D01*
X112060000Y-79240000D02*
X112060000Y-82837000D01*
X112100000Y-73176000D02*
X112100000Y-76760000D01*
X112100000Y-79240000D02*
X112100000Y-82824000D01*
X112140000Y-73190000D02*
X112140000Y-76760000D01*
X112140000Y-79240000D02*
X112140000Y-82810000D01*
X112180000Y-73203000D02*
X112180000Y-76760000D01*
X112180000Y-79240000D02*
X112180000Y-82797000D01*
X112220000Y-73218000D02*
X112220000Y-76760000D01*
X112220000Y-79240000D02*
X112220000Y-82782000D01*
X112260000Y-73232000D02*
X112260000Y-76760000D01*
X112260000Y-79240000D02*
X112260000Y-82768000D01*
X112300000Y-73247000D02*
X112300000Y-76760000D01*
X112300000Y-79240000D02*
X112300000Y-82753000D01*
X112340000Y-73262000D02*
X112340000Y-76760000D01*
X112340000Y-79240000D02*
X112340000Y-82738000D01*
X112380000Y-73278000D02*
X112380000Y-76760000D01*
X112380000Y-79240000D02*
X112380000Y-82722000D01*
X112420000Y-73294000D02*
X112420000Y-76760000D01*
X112420000Y-79240000D02*
X112420000Y-82706000D01*
X112460000Y-73310000D02*
X112460000Y-76760000D01*
X112460000Y-79240000D02*
X112460000Y-82690000D01*
X112500000Y-73327000D02*
X112500000Y-76760000D01*
X112500000Y-79240000D02*
X112500000Y-82673000D01*
X112540000Y-73344000D02*
X112540000Y-76760000D01*
X112540000Y-79240000D02*
X112540000Y-82656000D01*
X112580000Y-73362000D02*
X112580000Y-76760000D01*
X112580000Y-79240000D02*
X112580000Y-82638000D01*
X112620000Y-73380000D02*
X112620000Y-76760000D01*
X112620000Y-79240000D02*
X112620000Y-82620000D01*
X112660000Y-73398000D02*
X112660000Y-76760000D01*
X112660000Y-79240000D02*
X112660000Y-82602000D01*
X112700000Y-73417000D02*
X112700000Y-76760000D01*
X112700000Y-79240000D02*
X112700000Y-82583000D01*
X112740000Y-73436000D02*
X112740000Y-76760000D01*
X112740000Y-79240000D02*
X112740000Y-82564000D01*
X112780000Y-73456000D02*
X112780000Y-76760000D01*
X112780000Y-79240000D02*
X112780000Y-82544000D01*
X112820000Y-73476000D02*
X112820000Y-76760000D01*
X112820000Y-79240000D02*
X112820000Y-82524000D01*
X112860000Y-73496000D02*
X112860000Y-76760000D01*
X112860000Y-79240000D02*
X112860000Y-82504000D01*
X112900000Y-73517000D02*
X112900000Y-76760000D01*
X112900000Y-79240000D02*
X112900000Y-82483000D01*
X112940000Y-73539000D02*
X112940000Y-76760000D01*
X112940000Y-79240000D02*
X112940000Y-82461000D01*
X112980000Y-73561000D02*
X112980000Y-76760000D01*
X112980000Y-79240000D02*
X112980000Y-82439000D01*
X113020000Y-73583000D02*
X113020000Y-76760000D01*
X113020000Y-79240000D02*
X113020000Y-82417000D01*
X113060000Y-73606000D02*
X113060000Y-76760000D01*
X113060000Y-79240000D02*
X113060000Y-82394000D01*
X113100000Y-73629000D02*
X113100000Y-76760000D01*
X113100000Y-79240000D02*
X113100000Y-82371000D01*
X113140000Y-73653000D02*
X113140000Y-76760000D01*
X113140000Y-79240000D02*
X113140000Y-82347000D01*
X113180000Y-73677000D02*
X113180000Y-76760000D01*
X113180000Y-79240000D02*
X113180000Y-82323000D01*
X113220000Y-73702000D02*
X113220000Y-76760000D01*
X113220000Y-79240000D02*
X113220000Y-82298000D01*
X113260000Y-73728000D02*
X113260000Y-76760000D01*
X113260000Y-79240000D02*
X113260000Y-82272000D01*
X113300000Y-73753000D02*
X113300000Y-76760000D01*
X113300000Y-79240000D02*
X113300000Y-82247000D01*
X113340000Y-73780000D02*
X113340000Y-76760000D01*
X113340000Y-79240000D02*
X113340000Y-82220000D01*
X113380000Y-73807000D02*
X113380000Y-76760000D01*
X113380000Y-79240000D02*
X113380000Y-82193000D01*
X113420000Y-73834000D02*
X113420000Y-76760000D01*
X113420000Y-79240000D02*
X113420000Y-82166000D01*
X113460000Y-73862000D02*
X113460000Y-76760000D01*
X113460000Y-79240000D02*
X113460000Y-82138000D01*
X113500000Y-73891000D02*
X113500000Y-76760000D01*
X113500000Y-79240000D02*
X113500000Y-82109000D01*
X113540000Y-73920000D02*
X113540000Y-76760000D01*
X113540000Y-79240000D02*
X113540000Y-82080000D01*
X113580000Y-73950000D02*
X113580000Y-76760000D01*
X113580000Y-79240000D02*
X113580000Y-82050000D01*
X113620000Y-73980000D02*
X113620000Y-76760000D01*
X113620000Y-79240000D02*
X113620000Y-82020000D01*
X113660000Y-74012000D02*
X113660000Y-76760000D01*
X113660000Y-79240000D02*
X113660000Y-81988000D01*
X113700000Y-74043000D02*
X113700000Y-76760000D01*
X113700000Y-79240000D02*
X113700000Y-81957000D01*
X113740000Y-74076000D02*
X113740000Y-76760000D01*
X113740000Y-79240000D02*
X113740000Y-81924000D01*
X113780000Y-74109000D02*
X113780000Y-76760000D01*
X113780000Y-79240000D02*
X113780000Y-81891000D01*
X113820000Y-74142000D02*
X113820000Y-76760000D01*
X113820000Y-79240000D02*
X113820000Y-81858000D01*
X113860000Y-74177000D02*
X113860000Y-76760000D01*
X113860000Y-79240000D02*
X113860000Y-81823000D01*
X113900000Y-74212000D02*
X113900000Y-76760000D01*
X113900000Y-79240000D02*
X113900000Y-81788000D01*
X113940000Y-74248000D02*
X113940000Y-76760000D01*
X113940000Y-79240000D02*
X113940000Y-81752000D01*
X113980000Y-74284000D02*
X113980000Y-76760000D01*
X113980000Y-79240000D02*
X113980000Y-81716000D01*
X114020000Y-74322000D02*
X114020000Y-76760000D01*
X114020000Y-79240000D02*
X114020000Y-81678000D01*
X114060000Y-74360000D02*
X114060000Y-76760000D01*
X114060000Y-79240000D02*
X114060000Y-81640000D01*
X114100000Y-74399000D02*
X114100000Y-76760000D01*
X114100000Y-79240000D02*
X114100000Y-81601000D01*
X114140000Y-74439000D02*
X114140000Y-76760000D01*
X114140000Y-79240000D02*
X114140000Y-81561000D01*
X114180000Y-74480000D02*
X114180000Y-76760000D01*
X114180000Y-79240000D02*
X114180000Y-81520000D01*
X114220000Y-74522000D02*
X114220000Y-76760000D01*
X114220000Y-79240000D02*
X114220000Y-81478000D01*
X114260000Y-74565000D02*
X114260000Y-81435000D01*
X114300000Y-74609000D02*
X114300000Y-81391000D01*
X114340000Y-74653000D02*
X114340000Y-81347000D01*
X114380000Y-74699000D02*
X114380000Y-81301000D01*
X114420000Y-74746000D02*
X114420000Y-81254000D01*
X114460000Y-74795000D02*
X114460000Y-81205000D01*
X114500000Y-74844000D02*
X114500000Y-81156000D01*
X114540000Y-74895000D02*
X114540000Y-81105000D01*
X114580000Y-74947000D02*
X114580000Y-81053000D01*
X114620000Y-75000000D02*
X114620000Y-81000000D01*
X114660000Y-75055000D02*
X114660000Y-80945000D01*
X114700000Y-75112000D02*
X114700000Y-80888000D01*
X114740000Y-75170000D02*
X114740000Y-80830000D01*
X114780000Y-75230000D02*
X114780000Y-80770000D01*
X114820000Y-75292000D02*
X114820000Y-80708000D01*
X114860000Y-75356000D02*
X114860000Y-80644000D01*
X114900000Y-75422000D02*
X114900000Y-80578000D01*
X114940000Y-75490000D02*
X114940000Y-80510000D01*
X114980000Y-75561000D02*
X114980000Y-80439000D01*
X115020000Y-75635000D02*
X115020000Y-80365000D01*
X115060000Y-75712000D02*
X115060000Y-80288000D01*
X115100000Y-75792000D02*
X115100000Y-80208000D01*
X115140000Y-75876000D02*
X115140000Y-80124000D01*
X115180000Y-75963000D02*
X115180000Y-80037000D01*
X115220000Y-76056000D02*
X115220000Y-79944000D01*
X115260000Y-76154000D02*
X115260000Y-79846000D01*
X115300000Y-76258000D02*
X115300000Y-79742000D01*
X115340000Y-76370000D02*
X115340000Y-79630000D01*
X115380000Y-76491000D02*
X115380000Y-79509000D01*
X115420000Y-76623000D02*
X115420000Y-79377000D01*
X115460000Y-76770000D02*
X115460000Y-79230000D01*
X115500000Y-76938000D02*
X115500000Y-79062000D01*
X115540000Y-77138000D02*
X115540000Y-78862000D01*
X115580000Y-77401000D02*
X115580000Y-78599000D01*
X115620000Y-78000000D02*
G75*
G02*
X105380000Y-78000000I-5120000J0D01*
G01*
X105380000Y-78000000D02*
G75*
G02*
X115620000Y-78000000I5120000J0D01*
G01*
%TO.C,C2*%
X120735000Y-75738748D02*
X120735000Y-76261252D01*
X119265000Y-75738748D02*
X119265000Y-76261252D01*
%TO.C,R5*%
X126735000Y-75772936D02*
X126735000Y-76227064D01*
X125265000Y-75772936D02*
X125265000Y-76227064D01*
%TO.C,D2*%
X125040000Y-82685000D02*
X126960000Y-82685000D01*
X126960000Y-82685000D02*
X126960000Y-80000000D01*
X125040000Y-80000000D02*
X125040000Y-82685000D01*
%TO.C,R10*%
X144735000Y-65772936D02*
X144735000Y-66227064D01*
X143265000Y-65772936D02*
X143265000Y-66227064D01*
%TO.C,C3*%
X142195225Y-74525000D02*
X142695225Y-74525000D01*
X142445225Y-74275000D02*
X142445225Y-74775000D01*
X145000000Y-73420000D02*
X145000000Y-74960000D01*
X145000000Y-77040000D02*
X145000000Y-78580000D01*
X145040000Y-73420000D02*
X145040000Y-74960000D01*
X145040000Y-77040000D02*
X145040000Y-78580000D01*
X145080000Y-73421000D02*
X145080000Y-74960000D01*
X145080000Y-77040000D02*
X145080000Y-78579000D01*
X145120000Y-73423000D02*
X145120000Y-74960000D01*
X145120000Y-77040000D02*
X145120000Y-78577000D01*
X145160000Y-73425000D02*
X145160000Y-74960000D01*
X145160000Y-77040000D02*
X145160000Y-78575000D01*
X145200000Y-73428000D02*
X145200000Y-74960000D01*
X145200000Y-77040000D02*
X145200000Y-78572000D01*
X145240000Y-73431000D02*
X145240000Y-74960000D01*
X145240000Y-77040000D02*
X145240000Y-78569000D01*
X145280000Y-73435000D02*
X145280000Y-74960000D01*
X145280000Y-77040000D02*
X145280000Y-78565000D01*
X145320000Y-73440000D02*
X145320000Y-74960000D01*
X145320000Y-77040000D02*
X145320000Y-78560000D01*
X145360000Y-73445000D02*
X145360000Y-74960000D01*
X145360000Y-77040000D02*
X145360000Y-78555000D01*
X145400000Y-73451000D02*
X145400000Y-74960000D01*
X145400000Y-77040000D02*
X145400000Y-78549000D01*
X145440000Y-73457000D02*
X145440000Y-74960000D01*
X145440000Y-77040000D02*
X145440000Y-78543000D01*
X145480000Y-73464000D02*
X145480000Y-74960000D01*
X145480000Y-77040000D02*
X145480000Y-78536000D01*
X145520000Y-73472000D02*
X145520000Y-74960000D01*
X145520000Y-77040000D02*
X145520000Y-78528000D01*
X145560000Y-73481000D02*
X145560000Y-74960000D01*
X145560000Y-77040000D02*
X145560000Y-78519000D01*
X145600000Y-73490000D02*
X145600000Y-74960000D01*
X145600000Y-77040000D02*
X145600000Y-78510000D01*
X145640000Y-73499000D02*
X145640000Y-74960000D01*
X145640000Y-77040000D02*
X145640000Y-78501000D01*
X145680000Y-73510000D02*
X145680000Y-74960000D01*
X145680000Y-77040000D02*
X145680000Y-78490000D01*
X145720000Y-73521000D02*
X145720000Y-74960000D01*
X145720000Y-77040000D02*
X145720000Y-78479000D01*
X145760000Y-73533000D02*
X145760000Y-74960000D01*
X145760000Y-77040000D02*
X145760000Y-78467000D01*
X145800000Y-73545000D02*
X145800000Y-74960000D01*
X145800000Y-77040000D02*
X145800000Y-78455000D01*
X145840000Y-73558000D02*
X145840000Y-74960000D01*
X145840000Y-77040000D02*
X145840000Y-78442000D01*
X145880000Y-73572000D02*
X145880000Y-74960000D01*
X145880000Y-77040000D02*
X145880000Y-78428000D01*
X145920000Y-73587000D02*
X145920000Y-74960000D01*
X145920000Y-77040000D02*
X145920000Y-78413000D01*
X145960000Y-73602000D02*
X145960000Y-74960000D01*
X145960000Y-77040000D02*
X145960000Y-78398000D01*
X146000000Y-73618000D02*
X146000000Y-74960000D01*
X146000000Y-77040000D02*
X146000000Y-78382000D01*
X146040000Y-73635000D02*
X146040000Y-74960000D01*
X146040000Y-77040000D02*
X146040000Y-78365000D01*
X146080000Y-73653000D02*
X146080000Y-74960000D01*
X146080000Y-77040000D02*
X146080000Y-78347000D01*
X146120000Y-73671000D02*
X146120000Y-74960000D01*
X146120000Y-77040000D02*
X146120000Y-78329000D01*
X146160000Y-73691000D02*
X146160000Y-74960000D01*
X146160000Y-77040000D02*
X146160000Y-78309000D01*
X146200000Y-73711000D02*
X146200000Y-74960000D01*
X146200000Y-77040000D02*
X146200000Y-78289000D01*
X146240000Y-73732000D02*
X146240000Y-74960000D01*
X146240000Y-77040000D02*
X146240000Y-78268000D01*
X146280000Y-73754000D02*
X146280000Y-74960000D01*
X146280000Y-77040000D02*
X146280000Y-78246000D01*
X146320000Y-73777000D02*
X146320000Y-74960000D01*
X146320000Y-77040000D02*
X146320000Y-78223000D01*
X146360000Y-73801000D02*
X146360000Y-74960000D01*
X146360000Y-77040000D02*
X146360000Y-78199000D01*
X146400000Y-73825000D02*
X146400000Y-74960000D01*
X146400000Y-77040000D02*
X146400000Y-78175000D01*
X146440000Y-73851000D02*
X146440000Y-74960000D01*
X146440000Y-77040000D02*
X146440000Y-78149000D01*
X146480000Y-73878000D02*
X146480000Y-74960000D01*
X146480000Y-77040000D02*
X146480000Y-78122000D01*
X146520000Y-73906000D02*
X146520000Y-74960000D01*
X146520000Y-77040000D02*
X146520000Y-78094000D01*
X146560000Y-73935000D02*
X146560000Y-74960000D01*
X146560000Y-77040000D02*
X146560000Y-78065000D01*
X146600000Y-73965000D02*
X146600000Y-74960000D01*
X146600000Y-77040000D02*
X146600000Y-78035000D01*
X146640000Y-73997000D02*
X146640000Y-74960000D01*
X146640000Y-77040000D02*
X146640000Y-78003000D01*
X146680000Y-74030000D02*
X146680000Y-74960000D01*
X146680000Y-77040000D02*
X146680000Y-77970000D01*
X146720000Y-74064000D02*
X146720000Y-74960000D01*
X146720000Y-77040000D02*
X146720000Y-77936000D01*
X146760000Y-74099000D02*
X146760000Y-74960000D01*
X146760000Y-77040000D02*
X146760000Y-77901000D01*
X146800000Y-74136000D02*
X146800000Y-74960000D01*
X146800000Y-77040000D02*
X146800000Y-77864000D01*
X146840000Y-74175000D02*
X146840000Y-74960000D01*
X146840000Y-77040000D02*
X146840000Y-77825000D01*
X146880000Y-74215000D02*
X146880000Y-74960000D01*
X146880000Y-77040000D02*
X146880000Y-77785000D01*
X146920000Y-74257000D02*
X146920000Y-74960000D01*
X146920000Y-77040000D02*
X146920000Y-77743000D01*
X146960000Y-74301000D02*
X146960000Y-74960000D01*
X146960000Y-77040000D02*
X146960000Y-77699000D01*
X147000000Y-74348000D02*
X147000000Y-74960000D01*
X147000000Y-77040000D02*
X147000000Y-77652000D01*
X147040000Y-74396000D02*
X147040000Y-77604000D01*
X147080000Y-74447000D02*
X147080000Y-77553000D01*
X147120000Y-74501000D02*
X147120000Y-77499000D01*
X147160000Y-74557000D02*
X147160000Y-77443000D01*
X147200000Y-74617000D02*
X147200000Y-77383000D01*
X147240000Y-74681000D02*
X147240000Y-77319000D01*
X147280000Y-74749000D02*
X147280000Y-77251000D01*
X147320000Y-74823000D02*
X147320000Y-77177000D01*
X147360000Y-74902000D02*
X147360000Y-77098000D01*
X147400000Y-74989000D02*
X147400000Y-77011000D01*
X147440000Y-75086000D02*
X147440000Y-76914000D01*
X147480000Y-75195000D02*
X147480000Y-76805000D01*
X147520000Y-75323000D02*
X147520000Y-76677000D01*
X147560000Y-75483000D02*
X147560000Y-76517000D01*
X147600000Y-75717000D02*
X147600000Y-76283000D01*
X147620000Y-76000000D02*
G75*
G02*
X142380000Y-76000000I-2620000J0D01*
G01*
X142380000Y-76000000D02*
G75*
G02*
X147620000Y-76000000I2620000J0D01*
G01*
%TO.C,C4*%
X146735000Y-69738748D02*
X146735000Y-70261252D01*
X145265000Y-69738748D02*
X145265000Y-70261252D01*
%TO.C,R4*%
X154735000Y-65772936D02*
X154735000Y-66227064D01*
X153265000Y-65772936D02*
X153265000Y-66227064D01*
%TO.C,R3*%
X153772936Y-85265000D02*
X154227064Y-85265000D01*
X153772936Y-86735000D02*
X154227064Y-86735000D01*
%TO.C,Q1*%
X160440000Y-80760000D02*
X160440000Y-79240000D01*
X160490000Y-80760000D02*
X160440000Y-80760000D01*
X162390000Y-80760000D02*
X161610000Y-80760000D01*
X163560000Y-80760000D02*
X163510000Y-80760000D01*
X160440000Y-79240000D02*
X161440000Y-79240000D01*
X162560000Y-79240000D02*
X163560000Y-79240000D01*
X163560000Y-79240000D02*
X163560000Y-80760000D01*
X161620000Y-81300000D02*
X161950000Y-81060000D01*
X161950000Y-81540000D01*
X161620000Y-81300000D01*
G36*
X161950000Y-81540000D02*
G01*
X161620000Y-81300000D01*
X161950000Y-81060000D01*
X161950000Y-81540000D01*
G37*
%TO.C,U1*%
X115160000Y-88670000D02*
X115160000Y-98950000D01*
X115160000Y-98950000D02*
X120460000Y-98950000D01*
X116810000Y-88670000D02*
X115160000Y-88670000D01*
X120460000Y-88670000D02*
X118810000Y-88670000D01*
X120460000Y-98950000D02*
X120460000Y-88670000D01*
X112670000Y-88610000D02*
X122950000Y-88610000D01*
X122950000Y-99010000D01*
X112670000Y-99010000D01*
X112670000Y-88610000D01*
X118810000Y-88670000D02*
G75*
G02*
X116810000Y-88670000I-1000000J0D01*
G01*
%TO.C,R1*%
X131040000Y-86000000D02*
X131810000Y-86000000D01*
X139120000Y-86000000D02*
X138350000Y-86000000D01*
X131810000Y-84630000D02*
X138350000Y-84630000D01*
X138350000Y-87370000D01*
X131810000Y-87370000D01*
X131810000Y-84630000D01*
%TO.C,R2*%
X134960000Y-94000000D02*
X134190000Y-94000000D01*
X126880000Y-94000000D02*
X127650000Y-94000000D01*
X127650000Y-92630000D02*
X134190000Y-92630000D01*
X134190000Y-95370000D01*
X127650000Y-95370000D01*
X127650000Y-92630000D01*
%TO.C,C6*%
X128880000Y-106630000D02*
X136120000Y-106630000D01*
X128880000Y-109370000D02*
X128880000Y-106630000D01*
X136120000Y-106630000D02*
X136120000Y-109370000D01*
X136120000Y-109370000D02*
X128880000Y-109370000D01*
%TO.C,C5*%
X120885000Y-102261252D02*
X120885000Y-101738748D01*
X122355000Y-102261252D02*
X122355000Y-101738748D01*
%TO.C,J2*%
X169250000Y-68850000D02*
X170500000Y-68850000D01*
X171800000Y-68550000D02*
X171800000Y-67800000D01*
X171800000Y-67800000D02*
X174750000Y-67800000D01*
X174750000Y-67800000D02*
X174750000Y-64750000D01*
X169250000Y-67600000D02*
X169250000Y-68850000D01*
X171800000Y-61700000D02*
X174750000Y-61700000D01*
X174750000Y-61700000D02*
X174750000Y-64750000D01*
X171800000Y-60950000D02*
X171800000Y-61700000D01*
X169540000Y-60940000D02*
X175510000Y-60940000D01*
X175510000Y-68560000D01*
X169540000Y-68560000D01*
X169540000Y-60940000D01*
X169550000Y-66750000D02*
X170300000Y-66750000D01*
X170300000Y-68550000D01*
X169550000Y-68550000D01*
X169550000Y-66750000D01*
X169550000Y-64250000D02*
X170300000Y-64250000D01*
X170300000Y-65250000D01*
X169550000Y-65250000D01*
X169550000Y-64250000D01*
X169550000Y-60950000D02*
X170300000Y-60950000D01*
X170300000Y-62750000D01*
X169550000Y-62750000D01*
X169550000Y-60950000D01*
%TO.C,J3*%
X169250000Y-80850000D02*
X170500000Y-80850000D01*
X171800000Y-80550000D02*
X171800000Y-79800000D01*
X171800000Y-79800000D02*
X174750000Y-79800000D01*
X174750000Y-79800000D02*
X174750000Y-76750000D01*
X169250000Y-79600000D02*
X169250000Y-80850000D01*
X171800000Y-73700000D02*
X174750000Y-73700000D01*
X174750000Y-73700000D02*
X174750000Y-76750000D01*
X171800000Y-72950000D02*
X171800000Y-73700000D01*
X169540000Y-72940000D02*
X175510000Y-72940000D01*
X175510000Y-80560000D01*
X169540000Y-80560000D01*
X169540000Y-72940000D01*
X169550000Y-78750000D02*
X170300000Y-78750000D01*
X170300000Y-80550000D01*
X169550000Y-80550000D01*
X169550000Y-78750000D01*
X169550000Y-76250000D02*
X170300000Y-76250000D01*
X170300000Y-77250000D01*
X169550000Y-77250000D01*
X169550000Y-76250000D01*
X169550000Y-72950000D02*
X170300000Y-72950000D01*
X170300000Y-74750000D01*
X169550000Y-74750000D01*
X169550000Y-72950000D01*
%TO.C,J4*%
X169250000Y-92850000D02*
X170500000Y-92850000D01*
X171800000Y-92550000D02*
X171800000Y-91800000D01*
X171800000Y-91800000D02*
X174750000Y-91800000D01*
X174750000Y-91800000D02*
X174750000Y-88750000D01*
X169250000Y-91600000D02*
X169250000Y-92850000D01*
X171800000Y-85700000D02*
X174750000Y-85700000D01*
X174750000Y-85700000D02*
X174750000Y-88750000D01*
X171800000Y-84950000D02*
X171800000Y-85700000D01*
X169540000Y-84940000D02*
X175510000Y-84940000D01*
X175510000Y-92560000D01*
X169540000Y-92560000D01*
X169540000Y-84940000D01*
X169550000Y-90750000D02*
X170300000Y-90750000D01*
X170300000Y-92550000D01*
X169550000Y-92550000D01*
X169550000Y-90750000D01*
X169550000Y-88250000D02*
X170300000Y-88250000D01*
X170300000Y-89250000D01*
X169550000Y-89250000D01*
X169550000Y-88250000D01*
X169550000Y-84950000D02*
X170300000Y-84950000D01*
X170300000Y-86750000D01*
X169550000Y-86750000D01*
X169550000Y-84950000D01*
%TO.C,J5*%
X169250000Y-104850000D02*
X170500000Y-104850000D01*
X171800000Y-104550000D02*
X171800000Y-103800000D01*
X171800000Y-103800000D02*
X174750000Y-103800000D01*
X174750000Y-103800000D02*
X174750000Y-100750000D01*
X169250000Y-103600000D02*
X169250000Y-104850000D01*
X171800000Y-97700000D02*
X174750000Y-97700000D01*
X174750000Y-97700000D02*
X174750000Y-100750000D01*
X171800000Y-96950000D02*
X171800000Y-97700000D01*
X169540000Y-96940000D02*
X175510000Y-96940000D01*
X175510000Y-104560000D01*
X169540000Y-104560000D01*
X169540000Y-96940000D01*
X169550000Y-102750000D02*
X170300000Y-102750000D01*
X170300000Y-104550000D01*
X169550000Y-104550000D01*
X169550000Y-102750000D01*
X169550000Y-100250000D02*
X170300000Y-100250000D01*
X170300000Y-101250000D01*
X169550000Y-101250000D01*
X169550000Y-100250000D01*
X169550000Y-96950000D02*
X170300000Y-96950000D01*
X170300000Y-98750000D01*
X169550000Y-98750000D01*
X169550000Y-96950000D01*
%TO.C,TP1*%
X142950000Y-108000000D02*
G75*
G02*
X141050000Y-108000000I-950000J0D01*
G01*
X141050000Y-108000000D02*
G75*
G02*
X142950000Y-108000000I950000J0D01*
G01*
%TO.C,TP2*%
X168950000Y-108000000D02*
G75*
G02*
X167050000Y-108000000I-950000J0D01*
G01*
X167050000Y-108000000D02*
G75*
G02*
X168950000Y-108000000I950000J0D01*
G01*
%TO.C,TP3*%
X158950000Y-108000000D02*
G75*
G02*
X157050000Y-108000000I-950000J0D01*
G01*
X157050000Y-108000000D02*
G75*
G02*
X158950000Y-108000000I950000J0D01*
G01*
%TD*%
M02*
