%TF.GenerationSoftware,KiCad,Pcbnew,10.0.4*%
%TF.CreationDate,2026-09-07T16:17:39+02:00*%
%TF.ProjectId,WandStrobeDriver,57616e64-5374-4726-9f62-654472697665,rev?*%
%TF.SameCoordinates,Original*%
%TF.FileFunction,Soldermask,Top*%
%TF.FilePolarity,Negative*%
%FSLAX46Y46*%
G04 Gerber Fmt 4.6, Leading zero omitted, Abs format (unit mm)*
G04 Created by KiCad (PCBNEW 10.0.4) date 2026-09-07 16:17:39*
%MOMM*%
%LPD*%
G01*
G04 APERTURE LIST*
G04 Aperture macros list*
%AMRoundRect*
0 Rectangle with rounded corners*
0 $1 Rounding radius*
0 $2 $3 $4 $5 $6 $7 $8 $9 X,Y pos of 4 corners*
0 Add a 4 corners polygon primitive as box body*
4,1,4,$2,$3,$4,$5,$6,$7,$8,$9,$2,$3,0*
0 Add four circle primitives for the rounded corners*
1,1,$1+$1,$2,$3*
1,1,$1+$1,$4,$5*
1,1,$1+$1,$6,$7*
1,1,$1+$1,$8,$9*
0 Add four rect primitives between the rounded corners*
20,1,$1+$1,$2,$3,$4,$5,0*
20,1,$1+$1,$4,$5,$6,$7,0*
20,1,$1+$1,$6,$7,$8,$9,0*
20,1,$1+$1,$8,$9,$2,$3,0*%
G04 Aperture macros list end*
%ADD10C,1.100000*%
%ADD11RoundRect,0.249999X0.850001X-0.850001X0.850001X0.850001X-0.850001X0.850001X-0.850001X-0.850001X0*%
%ADD12C,2.200000*%
%ADD13O,2.200000X3.500000*%
%ADD14R,1.500000X2.500000*%
%ADD15O,1.500000X2.500000*%
%ADD16C,2.010000*%
%ADD17RoundRect,0.250000X1.000000X0.650000X-1.000000X0.650000X-1.000000X-0.650000X1.000000X-0.650000X0*%
%ADD18RoundRect,0.250000X-0.750000X-0.750000X0.750000X-0.750000X0.750000X0.750000X-0.750000X0.750000X0*%
%ADD19C,2.000000*%
%ADD20RoundRect,0.250000X-0.475000X0.250000X-0.475000X-0.250000X0.475000X-0.250000X0.475000X0.250000X0*%
%ADD21RoundRect,0.250000X-0.450000X0.262500X-0.450000X-0.262500X0.450000X-0.262500X0.450000X0.262500X0*%
%ADD22RoundRect,0.243750X0.456250X-0.243750X0.456250X0.243750X-0.456250X0.243750X-0.456250X-0.243750X0*%
%ADD23RoundRect,0.250000X-0.550000X-0.550000X0.550000X-0.550000X0.550000X0.550000X-0.550000X0.550000X0*%
%ADD24C,1.600000*%
%ADD25RoundRect,0.250000X-0.262500X-0.450000X0.262500X-0.450000X0.262500X0.450000X-0.262500X0.450000X0*%
%ADD26RoundRect,0.150000X0.150000X-0.587500X0.150000X0.587500X-0.150000X0.587500X-0.150000X-0.587500X0*%
%ADD27RoundRect,0.250000X0.475000X-0.250000X0.475000X0.250000X-0.475000X0.250000X-0.475000X-0.250000X0*%
%ADD28RoundRect,0.250000X0.750000X-0.600000X0.750000X0.600000X-0.750000X0.600000X-0.750000X-0.600000X0*%
%ADD29O,2.000000X1.700000*%
%ADD30C,1.500000*%
G04 APERTURE END LIST*
D10*
%TO.C,J1*%
X107540000Y-68000000D03*
X107540000Y-65460000D03*
D11*
X105000000Y-68000000D03*
D12*
X105000000Y-65460000D03*
%TD*%
D13*
%TO.C,SW1*%
X113900000Y-62000000D03*
X122100000Y-62000000D03*
D14*
X116000000Y-62000000D03*
D15*
X118000000Y-62000000D03*
X120000000Y-62000000D03*
%TD*%
D16*
%TO.C,F1*%
X127000000Y-62000000D03*
X132100000Y-63200000D03*
%TD*%
D17*
%TO.C,D1*%
X141000000Y-63200000D03*
X137000000Y-63200000D03*
%TD*%
D18*
%TO.C,C1*%
X108000000Y-78000000D03*
D19*
X113000000Y-78000000D03*
%TD*%
D20*
%TO.C,C2*%
X120000000Y-75050000D03*
X120000000Y-76950000D03*
%TD*%
D21*
%TO.C,R5*%
X126000000Y-75087500D03*
X126000000Y-76912500D03*
%TD*%
D22*
%TO.C,D2*%
X126000000Y-81937500D03*
X126000000Y-80062500D03*
%TD*%
D21*
%TO.C,R10*%
X144000000Y-65087500D03*
X144000000Y-66912500D03*
%TD*%
D23*
%TO.C,C3*%
X144000000Y-76000000D03*
D24*
X146000000Y-76000000D03*
%TD*%
D20*
%TO.C,C4*%
X146000000Y-69050000D03*
X146000000Y-70950000D03*
%TD*%
D21*
%TO.C,R4*%
X154000000Y-65087500D03*
X154000000Y-66912500D03*
%TD*%
D25*
%TO.C,R3*%
X153087500Y-86000000D03*
X154912500Y-86000000D03*
%TD*%
D26*
%TO.C,Q1*%
X161050000Y-80937500D03*
X162950000Y-80937500D03*
X162000000Y-79062500D03*
%TD*%
D23*
%TO.C,U1*%
X114000000Y-90000000D03*
D24*
X114000000Y-92540000D03*
X114000000Y-95080000D03*
X114000000Y-97620000D03*
X121620000Y-97620000D03*
X121620000Y-95080000D03*
X121620000Y-92540000D03*
X121620000Y-90000000D03*
%TD*%
%TO.C,R1*%
X130000000Y-86000000D03*
X140160000Y-86000000D03*
%TD*%
%TO.C,R2*%
X136000000Y-94000000D03*
X125840000Y-94000000D03*
%TD*%
%TO.C,C6*%
X130000000Y-108000000D03*
X135000000Y-108000000D03*
%TD*%
D27*
%TO.C,C5*%
X121620000Y-102950000D03*
X121620000Y-101050000D03*
%TD*%
D28*
%TO.C,J2*%
X172000000Y-66000000D03*
D29*
X172000000Y-63500000D03*
%TD*%
D28*
%TO.C,J3*%
X172000000Y-78000000D03*
D29*
X172000000Y-75500000D03*
%TD*%
D28*
%TO.C,J4*%
X172000000Y-90000000D03*
D29*
X172000000Y-87500000D03*
%TD*%
D28*
%TO.C,J5*%
X172000000Y-102000000D03*
D29*
X172000000Y-99500000D03*
%TD*%
D30*
%TO.C,TP1*%
X142000000Y-108000000D03*
%TD*%
%TO.C,TP2*%
X168000000Y-108000000D03*
%TD*%
%TO.C,TP3*%
X158000000Y-108000000D03*
%TD*%
M02*
