%TF.GenerationSoftware,KiCad,Pcbnew,10.0.4*%
%TF.CreationDate,2026-09-07T16:17:39+02:00*%
%TF.ProjectId,WandStrobeDriver,57616e64-5374-4726-9f62-654472697665,rev?*%
%TF.SameCoordinates,Original*%
%TF.FileFunction,AssemblyDrawing,Top*%
%FSLAX46Y46*%
G04 Gerber Fmt 4.6, Leading zero omitted, Abs format (unit mm)*
G04 Created by KiCad (PCBNEW 10.0.4) date 2026-09-07 16:17:39*
%MOMM*%
%LPD*%
G01*
G04 APERTURE LIST*
%ADD10C,0.150000*%
%ADD11C,0.100000*%
%ADD12C,0.080000*%
%ADD13C,0.110000*%
G04 APERTURE END LIST*
D10*
X106862295Y-69409523D02*
X106862295Y-69257142D01*
X106862295Y-69257142D02*
X106824200Y-69180952D01*
X106824200Y-69180952D02*
X106786104Y-69142856D01*
X106786104Y-69142856D02*
X106671819Y-69066666D01*
X106671819Y-69066666D02*
X106519438Y-69028571D01*
X106519438Y-69028571D02*
X106214676Y-69028571D01*
X106214676Y-69028571D02*
X106138485Y-69066666D01*
X106138485Y-69066666D02*
X106100390Y-69104761D01*
X106100390Y-69104761D02*
X106062295Y-69180952D01*
X106062295Y-69180952D02*
X106062295Y-69333333D01*
X106062295Y-69333333D02*
X106100390Y-69409523D01*
X106100390Y-69409523D02*
X106138485Y-69447618D01*
X106138485Y-69447618D02*
X106214676Y-69485714D01*
X106214676Y-69485714D02*
X106405152Y-69485714D01*
X106405152Y-69485714D02*
X106481342Y-69447618D01*
X106481342Y-69447618D02*
X106519438Y-69409523D01*
X106519438Y-69409523D02*
X106557533Y-69333333D01*
X106557533Y-69333333D02*
X106557533Y-69180952D01*
X106557533Y-69180952D02*
X106519438Y-69104761D01*
X106519438Y-69104761D02*
X106481342Y-69066666D01*
X106481342Y-69066666D02*
X106405152Y-69028571D01*
X106062295Y-68799999D02*
X106862295Y-68533332D01*
X106862295Y-68533332D02*
X106062295Y-68266666D01*
X106862295Y-67390475D02*
X106062295Y-67390475D01*
X106862295Y-67009523D02*
X106062295Y-67009523D01*
X106062295Y-67009523D02*
X106862295Y-66552380D01*
X106862295Y-66552380D02*
X106062295Y-66552380D01*
X106666666Y-66184819D02*
X106666666Y-66899104D01*
X106666666Y-66899104D02*
X106619047Y-67041961D01*
X106619047Y-67041961D02*
X106523809Y-67137200D01*
X106523809Y-67137200D02*
X106380952Y-67184819D01*
X106380952Y-67184819D02*
X106285714Y-67184819D01*
X107666666Y-67184819D02*
X107095238Y-67184819D01*
X107380952Y-67184819D02*
X107380952Y-66184819D01*
X107380952Y-66184819D02*
X107285714Y-66327676D01*
X107285714Y-66327676D02*
X107190476Y-66422914D01*
X107190476Y-66422914D02*
X107095238Y-66470533D01*
X114152381Y-63862295D02*
X114152381Y-63062295D01*
X114152381Y-63062295D02*
X114457143Y-63062295D01*
X114457143Y-63062295D02*
X114533333Y-63100390D01*
X114533333Y-63100390D02*
X114571428Y-63138485D01*
X114571428Y-63138485D02*
X114609524Y-63214676D01*
X114609524Y-63214676D02*
X114609524Y-63328961D01*
X114609524Y-63328961D02*
X114571428Y-63405152D01*
X114571428Y-63405152D02*
X114533333Y-63443247D01*
X114533333Y-63443247D02*
X114457143Y-63481342D01*
X114457143Y-63481342D02*
X114152381Y-63481342D01*
X115104762Y-63062295D02*
X115257143Y-63062295D01*
X115257143Y-63062295D02*
X115333333Y-63100390D01*
X115333333Y-63100390D02*
X115409524Y-63176580D01*
X115409524Y-63176580D02*
X115447619Y-63328961D01*
X115447619Y-63328961D02*
X115447619Y-63595628D01*
X115447619Y-63595628D02*
X115409524Y-63748009D01*
X115409524Y-63748009D02*
X115333333Y-63824200D01*
X115333333Y-63824200D02*
X115257143Y-63862295D01*
X115257143Y-63862295D02*
X115104762Y-63862295D01*
X115104762Y-63862295D02*
X115028571Y-63824200D01*
X115028571Y-63824200D02*
X114952381Y-63748009D01*
X114952381Y-63748009D02*
X114914285Y-63595628D01*
X114914285Y-63595628D02*
X114914285Y-63328961D01*
X114914285Y-63328961D02*
X114952381Y-63176580D01*
X114952381Y-63176580D02*
X115028571Y-63100390D01*
X115028571Y-63100390D02*
X115104762Y-63062295D01*
X115714285Y-63062295D02*
X115904761Y-63862295D01*
X115904761Y-63862295D02*
X116057142Y-63290866D01*
X116057142Y-63290866D02*
X116209523Y-63862295D01*
X116209523Y-63862295D02*
X116400000Y-63062295D01*
X116704762Y-63443247D02*
X116971428Y-63443247D01*
X117085714Y-63862295D02*
X116704762Y-63862295D01*
X116704762Y-63862295D02*
X116704762Y-63062295D01*
X116704762Y-63062295D02*
X117085714Y-63062295D01*
X117885715Y-63862295D02*
X117619048Y-63481342D01*
X117428572Y-63862295D02*
X117428572Y-63062295D01*
X117428572Y-63062295D02*
X117733334Y-63062295D01*
X117733334Y-63062295D02*
X117809524Y-63100390D01*
X117809524Y-63100390D02*
X117847619Y-63138485D01*
X117847619Y-63138485D02*
X117885715Y-63214676D01*
X117885715Y-63214676D02*
X117885715Y-63328961D01*
X117885715Y-63328961D02*
X117847619Y-63405152D01*
X117847619Y-63405152D02*
X117809524Y-63443247D01*
X117809524Y-63443247D02*
X117733334Y-63481342D01*
X117733334Y-63481342D02*
X117428572Y-63481342D01*
D11*
X117633334Y-63902300D02*
X117704762Y-63926109D01*
X117704762Y-63926109D02*
X117823810Y-63926109D01*
X117823810Y-63926109D02*
X117871429Y-63902300D01*
X117871429Y-63902300D02*
X117895238Y-63878490D01*
X117895238Y-63878490D02*
X117919048Y-63830871D01*
X117919048Y-63830871D02*
X117919048Y-63783252D01*
X117919048Y-63783252D02*
X117895238Y-63735633D01*
X117895238Y-63735633D02*
X117871429Y-63711823D01*
X117871429Y-63711823D02*
X117823810Y-63688014D01*
X117823810Y-63688014D02*
X117728572Y-63664204D01*
X117728572Y-63664204D02*
X117680953Y-63640395D01*
X117680953Y-63640395D02*
X117657143Y-63616585D01*
X117657143Y-63616585D02*
X117633334Y-63568966D01*
X117633334Y-63568966D02*
X117633334Y-63521347D01*
X117633334Y-63521347D02*
X117657143Y-63473728D01*
X117657143Y-63473728D02*
X117680953Y-63449919D01*
X117680953Y-63449919D02*
X117728572Y-63426109D01*
X117728572Y-63426109D02*
X117847619Y-63426109D01*
X117847619Y-63426109D02*
X117919048Y-63449919D01*
X118085714Y-63426109D02*
X118204762Y-63926109D01*
X118204762Y-63926109D02*
X118300000Y-63568966D01*
X118300000Y-63568966D02*
X118395238Y-63926109D01*
X118395238Y-63926109D02*
X118514286Y-63426109D01*
X118966667Y-63926109D02*
X118680953Y-63926109D01*
X118823810Y-63926109D02*
X118823810Y-63426109D01*
X118823810Y-63426109D02*
X118776191Y-63497538D01*
X118776191Y-63497538D02*
X118728572Y-63545157D01*
X118728572Y-63545157D02*
X118680953Y-63568966D01*
D10*
X125552380Y-63062295D02*
X125171428Y-63062295D01*
X125171428Y-63062295D02*
X125133332Y-63443247D01*
X125133332Y-63443247D02*
X125171428Y-63405152D01*
X125171428Y-63405152D02*
X125247618Y-63367057D01*
X125247618Y-63367057D02*
X125438094Y-63367057D01*
X125438094Y-63367057D02*
X125514285Y-63405152D01*
X125514285Y-63405152D02*
X125552380Y-63443247D01*
X125552380Y-63443247D02*
X125590475Y-63519438D01*
X125590475Y-63519438D02*
X125590475Y-63709914D01*
X125590475Y-63709914D02*
X125552380Y-63786104D01*
X125552380Y-63786104D02*
X125514285Y-63824200D01*
X125514285Y-63824200D02*
X125438094Y-63862295D01*
X125438094Y-63862295D02*
X125247618Y-63862295D01*
X125247618Y-63862295D02*
X125171428Y-63824200D01*
X125171428Y-63824200D02*
X125133332Y-63786104D01*
X126085714Y-63062295D02*
X126161904Y-63062295D01*
X126161904Y-63062295D02*
X126238095Y-63100390D01*
X126238095Y-63100390D02*
X126276190Y-63138485D01*
X126276190Y-63138485D02*
X126314285Y-63214676D01*
X126314285Y-63214676D02*
X126352380Y-63367057D01*
X126352380Y-63367057D02*
X126352380Y-63557533D01*
X126352380Y-63557533D02*
X126314285Y-63709914D01*
X126314285Y-63709914D02*
X126276190Y-63786104D01*
X126276190Y-63786104D02*
X126238095Y-63824200D01*
X126238095Y-63824200D02*
X126161904Y-63862295D01*
X126161904Y-63862295D02*
X126085714Y-63862295D01*
X126085714Y-63862295D02*
X126009523Y-63824200D01*
X126009523Y-63824200D02*
X125971428Y-63786104D01*
X125971428Y-63786104D02*
X125933333Y-63709914D01*
X125933333Y-63709914D02*
X125895237Y-63557533D01*
X125895237Y-63557533D02*
X125895237Y-63367057D01*
X125895237Y-63367057D02*
X125933333Y-63214676D01*
X125933333Y-63214676D02*
X125971428Y-63138485D01*
X125971428Y-63138485D02*
X126009523Y-63100390D01*
X126009523Y-63100390D02*
X126085714Y-63062295D01*
X126847619Y-63062295D02*
X126923809Y-63062295D01*
X126923809Y-63062295D02*
X127000000Y-63100390D01*
X127000000Y-63100390D02*
X127038095Y-63138485D01*
X127038095Y-63138485D02*
X127076190Y-63214676D01*
X127076190Y-63214676D02*
X127114285Y-63367057D01*
X127114285Y-63367057D02*
X127114285Y-63557533D01*
X127114285Y-63557533D02*
X127076190Y-63709914D01*
X127076190Y-63709914D02*
X127038095Y-63786104D01*
X127038095Y-63786104D02*
X127000000Y-63824200D01*
X127000000Y-63824200D02*
X126923809Y-63862295D01*
X126923809Y-63862295D02*
X126847619Y-63862295D01*
X126847619Y-63862295D02*
X126771428Y-63824200D01*
X126771428Y-63824200D02*
X126733333Y-63786104D01*
X126733333Y-63786104D02*
X126695238Y-63709914D01*
X126695238Y-63709914D02*
X126657142Y-63557533D01*
X126657142Y-63557533D02*
X126657142Y-63367057D01*
X126657142Y-63367057D02*
X126695238Y-63214676D01*
X126695238Y-63214676D02*
X126733333Y-63138485D01*
X126733333Y-63138485D02*
X126771428Y-63100390D01*
X126771428Y-63100390D02*
X126847619Y-63062295D01*
X127457143Y-63862295D02*
X127457143Y-63328961D01*
X127457143Y-63405152D02*
X127495238Y-63367057D01*
X127495238Y-63367057D02*
X127571428Y-63328961D01*
X127571428Y-63328961D02*
X127685714Y-63328961D01*
X127685714Y-63328961D02*
X127761905Y-63367057D01*
X127761905Y-63367057D02*
X127800000Y-63443247D01*
X127800000Y-63443247D02*
X127800000Y-63862295D01*
X127800000Y-63443247D02*
X127838095Y-63367057D01*
X127838095Y-63367057D02*
X127914286Y-63328961D01*
X127914286Y-63328961D02*
X128028571Y-63328961D01*
X128028571Y-63328961D02*
X128104762Y-63367057D01*
X128104762Y-63367057D02*
X128142857Y-63443247D01*
X128142857Y-63443247D02*
X128142857Y-63862295D01*
X128485714Y-63633723D02*
X128866667Y-63633723D01*
X128409524Y-63862295D02*
X128676191Y-63062295D01*
X128676191Y-63062295D02*
X128942857Y-63862295D01*
X129216666Y-62531009D02*
X128883333Y-62531009D01*
X128883333Y-63054819D02*
X128883333Y-62054819D01*
X128883333Y-62054819D02*
X129359523Y-62054819D01*
X130264285Y-63054819D02*
X129692857Y-63054819D01*
X129978571Y-63054819D02*
X129978571Y-62054819D01*
X129978571Y-62054819D02*
X129883333Y-62197676D01*
X129883333Y-62197676D02*
X129788095Y-62292914D01*
X129788095Y-62292914D02*
X129692857Y-62340533D01*
X137628570Y-62024200D02*
X137742856Y-62062295D01*
X137742856Y-62062295D02*
X137933332Y-62062295D01*
X137933332Y-62062295D02*
X138009523Y-62024200D01*
X138009523Y-62024200D02*
X138047618Y-61986104D01*
X138047618Y-61986104D02*
X138085713Y-61909914D01*
X138085713Y-61909914D02*
X138085713Y-61833723D01*
X138085713Y-61833723D02*
X138047618Y-61757533D01*
X138047618Y-61757533D02*
X138009523Y-61719438D01*
X138009523Y-61719438D02*
X137933332Y-61681342D01*
X137933332Y-61681342D02*
X137780951Y-61643247D01*
X137780951Y-61643247D02*
X137704761Y-61605152D01*
X137704761Y-61605152D02*
X137666666Y-61567057D01*
X137666666Y-61567057D02*
X137628570Y-61490866D01*
X137628570Y-61490866D02*
X137628570Y-61414676D01*
X137628570Y-61414676D02*
X137666666Y-61338485D01*
X137666666Y-61338485D02*
X137704761Y-61300390D01*
X137704761Y-61300390D02*
X137780951Y-61262295D01*
X137780951Y-61262295D02*
X137971428Y-61262295D01*
X137971428Y-61262295D02*
X138085713Y-61300390D01*
X138390475Y-62024200D02*
X138504761Y-62062295D01*
X138504761Y-62062295D02*
X138695237Y-62062295D01*
X138695237Y-62062295D02*
X138771428Y-62024200D01*
X138771428Y-62024200D02*
X138809523Y-61986104D01*
X138809523Y-61986104D02*
X138847618Y-61909914D01*
X138847618Y-61909914D02*
X138847618Y-61833723D01*
X138847618Y-61833723D02*
X138809523Y-61757533D01*
X138809523Y-61757533D02*
X138771428Y-61719438D01*
X138771428Y-61719438D02*
X138695237Y-61681342D01*
X138695237Y-61681342D02*
X138542856Y-61643247D01*
X138542856Y-61643247D02*
X138466666Y-61605152D01*
X138466666Y-61605152D02*
X138428571Y-61567057D01*
X138428571Y-61567057D02*
X138390475Y-61490866D01*
X138390475Y-61490866D02*
X138390475Y-61414676D01*
X138390475Y-61414676D02*
X138428571Y-61338485D01*
X138428571Y-61338485D02*
X138466666Y-61300390D01*
X138466666Y-61300390D02*
X138542856Y-61262295D01*
X138542856Y-61262295D02*
X138733333Y-61262295D01*
X138733333Y-61262295D02*
X138847618Y-61300390D01*
X139114285Y-61262295D02*
X139609523Y-61262295D01*
X139609523Y-61262295D02*
X139342857Y-61567057D01*
X139342857Y-61567057D02*
X139457142Y-61567057D01*
X139457142Y-61567057D02*
X139533333Y-61605152D01*
X139533333Y-61605152D02*
X139571428Y-61643247D01*
X139571428Y-61643247D02*
X139609523Y-61719438D01*
X139609523Y-61719438D02*
X139609523Y-61909914D01*
X139609523Y-61909914D02*
X139571428Y-61986104D01*
X139571428Y-61986104D02*
X139533333Y-62024200D01*
X139533333Y-62024200D02*
X139457142Y-62062295D01*
X139457142Y-62062295D02*
X139228571Y-62062295D01*
X139228571Y-62062295D02*
X139152380Y-62024200D01*
X139152380Y-62024200D02*
X139114285Y-61986104D01*
X140295238Y-61528961D02*
X140295238Y-62062295D01*
X140104762Y-61224200D02*
X139914285Y-61795628D01*
X139914285Y-61795628D02*
X140409524Y-61795628D01*
X138261905Y-66154819D02*
X138261905Y-65154819D01*
X138261905Y-65154819D02*
X138500000Y-65154819D01*
X138500000Y-65154819D02*
X138642857Y-65202438D01*
X138642857Y-65202438D02*
X138738095Y-65297676D01*
X138738095Y-65297676D02*
X138785714Y-65392914D01*
X138785714Y-65392914D02*
X138833333Y-65583390D01*
X138833333Y-65583390D02*
X138833333Y-65726247D01*
X138833333Y-65726247D02*
X138785714Y-65916723D01*
X138785714Y-65916723D02*
X138738095Y-66011961D01*
X138738095Y-66011961D02*
X138642857Y-66107200D01*
X138642857Y-66107200D02*
X138500000Y-66154819D01*
X138500000Y-66154819D02*
X138261905Y-66154819D01*
X139785714Y-66154819D02*
X139214286Y-66154819D01*
X139500000Y-66154819D02*
X139500000Y-65154819D01*
X139500000Y-65154819D02*
X139404762Y-65297676D01*
X139404762Y-65297676D02*
X139309524Y-65392914D01*
X139309524Y-65392914D02*
X139214286Y-65440533D01*
X106723808Y-79862295D02*
X106266665Y-79862295D01*
X106495237Y-79862295D02*
X106495237Y-79062295D01*
X106495237Y-79062295D02*
X106419046Y-79176580D01*
X106419046Y-79176580D02*
X106342856Y-79252771D01*
X106342856Y-79252771D02*
X106266665Y-79290866D01*
X107219047Y-79062295D02*
X107295237Y-79062295D01*
X107295237Y-79062295D02*
X107371428Y-79100390D01*
X107371428Y-79100390D02*
X107409523Y-79138485D01*
X107409523Y-79138485D02*
X107447618Y-79214676D01*
X107447618Y-79214676D02*
X107485713Y-79367057D01*
X107485713Y-79367057D02*
X107485713Y-79557533D01*
X107485713Y-79557533D02*
X107447618Y-79709914D01*
X107447618Y-79709914D02*
X107409523Y-79786104D01*
X107409523Y-79786104D02*
X107371428Y-79824200D01*
X107371428Y-79824200D02*
X107295237Y-79862295D01*
X107295237Y-79862295D02*
X107219047Y-79862295D01*
X107219047Y-79862295D02*
X107142856Y-79824200D01*
X107142856Y-79824200D02*
X107104761Y-79786104D01*
X107104761Y-79786104D02*
X107066666Y-79709914D01*
X107066666Y-79709914D02*
X107028570Y-79557533D01*
X107028570Y-79557533D02*
X107028570Y-79367057D01*
X107028570Y-79367057D02*
X107066666Y-79214676D01*
X107066666Y-79214676D02*
X107104761Y-79138485D01*
X107104761Y-79138485D02*
X107142856Y-79100390D01*
X107142856Y-79100390D02*
X107219047Y-79062295D01*
X107980952Y-79062295D02*
X108057142Y-79062295D01*
X108057142Y-79062295D02*
X108133333Y-79100390D01*
X108133333Y-79100390D02*
X108171428Y-79138485D01*
X108171428Y-79138485D02*
X108209523Y-79214676D01*
X108209523Y-79214676D02*
X108247618Y-79367057D01*
X108247618Y-79367057D02*
X108247618Y-79557533D01*
X108247618Y-79557533D02*
X108209523Y-79709914D01*
X108209523Y-79709914D02*
X108171428Y-79786104D01*
X108171428Y-79786104D02*
X108133333Y-79824200D01*
X108133333Y-79824200D02*
X108057142Y-79862295D01*
X108057142Y-79862295D02*
X107980952Y-79862295D01*
X107980952Y-79862295D02*
X107904761Y-79824200D01*
X107904761Y-79824200D02*
X107866666Y-79786104D01*
X107866666Y-79786104D02*
X107828571Y-79709914D01*
X107828571Y-79709914D02*
X107790475Y-79557533D01*
X107790475Y-79557533D02*
X107790475Y-79367057D01*
X107790475Y-79367057D02*
X107828571Y-79214676D01*
X107828571Y-79214676D02*
X107866666Y-79138485D01*
X107866666Y-79138485D02*
X107904761Y-79100390D01*
X107904761Y-79100390D02*
X107980952Y-79062295D01*
X108742857Y-79062295D02*
X108819047Y-79062295D01*
X108819047Y-79062295D02*
X108895238Y-79100390D01*
X108895238Y-79100390D02*
X108933333Y-79138485D01*
X108933333Y-79138485D02*
X108971428Y-79214676D01*
X108971428Y-79214676D02*
X109009523Y-79367057D01*
X109009523Y-79367057D02*
X109009523Y-79557533D01*
X109009523Y-79557533D02*
X108971428Y-79709914D01*
X108971428Y-79709914D02*
X108933333Y-79786104D01*
X108933333Y-79786104D02*
X108895238Y-79824200D01*
X108895238Y-79824200D02*
X108819047Y-79862295D01*
X108819047Y-79862295D02*
X108742857Y-79862295D01*
X108742857Y-79862295D02*
X108666666Y-79824200D01*
X108666666Y-79824200D02*
X108628571Y-79786104D01*
X108628571Y-79786104D02*
X108590476Y-79709914D01*
X108590476Y-79709914D02*
X108552380Y-79557533D01*
X108552380Y-79557533D02*
X108552380Y-79367057D01*
X108552380Y-79367057D02*
X108590476Y-79214676D01*
X108590476Y-79214676D02*
X108628571Y-79138485D01*
X108628571Y-79138485D02*
X108666666Y-79100390D01*
X108666666Y-79100390D02*
X108742857Y-79062295D01*
X109695238Y-79328961D02*
X109695238Y-79862295D01*
X109352381Y-79328961D02*
X109352381Y-79748009D01*
X109352381Y-79748009D02*
X109390476Y-79824200D01*
X109390476Y-79824200D02*
X109466666Y-79862295D01*
X109466666Y-79862295D02*
X109580952Y-79862295D01*
X109580952Y-79862295D02*
X109657143Y-79824200D01*
X109657143Y-79824200D02*
X109695238Y-79786104D01*
X110333333Y-78359580D02*
X110285714Y-78407200D01*
X110285714Y-78407200D02*
X110142857Y-78454819D01*
X110142857Y-78454819D02*
X110047619Y-78454819D01*
X110047619Y-78454819D02*
X109904762Y-78407200D01*
X109904762Y-78407200D02*
X109809524Y-78311961D01*
X109809524Y-78311961D02*
X109761905Y-78216723D01*
X109761905Y-78216723D02*
X109714286Y-78026247D01*
X109714286Y-78026247D02*
X109714286Y-77883390D01*
X109714286Y-77883390D02*
X109761905Y-77692914D01*
X109761905Y-77692914D02*
X109809524Y-77597676D01*
X109809524Y-77597676D02*
X109904762Y-77502438D01*
X109904762Y-77502438D02*
X110047619Y-77454819D01*
X110047619Y-77454819D02*
X110142857Y-77454819D01*
X110142857Y-77454819D02*
X110285714Y-77502438D01*
X110285714Y-77502438D02*
X110333333Y-77550057D01*
X111285714Y-78454819D02*
X110714286Y-78454819D01*
X111000000Y-78454819D02*
X111000000Y-77454819D01*
X111000000Y-77454819D02*
X110904762Y-77597676D01*
X110904762Y-77597676D02*
X110809524Y-77692914D01*
X110809524Y-77692914D02*
X110714286Y-77740533D01*
X118862295Y-76895238D02*
X118862295Y-77352381D01*
X118862295Y-77123809D02*
X118062295Y-77123809D01*
X118062295Y-77123809D02*
X118176580Y-77200000D01*
X118176580Y-77200000D02*
X118252771Y-77276190D01*
X118252771Y-77276190D02*
X118290866Y-77352381D01*
X118062295Y-76399999D02*
X118062295Y-76323809D01*
X118062295Y-76323809D02*
X118100390Y-76247618D01*
X118100390Y-76247618D02*
X118138485Y-76209523D01*
X118138485Y-76209523D02*
X118214676Y-76171428D01*
X118214676Y-76171428D02*
X118367057Y-76133333D01*
X118367057Y-76133333D02*
X118557533Y-76133333D01*
X118557533Y-76133333D02*
X118709914Y-76171428D01*
X118709914Y-76171428D02*
X118786104Y-76209523D01*
X118786104Y-76209523D02*
X118824200Y-76247618D01*
X118824200Y-76247618D02*
X118862295Y-76323809D01*
X118862295Y-76323809D02*
X118862295Y-76399999D01*
X118862295Y-76399999D02*
X118824200Y-76476190D01*
X118824200Y-76476190D02*
X118786104Y-76514285D01*
X118786104Y-76514285D02*
X118709914Y-76552380D01*
X118709914Y-76552380D02*
X118557533Y-76590476D01*
X118557533Y-76590476D02*
X118367057Y-76590476D01*
X118367057Y-76590476D02*
X118214676Y-76552380D01*
X118214676Y-76552380D02*
X118138485Y-76514285D01*
X118138485Y-76514285D02*
X118100390Y-76476190D01*
X118100390Y-76476190D02*
X118062295Y-76399999D01*
X118062295Y-75638094D02*
X118062295Y-75561904D01*
X118062295Y-75561904D02*
X118100390Y-75485713D01*
X118100390Y-75485713D02*
X118138485Y-75447618D01*
X118138485Y-75447618D02*
X118214676Y-75409523D01*
X118214676Y-75409523D02*
X118367057Y-75371428D01*
X118367057Y-75371428D02*
X118557533Y-75371428D01*
X118557533Y-75371428D02*
X118709914Y-75409523D01*
X118709914Y-75409523D02*
X118786104Y-75447618D01*
X118786104Y-75447618D02*
X118824200Y-75485713D01*
X118824200Y-75485713D02*
X118862295Y-75561904D01*
X118862295Y-75561904D02*
X118862295Y-75638094D01*
X118862295Y-75638094D02*
X118824200Y-75714285D01*
X118824200Y-75714285D02*
X118786104Y-75752380D01*
X118786104Y-75752380D02*
X118709914Y-75790475D01*
X118709914Y-75790475D02*
X118557533Y-75828571D01*
X118557533Y-75828571D02*
X118367057Y-75828571D01*
X118367057Y-75828571D02*
X118214676Y-75790475D01*
X118214676Y-75790475D02*
X118138485Y-75752380D01*
X118138485Y-75752380D02*
X118100390Y-75714285D01*
X118100390Y-75714285D02*
X118062295Y-75638094D01*
X118328961Y-75028570D02*
X118862295Y-75028570D01*
X118405152Y-75028570D02*
X118367057Y-74990475D01*
X118367057Y-74990475D02*
X118328961Y-74914285D01*
X118328961Y-74914285D02*
X118328961Y-74799999D01*
X118328961Y-74799999D02*
X118367057Y-74723808D01*
X118367057Y-74723808D02*
X118443247Y-74685713D01*
X118443247Y-74685713D02*
X118862295Y-74685713D01*
D12*
X119916666Y-76179530D02*
X119892857Y-76203340D01*
X119892857Y-76203340D02*
X119821428Y-76227149D01*
X119821428Y-76227149D02*
X119773809Y-76227149D01*
X119773809Y-76227149D02*
X119702381Y-76203340D01*
X119702381Y-76203340D02*
X119654762Y-76155720D01*
X119654762Y-76155720D02*
X119630952Y-76108101D01*
X119630952Y-76108101D02*
X119607143Y-76012863D01*
X119607143Y-76012863D02*
X119607143Y-75941435D01*
X119607143Y-75941435D02*
X119630952Y-75846197D01*
X119630952Y-75846197D02*
X119654762Y-75798578D01*
X119654762Y-75798578D02*
X119702381Y-75750959D01*
X119702381Y-75750959D02*
X119773809Y-75727149D01*
X119773809Y-75727149D02*
X119821428Y-75727149D01*
X119821428Y-75727149D02*
X119892857Y-75750959D01*
X119892857Y-75750959D02*
X119916666Y-75774768D01*
X120107143Y-75774768D02*
X120130952Y-75750959D01*
X120130952Y-75750959D02*
X120178571Y-75727149D01*
X120178571Y-75727149D02*
X120297619Y-75727149D01*
X120297619Y-75727149D02*
X120345238Y-75750959D01*
X120345238Y-75750959D02*
X120369047Y-75774768D01*
X120369047Y-75774768D02*
X120392857Y-75822387D01*
X120392857Y-75822387D02*
X120392857Y-75870006D01*
X120392857Y-75870006D02*
X120369047Y-75941435D01*
X120369047Y-75941435D02*
X120083333Y-76227149D01*
X120083333Y-76227149D02*
X120392857Y-76227149D01*
D10*
X124138485Y-76933333D02*
X124100390Y-76895237D01*
X124100390Y-76895237D02*
X124062295Y-76819047D01*
X124062295Y-76819047D02*
X124062295Y-76628571D01*
X124062295Y-76628571D02*
X124100390Y-76552380D01*
X124100390Y-76552380D02*
X124138485Y-76514285D01*
X124138485Y-76514285D02*
X124214676Y-76476190D01*
X124214676Y-76476190D02*
X124290866Y-76476190D01*
X124290866Y-76476190D02*
X124405152Y-76514285D01*
X124405152Y-76514285D02*
X124862295Y-76971428D01*
X124862295Y-76971428D02*
X124862295Y-76476190D01*
X124138485Y-76171428D02*
X124100390Y-76133332D01*
X124100390Y-76133332D02*
X124062295Y-76057142D01*
X124062295Y-76057142D02*
X124062295Y-75866666D01*
X124062295Y-75866666D02*
X124100390Y-75790475D01*
X124100390Y-75790475D02*
X124138485Y-75752380D01*
X124138485Y-75752380D02*
X124214676Y-75714285D01*
X124214676Y-75714285D02*
X124290866Y-75714285D01*
X124290866Y-75714285D02*
X124405152Y-75752380D01*
X124405152Y-75752380D02*
X124862295Y-76209523D01*
X124862295Y-76209523D02*
X124862295Y-75714285D01*
X124862295Y-75371427D02*
X124062295Y-75371427D01*
X124557533Y-75295237D02*
X124862295Y-75066665D01*
X124328961Y-75066665D02*
X124633723Y-75371427D01*
D12*
X125916666Y-76227149D02*
X125750000Y-75989054D01*
X125630952Y-76227149D02*
X125630952Y-75727149D01*
X125630952Y-75727149D02*
X125821428Y-75727149D01*
X125821428Y-75727149D02*
X125869047Y-75750959D01*
X125869047Y-75750959D02*
X125892857Y-75774768D01*
X125892857Y-75774768D02*
X125916666Y-75822387D01*
X125916666Y-75822387D02*
X125916666Y-75893816D01*
X125916666Y-75893816D02*
X125892857Y-75941435D01*
X125892857Y-75941435D02*
X125869047Y-75965244D01*
X125869047Y-75965244D02*
X125821428Y-75989054D01*
X125821428Y-75989054D02*
X125630952Y-75989054D01*
X126369047Y-75727149D02*
X126130952Y-75727149D01*
X126130952Y-75727149D02*
X126107143Y-75965244D01*
X126107143Y-75965244D02*
X126130952Y-75941435D01*
X126130952Y-75941435D02*
X126178571Y-75917625D01*
X126178571Y-75917625D02*
X126297619Y-75917625D01*
X126297619Y-75917625D02*
X126345238Y-75941435D01*
X126345238Y-75941435D02*
X126369047Y-75965244D01*
X126369047Y-75965244D02*
X126392857Y-76012863D01*
X126392857Y-76012863D02*
X126392857Y-76131911D01*
X126392857Y-76131911D02*
X126369047Y-76179530D01*
X126369047Y-76179530D02*
X126345238Y-76203340D01*
X126345238Y-76203340D02*
X126297619Y-76227149D01*
X126297619Y-76227149D02*
X126178571Y-76227149D01*
X126178571Y-76227149D02*
X126130952Y-76203340D01*
X126130952Y-76203340D02*
X126107143Y-76179530D01*
D10*
X127862295Y-82066666D02*
X127062295Y-82066666D01*
X127062295Y-82066666D02*
X127062295Y-81761904D01*
X127062295Y-81761904D02*
X127100390Y-81685714D01*
X127100390Y-81685714D02*
X127138485Y-81647619D01*
X127138485Y-81647619D02*
X127214676Y-81609523D01*
X127214676Y-81609523D02*
X127328961Y-81609523D01*
X127328961Y-81609523D02*
X127405152Y-81647619D01*
X127405152Y-81647619D02*
X127443247Y-81685714D01*
X127443247Y-81685714D02*
X127481342Y-81761904D01*
X127481342Y-81761904D02*
X127481342Y-82066666D01*
X127062295Y-81342857D02*
X127862295Y-81152381D01*
X127862295Y-81152381D02*
X127290866Y-81000000D01*
X127290866Y-81000000D02*
X127862295Y-80847619D01*
X127862295Y-80847619D02*
X127062295Y-80657143D01*
X127862295Y-79895237D02*
X127481342Y-80161904D01*
X127862295Y-80352380D02*
X127062295Y-80352380D01*
X127062295Y-80352380D02*
X127062295Y-80047618D01*
X127062295Y-80047618D02*
X127100390Y-79971428D01*
X127100390Y-79971428D02*
X127138485Y-79933333D01*
X127138485Y-79933333D02*
X127214676Y-79895237D01*
X127214676Y-79895237D02*
X127328961Y-79895237D01*
X127328961Y-79895237D02*
X127405152Y-79933333D01*
X127405152Y-79933333D02*
X127443247Y-79971428D01*
X127443247Y-79971428D02*
X127481342Y-80047618D01*
X127481342Y-80047618D02*
X127481342Y-80352380D01*
D12*
X125630952Y-81227149D02*
X125630952Y-80727149D01*
X125630952Y-80727149D02*
X125750000Y-80727149D01*
X125750000Y-80727149D02*
X125821428Y-80750959D01*
X125821428Y-80750959D02*
X125869047Y-80798578D01*
X125869047Y-80798578D02*
X125892857Y-80846197D01*
X125892857Y-80846197D02*
X125916666Y-80941435D01*
X125916666Y-80941435D02*
X125916666Y-81012863D01*
X125916666Y-81012863D02*
X125892857Y-81108101D01*
X125892857Y-81108101D02*
X125869047Y-81155720D01*
X125869047Y-81155720D02*
X125821428Y-81203340D01*
X125821428Y-81203340D02*
X125750000Y-81227149D01*
X125750000Y-81227149D02*
X125630952Y-81227149D01*
X126107143Y-80774768D02*
X126130952Y-80750959D01*
X126130952Y-80750959D02*
X126178571Y-80727149D01*
X126178571Y-80727149D02*
X126297619Y-80727149D01*
X126297619Y-80727149D02*
X126345238Y-80750959D01*
X126345238Y-80750959D02*
X126369047Y-80774768D01*
X126369047Y-80774768D02*
X126392857Y-80822387D01*
X126392857Y-80822387D02*
X126392857Y-80870006D01*
X126392857Y-80870006D02*
X126369047Y-80941435D01*
X126369047Y-80941435D02*
X126083333Y-81227149D01*
X126083333Y-81227149D02*
X126392857Y-81227149D01*
D10*
X142862295Y-66533333D02*
X142862295Y-66990476D01*
X142862295Y-66761904D02*
X142062295Y-66761904D01*
X142062295Y-66761904D02*
X142176580Y-66838095D01*
X142176580Y-66838095D02*
X142252771Y-66914285D01*
X142252771Y-66914285D02*
X142290866Y-66990476D01*
X142062295Y-66038094D02*
X142062295Y-65961904D01*
X142062295Y-65961904D02*
X142100390Y-65885713D01*
X142100390Y-65885713D02*
X142138485Y-65847618D01*
X142138485Y-65847618D02*
X142214676Y-65809523D01*
X142214676Y-65809523D02*
X142367057Y-65771428D01*
X142367057Y-65771428D02*
X142557533Y-65771428D01*
X142557533Y-65771428D02*
X142709914Y-65809523D01*
X142709914Y-65809523D02*
X142786104Y-65847618D01*
X142786104Y-65847618D02*
X142824200Y-65885713D01*
X142824200Y-65885713D02*
X142862295Y-65961904D01*
X142862295Y-65961904D02*
X142862295Y-66038094D01*
X142862295Y-66038094D02*
X142824200Y-66114285D01*
X142824200Y-66114285D02*
X142786104Y-66152380D01*
X142786104Y-66152380D02*
X142709914Y-66190475D01*
X142709914Y-66190475D02*
X142557533Y-66228571D01*
X142557533Y-66228571D02*
X142367057Y-66228571D01*
X142367057Y-66228571D02*
X142214676Y-66190475D01*
X142214676Y-66190475D02*
X142138485Y-66152380D01*
X142138485Y-66152380D02*
X142100390Y-66114285D01*
X142100390Y-66114285D02*
X142062295Y-66038094D01*
X142062295Y-65276189D02*
X142062295Y-65199999D01*
X142062295Y-65199999D02*
X142100390Y-65123808D01*
X142100390Y-65123808D02*
X142138485Y-65085713D01*
X142138485Y-65085713D02*
X142214676Y-65047618D01*
X142214676Y-65047618D02*
X142367057Y-65009523D01*
X142367057Y-65009523D02*
X142557533Y-65009523D01*
X142557533Y-65009523D02*
X142709914Y-65047618D01*
X142709914Y-65047618D02*
X142786104Y-65085713D01*
X142786104Y-65085713D02*
X142824200Y-65123808D01*
X142824200Y-65123808D02*
X142862295Y-65199999D01*
X142862295Y-65199999D02*
X142862295Y-65276189D01*
X142862295Y-65276189D02*
X142824200Y-65352380D01*
X142824200Y-65352380D02*
X142786104Y-65390475D01*
X142786104Y-65390475D02*
X142709914Y-65428570D01*
X142709914Y-65428570D02*
X142557533Y-65466666D01*
X142557533Y-65466666D02*
X142367057Y-65466666D01*
X142367057Y-65466666D02*
X142214676Y-65428570D01*
X142214676Y-65428570D02*
X142138485Y-65390475D01*
X142138485Y-65390475D02*
X142100390Y-65352380D01*
X142100390Y-65352380D02*
X142062295Y-65276189D01*
D12*
X143678571Y-66227149D02*
X143511905Y-65989054D01*
X143392857Y-66227149D02*
X143392857Y-65727149D01*
X143392857Y-65727149D02*
X143583333Y-65727149D01*
X143583333Y-65727149D02*
X143630952Y-65750959D01*
X143630952Y-65750959D02*
X143654762Y-65774768D01*
X143654762Y-65774768D02*
X143678571Y-65822387D01*
X143678571Y-65822387D02*
X143678571Y-65893816D01*
X143678571Y-65893816D02*
X143654762Y-65941435D01*
X143654762Y-65941435D02*
X143630952Y-65965244D01*
X143630952Y-65965244D02*
X143583333Y-65989054D01*
X143583333Y-65989054D02*
X143392857Y-65989054D01*
X144154762Y-66227149D02*
X143869048Y-66227149D01*
X144011905Y-66227149D02*
X144011905Y-65727149D01*
X144011905Y-65727149D02*
X143964286Y-65798578D01*
X143964286Y-65798578D02*
X143916667Y-65846197D01*
X143916667Y-65846197D02*
X143869048Y-65870006D01*
X144464285Y-65727149D02*
X144511904Y-65727149D01*
X144511904Y-65727149D02*
X144559523Y-65750959D01*
X144559523Y-65750959D02*
X144583333Y-65774768D01*
X144583333Y-65774768D02*
X144607142Y-65822387D01*
X144607142Y-65822387D02*
X144630952Y-65917625D01*
X144630952Y-65917625D02*
X144630952Y-66036673D01*
X144630952Y-66036673D02*
X144607142Y-66131911D01*
X144607142Y-66131911D02*
X144583333Y-66179530D01*
X144583333Y-66179530D02*
X144559523Y-66203340D01*
X144559523Y-66203340D02*
X144511904Y-66227149D01*
X144511904Y-66227149D02*
X144464285Y-66227149D01*
X144464285Y-66227149D02*
X144416666Y-66203340D01*
X144416666Y-66203340D02*
X144392857Y-66179530D01*
X144392857Y-66179530D02*
X144369047Y-66131911D01*
X144369047Y-66131911D02*
X144345238Y-66036673D01*
X144345238Y-66036673D02*
X144345238Y-65917625D01*
X144345238Y-65917625D02*
X144369047Y-65822387D01*
X144369047Y-65822387D02*
X144392857Y-65774768D01*
X144392857Y-65774768D02*
X144416666Y-65750959D01*
X144416666Y-65750959D02*
X144464285Y-65727149D01*
D10*
X143485713Y-77862295D02*
X143028570Y-77862295D01*
X143257142Y-77862295D02*
X143257142Y-77062295D01*
X143257142Y-77062295D02*
X143180951Y-77176580D01*
X143180951Y-77176580D02*
X143104761Y-77252771D01*
X143104761Y-77252771D02*
X143028570Y-77290866D01*
X143980952Y-77062295D02*
X144057142Y-77062295D01*
X144057142Y-77062295D02*
X144133333Y-77100390D01*
X144133333Y-77100390D02*
X144171428Y-77138485D01*
X144171428Y-77138485D02*
X144209523Y-77214676D01*
X144209523Y-77214676D02*
X144247618Y-77367057D01*
X144247618Y-77367057D02*
X144247618Y-77557533D01*
X144247618Y-77557533D02*
X144209523Y-77709914D01*
X144209523Y-77709914D02*
X144171428Y-77786104D01*
X144171428Y-77786104D02*
X144133333Y-77824200D01*
X144133333Y-77824200D02*
X144057142Y-77862295D01*
X144057142Y-77862295D02*
X143980952Y-77862295D01*
X143980952Y-77862295D02*
X143904761Y-77824200D01*
X143904761Y-77824200D02*
X143866666Y-77786104D01*
X143866666Y-77786104D02*
X143828571Y-77709914D01*
X143828571Y-77709914D02*
X143790475Y-77557533D01*
X143790475Y-77557533D02*
X143790475Y-77367057D01*
X143790475Y-77367057D02*
X143828571Y-77214676D01*
X143828571Y-77214676D02*
X143866666Y-77138485D01*
X143866666Y-77138485D02*
X143904761Y-77100390D01*
X143904761Y-77100390D02*
X143980952Y-77062295D01*
X144933333Y-77328961D02*
X144933333Y-77862295D01*
X144590476Y-77328961D02*
X144590476Y-77748009D01*
X144590476Y-77748009D02*
X144628571Y-77824200D01*
X144628571Y-77824200D02*
X144704761Y-77862295D01*
X144704761Y-77862295D02*
X144819047Y-77862295D01*
X144819047Y-77862295D02*
X144895238Y-77824200D01*
X144895238Y-77824200D02*
X144933333Y-77786104D01*
X144833333Y-76359580D02*
X144785714Y-76407200D01*
X144785714Y-76407200D02*
X144642857Y-76454819D01*
X144642857Y-76454819D02*
X144547619Y-76454819D01*
X144547619Y-76454819D02*
X144404762Y-76407200D01*
X144404762Y-76407200D02*
X144309524Y-76311961D01*
X144309524Y-76311961D02*
X144261905Y-76216723D01*
X144261905Y-76216723D02*
X144214286Y-76026247D01*
X144214286Y-76026247D02*
X144214286Y-75883390D01*
X144214286Y-75883390D02*
X144261905Y-75692914D01*
X144261905Y-75692914D02*
X144309524Y-75597676D01*
X144309524Y-75597676D02*
X144404762Y-75502438D01*
X144404762Y-75502438D02*
X144547619Y-75454819D01*
X144547619Y-75454819D02*
X144642857Y-75454819D01*
X144642857Y-75454819D02*
X144785714Y-75502438D01*
X144785714Y-75502438D02*
X144833333Y-75550057D01*
X145166667Y-75454819D02*
X145785714Y-75454819D01*
X145785714Y-75454819D02*
X145452381Y-75835771D01*
X145452381Y-75835771D02*
X145595238Y-75835771D01*
X145595238Y-75835771D02*
X145690476Y-75883390D01*
X145690476Y-75883390D02*
X145738095Y-75931009D01*
X145738095Y-75931009D02*
X145785714Y-76026247D01*
X145785714Y-76026247D02*
X145785714Y-76264342D01*
X145785714Y-76264342D02*
X145738095Y-76359580D01*
X145738095Y-76359580D02*
X145690476Y-76407200D01*
X145690476Y-76407200D02*
X145595238Y-76454819D01*
X145595238Y-76454819D02*
X145309524Y-76454819D01*
X145309524Y-76454819D02*
X145214286Y-76407200D01*
X145214286Y-76407200D02*
X145166667Y-76359580D01*
X144862295Y-70895238D02*
X144862295Y-71352381D01*
X144862295Y-71123809D02*
X144062295Y-71123809D01*
X144062295Y-71123809D02*
X144176580Y-71200000D01*
X144176580Y-71200000D02*
X144252771Y-71276190D01*
X144252771Y-71276190D02*
X144290866Y-71352381D01*
X144062295Y-70399999D02*
X144062295Y-70323809D01*
X144062295Y-70323809D02*
X144100390Y-70247618D01*
X144100390Y-70247618D02*
X144138485Y-70209523D01*
X144138485Y-70209523D02*
X144214676Y-70171428D01*
X144214676Y-70171428D02*
X144367057Y-70133333D01*
X144367057Y-70133333D02*
X144557533Y-70133333D01*
X144557533Y-70133333D02*
X144709914Y-70171428D01*
X144709914Y-70171428D02*
X144786104Y-70209523D01*
X144786104Y-70209523D02*
X144824200Y-70247618D01*
X144824200Y-70247618D02*
X144862295Y-70323809D01*
X144862295Y-70323809D02*
X144862295Y-70399999D01*
X144862295Y-70399999D02*
X144824200Y-70476190D01*
X144824200Y-70476190D02*
X144786104Y-70514285D01*
X144786104Y-70514285D02*
X144709914Y-70552380D01*
X144709914Y-70552380D02*
X144557533Y-70590476D01*
X144557533Y-70590476D02*
X144367057Y-70590476D01*
X144367057Y-70590476D02*
X144214676Y-70552380D01*
X144214676Y-70552380D02*
X144138485Y-70514285D01*
X144138485Y-70514285D02*
X144100390Y-70476190D01*
X144100390Y-70476190D02*
X144062295Y-70399999D01*
X144062295Y-69638094D02*
X144062295Y-69561904D01*
X144062295Y-69561904D02*
X144100390Y-69485713D01*
X144100390Y-69485713D02*
X144138485Y-69447618D01*
X144138485Y-69447618D02*
X144214676Y-69409523D01*
X144214676Y-69409523D02*
X144367057Y-69371428D01*
X144367057Y-69371428D02*
X144557533Y-69371428D01*
X144557533Y-69371428D02*
X144709914Y-69409523D01*
X144709914Y-69409523D02*
X144786104Y-69447618D01*
X144786104Y-69447618D02*
X144824200Y-69485713D01*
X144824200Y-69485713D02*
X144862295Y-69561904D01*
X144862295Y-69561904D02*
X144862295Y-69638094D01*
X144862295Y-69638094D02*
X144824200Y-69714285D01*
X144824200Y-69714285D02*
X144786104Y-69752380D01*
X144786104Y-69752380D02*
X144709914Y-69790475D01*
X144709914Y-69790475D02*
X144557533Y-69828571D01*
X144557533Y-69828571D02*
X144367057Y-69828571D01*
X144367057Y-69828571D02*
X144214676Y-69790475D01*
X144214676Y-69790475D02*
X144138485Y-69752380D01*
X144138485Y-69752380D02*
X144100390Y-69714285D01*
X144100390Y-69714285D02*
X144062295Y-69638094D01*
X144328961Y-69028570D02*
X144862295Y-69028570D01*
X144405152Y-69028570D02*
X144367057Y-68990475D01*
X144367057Y-68990475D02*
X144328961Y-68914285D01*
X144328961Y-68914285D02*
X144328961Y-68799999D01*
X144328961Y-68799999D02*
X144367057Y-68723808D01*
X144367057Y-68723808D02*
X144443247Y-68685713D01*
X144443247Y-68685713D02*
X144862295Y-68685713D01*
D12*
X145916666Y-70179530D02*
X145892857Y-70203340D01*
X145892857Y-70203340D02*
X145821428Y-70227149D01*
X145821428Y-70227149D02*
X145773809Y-70227149D01*
X145773809Y-70227149D02*
X145702381Y-70203340D01*
X145702381Y-70203340D02*
X145654762Y-70155720D01*
X145654762Y-70155720D02*
X145630952Y-70108101D01*
X145630952Y-70108101D02*
X145607143Y-70012863D01*
X145607143Y-70012863D02*
X145607143Y-69941435D01*
X145607143Y-69941435D02*
X145630952Y-69846197D01*
X145630952Y-69846197D02*
X145654762Y-69798578D01*
X145654762Y-69798578D02*
X145702381Y-69750959D01*
X145702381Y-69750959D02*
X145773809Y-69727149D01*
X145773809Y-69727149D02*
X145821428Y-69727149D01*
X145821428Y-69727149D02*
X145892857Y-69750959D01*
X145892857Y-69750959D02*
X145916666Y-69774768D01*
X146345238Y-69893816D02*
X146345238Y-70227149D01*
X146226190Y-69703340D02*
X146107143Y-70060482D01*
X146107143Y-70060482D02*
X146416666Y-70060482D01*
D10*
X152862295Y-66857143D02*
X152862295Y-67314286D01*
X152862295Y-67085714D02*
X152062295Y-67085714D01*
X152062295Y-67085714D02*
X152176580Y-67161905D01*
X152176580Y-67161905D02*
X152252771Y-67238095D01*
X152252771Y-67238095D02*
X152290866Y-67314286D01*
X152062295Y-66361904D02*
X152062295Y-66285714D01*
X152062295Y-66285714D02*
X152100390Y-66209523D01*
X152100390Y-66209523D02*
X152138485Y-66171428D01*
X152138485Y-66171428D02*
X152214676Y-66133333D01*
X152214676Y-66133333D02*
X152367057Y-66095238D01*
X152367057Y-66095238D02*
X152557533Y-66095238D01*
X152557533Y-66095238D02*
X152709914Y-66133333D01*
X152709914Y-66133333D02*
X152786104Y-66171428D01*
X152786104Y-66171428D02*
X152824200Y-66209523D01*
X152824200Y-66209523D02*
X152862295Y-66285714D01*
X152862295Y-66285714D02*
X152862295Y-66361904D01*
X152862295Y-66361904D02*
X152824200Y-66438095D01*
X152824200Y-66438095D02*
X152786104Y-66476190D01*
X152786104Y-66476190D02*
X152709914Y-66514285D01*
X152709914Y-66514285D02*
X152557533Y-66552381D01*
X152557533Y-66552381D02*
X152367057Y-66552381D01*
X152367057Y-66552381D02*
X152214676Y-66514285D01*
X152214676Y-66514285D02*
X152138485Y-66476190D01*
X152138485Y-66476190D02*
X152100390Y-66438095D01*
X152100390Y-66438095D02*
X152062295Y-66361904D01*
X152062295Y-65599999D02*
X152062295Y-65523809D01*
X152062295Y-65523809D02*
X152100390Y-65447618D01*
X152100390Y-65447618D02*
X152138485Y-65409523D01*
X152138485Y-65409523D02*
X152214676Y-65371428D01*
X152214676Y-65371428D02*
X152367057Y-65333333D01*
X152367057Y-65333333D02*
X152557533Y-65333333D01*
X152557533Y-65333333D02*
X152709914Y-65371428D01*
X152709914Y-65371428D02*
X152786104Y-65409523D01*
X152786104Y-65409523D02*
X152824200Y-65447618D01*
X152824200Y-65447618D02*
X152862295Y-65523809D01*
X152862295Y-65523809D02*
X152862295Y-65599999D01*
X152862295Y-65599999D02*
X152824200Y-65676190D01*
X152824200Y-65676190D02*
X152786104Y-65714285D01*
X152786104Y-65714285D02*
X152709914Y-65752380D01*
X152709914Y-65752380D02*
X152557533Y-65790476D01*
X152557533Y-65790476D02*
X152367057Y-65790476D01*
X152367057Y-65790476D02*
X152214676Y-65752380D01*
X152214676Y-65752380D02*
X152138485Y-65714285D01*
X152138485Y-65714285D02*
X152100390Y-65676190D01*
X152100390Y-65676190D02*
X152062295Y-65599999D01*
X152862295Y-64990475D02*
X152062295Y-64990475D01*
X152557533Y-64914285D02*
X152862295Y-64685713D01*
X152328961Y-64685713D02*
X152633723Y-64990475D01*
D12*
X153916666Y-66227149D02*
X153750000Y-65989054D01*
X153630952Y-66227149D02*
X153630952Y-65727149D01*
X153630952Y-65727149D02*
X153821428Y-65727149D01*
X153821428Y-65727149D02*
X153869047Y-65750959D01*
X153869047Y-65750959D02*
X153892857Y-65774768D01*
X153892857Y-65774768D02*
X153916666Y-65822387D01*
X153916666Y-65822387D02*
X153916666Y-65893816D01*
X153916666Y-65893816D02*
X153892857Y-65941435D01*
X153892857Y-65941435D02*
X153869047Y-65965244D01*
X153869047Y-65965244D02*
X153821428Y-65989054D01*
X153821428Y-65989054D02*
X153630952Y-65989054D01*
X154345238Y-65893816D02*
X154345238Y-66227149D01*
X154226190Y-65703340D02*
X154107143Y-66060482D01*
X154107143Y-66060482D02*
X154416666Y-66060482D01*
D10*
X153009523Y-87138485D02*
X153047619Y-87100390D01*
X153047619Y-87100390D02*
X153123809Y-87062295D01*
X153123809Y-87062295D02*
X153314285Y-87062295D01*
X153314285Y-87062295D02*
X153390476Y-87100390D01*
X153390476Y-87100390D02*
X153428571Y-87138485D01*
X153428571Y-87138485D02*
X153466666Y-87214676D01*
X153466666Y-87214676D02*
X153466666Y-87290866D01*
X153466666Y-87290866D02*
X153428571Y-87405152D01*
X153428571Y-87405152D02*
X152971428Y-87862295D01*
X152971428Y-87862295D02*
X153466666Y-87862295D01*
X153771428Y-87138485D02*
X153809524Y-87100390D01*
X153809524Y-87100390D02*
X153885714Y-87062295D01*
X153885714Y-87062295D02*
X154076190Y-87062295D01*
X154076190Y-87062295D02*
X154152381Y-87100390D01*
X154152381Y-87100390D02*
X154190476Y-87138485D01*
X154190476Y-87138485D02*
X154228571Y-87214676D01*
X154228571Y-87214676D02*
X154228571Y-87290866D01*
X154228571Y-87290866D02*
X154190476Y-87405152D01*
X154190476Y-87405152D02*
X153733333Y-87862295D01*
X153733333Y-87862295D02*
X154228571Y-87862295D01*
X154723810Y-87062295D02*
X154800000Y-87062295D01*
X154800000Y-87062295D02*
X154876191Y-87100390D01*
X154876191Y-87100390D02*
X154914286Y-87138485D01*
X154914286Y-87138485D02*
X154952381Y-87214676D01*
X154952381Y-87214676D02*
X154990476Y-87367057D01*
X154990476Y-87367057D02*
X154990476Y-87557533D01*
X154990476Y-87557533D02*
X154952381Y-87709914D01*
X154952381Y-87709914D02*
X154914286Y-87786104D01*
X154914286Y-87786104D02*
X154876191Y-87824200D01*
X154876191Y-87824200D02*
X154800000Y-87862295D01*
X154800000Y-87862295D02*
X154723810Y-87862295D01*
X154723810Y-87862295D02*
X154647619Y-87824200D01*
X154647619Y-87824200D02*
X154609524Y-87786104D01*
X154609524Y-87786104D02*
X154571429Y-87709914D01*
X154571429Y-87709914D02*
X154533333Y-87557533D01*
X154533333Y-87557533D02*
X154533333Y-87367057D01*
X154533333Y-87367057D02*
X154571429Y-87214676D01*
X154571429Y-87214676D02*
X154609524Y-87138485D01*
X154609524Y-87138485D02*
X154647619Y-87100390D01*
X154647619Y-87100390D02*
X154723810Y-87062295D01*
D12*
X153916666Y-86227149D02*
X153750000Y-85989054D01*
X153630952Y-86227149D02*
X153630952Y-85727149D01*
X153630952Y-85727149D02*
X153821428Y-85727149D01*
X153821428Y-85727149D02*
X153869047Y-85750959D01*
X153869047Y-85750959D02*
X153892857Y-85774768D01*
X153892857Y-85774768D02*
X153916666Y-85822387D01*
X153916666Y-85822387D02*
X153916666Y-85893816D01*
X153916666Y-85893816D02*
X153892857Y-85941435D01*
X153892857Y-85941435D02*
X153869047Y-85965244D01*
X153869047Y-85965244D02*
X153821428Y-85989054D01*
X153821428Y-85989054D02*
X153630952Y-85989054D01*
X154083333Y-85727149D02*
X154392857Y-85727149D01*
X154392857Y-85727149D02*
X154226190Y-85917625D01*
X154226190Y-85917625D02*
X154297619Y-85917625D01*
X154297619Y-85917625D02*
X154345238Y-85941435D01*
X154345238Y-85941435D02*
X154369047Y-85965244D01*
X154369047Y-85965244D02*
X154392857Y-86012863D01*
X154392857Y-86012863D02*
X154392857Y-86131911D01*
X154392857Y-86131911D02*
X154369047Y-86179530D01*
X154369047Y-86179530D02*
X154345238Y-86203340D01*
X154345238Y-86203340D02*
X154297619Y-86227149D01*
X154297619Y-86227149D02*
X154154762Y-86227149D01*
X154154762Y-86227149D02*
X154107143Y-86203340D01*
X154107143Y-86203340D02*
X154083333Y-86179530D01*
D10*
X163862295Y-82914285D02*
X163062295Y-82914285D01*
X163062295Y-82914285D02*
X163062295Y-82723809D01*
X163062295Y-82723809D02*
X163100390Y-82609523D01*
X163100390Y-82609523D02*
X163176580Y-82533333D01*
X163176580Y-82533333D02*
X163252771Y-82495238D01*
X163252771Y-82495238D02*
X163405152Y-82457142D01*
X163405152Y-82457142D02*
X163519438Y-82457142D01*
X163519438Y-82457142D02*
X163671819Y-82495238D01*
X163671819Y-82495238D02*
X163748009Y-82533333D01*
X163748009Y-82533333D02*
X163824200Y-82609523D01*
X163824200Y-82609523D02*
X163862295Y-82723809D01*
X163862295Y-82723809D02*
X163862295Y-82914285D01*
X163862295Y-82114285D02*
X163062295Y-82114285D01*
X163062295Y-82114285D02*
X163633723Y-81847619D01*
X163633723Y-81847619D02*
X163062295Y-81580952D01*
X163062295Y-81580952D02*
X163862295Y-81580952D01*
X163862295Y-81199999D02*
X163062295Y-81199999D01*
X163062295Y-81199999D02*
X163062295Y-80895237D01*
X163062295Y-80895237D02*
X163100390Y-80819047D01*
X163100390Y-80819047D02*
X163138485Y-80780952D01*
X163138485Y-80780952D02*
X163214676Y-80742856D01*
X163214676Y-80742856D02*
X163328961Y-80742856D01*
X163328961Y-80742856D02*
X163405152Y-80780952D01*
X163405152Y-80780952D02*
X163443247Y-80819047D01*
X163443247Y-80819047D02*
X163481342Y-80895237D01*
X163481342Y-80895237D02*
X163481342Y-81199999D01*
X163062295Y-80476190D02*
X163062295Y-79980952D01*
X163062295Y-79980952D02*
X163367057Y-80247618D01*
X163367057Y-80247618D02*
X163367057Y-80133333D01*
X163367057Y-80133333D02*
X163405152Y-80057142D01*
X163405152Y-80057142D02*
X163443247Y-80019047D01*
X163443247Y-80019047D02*
X163519438Y-79980952D01*
X163519438Y-79980952D02*
X163709914Y-79980952D01*
X163709914Y-79980952D02*
X163786104Y-80019047D01*
X163786104Y-80019047D02*
X163824200Y-80057142D01*
X163824200Y-80057142D02*
X163862295Y-80133333D01*
X163862295Y-80133333D02*
X163862295Y-80361904D01*
X163862295Y-80361904D02*
X163824200Y-80438095D01*
X163824200Y-80438095D02*
X163786104Y-80476190D01*
X163062295Y-79485713D02*
X163062295Y-79409523D01*
X163062295Y-79409523D02*
X163100390Y-79333332D01*
X163100390Y-79333332D02*
X163138485Y-79295237D01*
X163138485Y-79295237D02*
X163214676Y-79257142D01*
X163214676Y-79257142D02*
X163367057Y-79219047D01*
X163367057Y-79219047D02*
X163557533Y-79219047D01*
X163557533Y-79219047D02*
X163709914Y-79257142D01*
X163709914Y-79257142D02*
X163786104Y-79295237D01*
X163786104Y-79295237D02*
X163824200Y-79333332D01*
X163824200Y-79333332D02*
X163862295Y-79409523D01*
X163862295Y-79409523D02*
X163862295Y-79485713D01*
X163862295Y-79485713D02*
X163824200Y-79561904D01*
X163824200Y-79561904D02*
X163786104Y-79599999D01*
X163786104Y-79599999D02*
X163709914Y-79638094D01*
X163709914Y-79638094D02*
X163557533Y-79676190D01*
X163557533Y-79676190D02*
X163367057Y-79676190D01*
X163367057Y-79676190D02*
X163214676Y-79638094D01*
X163214676Y-79638094D02*
X163138485Y-79599999D01*
X163138485Y-79599999D02*
X163100390Y-79561904D01*
X163100390Y-79561904D02*
X163062295Y-79485713D01*
X163862295Y-78838094D02*
X163862295Y-78685713D01*
X163862295Y-78685713D02*
X163824200Y-78609523D01*
X163824200Y-78609523D02*
X163786104Y-78571427D01*
X163786104Y-78571427D02*
X163671819Y-78495237D01*
X163671819Y-78495237D02*
X163519438Y-78457142D01*
X163519438Y-78457142D02*
X163214676Y-78457142D01*
X163214676Y-78457142D02*
X163138485Y-78495237D01*
X163138485Y-78495237D02*
X163100390Y-78533332D01*
X163100390Y-78533332D02*
X163062295Y-78609523D01*
X163062295Y-78609523D02*
X163062295Y-78761904D01*
X163062295Y-78761904D02*
X163100390Y-78838094D01*
X163100390Y-78838094D02*
X163138485Y-78876189D01*
X163138485Y-78876189D02*
X163214676Y-78914285D01*
X163214676Y-78914285D02*
X163405152Y-78914285D01*
X163405152Y-78914285D02*
X163481342Y-78876189D01*
X163481342Y-78876189D02*
X163519438Y-78838094D01*
X163519438Y-78838094D02*
X163557533Y-78761904D01*
X163557533Y-78761904D02*
X163557533Y-78609523D01*
X163557533Y-78609523D02*
X163519438Y-78533332D01*
X163519438Y-78533332D02*
X163481342Y-78495237D01*
X163481342Y-78495237D02*
X163405152Y-78457142D01*
X163405152Y-77999999D02*
X163367057Y-78076189D01*
X163367057Y-78076189D02*
X163328961Y-78114284D01*
X163328961Y-78114284D02*
X163252771Y-78152380D01*
X163252771Y-78152380D02*
X163214676Y-78152380D01*
X163214676Y-78152380D02*
X163138485Y-78114284D01*
X163138485Y-78114284D02*
X163100390Y-78076189D01*
X163100390Y-78076189D02*
X163062295Y-77999999D01*
X163062295Y-77999999D02*
X163062295Y-77847618D01*
X163062295Y-77847618D02*
X163100390Y-77771427D01*
X163100390Y-77771427D02*
X163138485Y-77733332D01*
X163138485Y-77733332D02*
X163214676Y-77695237D01*
X163214676Y-77695237D02*
X163252771Y-77695237D01*
X163252771Y-77695237D02*
X163328961Y-77733332D01*
X163328961Y-77733332D02*
X163367057Y-77771427D01*
X163367057Y-77771427D02*
X163405152Y-77847618D01*
X163405152Y-77847618D02*
X163405152Y-77999999D01*
X163405152Y-77999999D02*
X163443247Y-78076189D01*
X163443247Y-78076189D02*
X163481342Y-78114284D01*
X163481342Y-78114284D02*
X163557533Y-78152380D01*
X163557533Y-78152380D02*
X163709914Y-78152380D01*
X163709914Y-78152380D02*
X163786104Y-78114284D01*
X163786104Y-78114284D02*
X163824200Y-78076189D01*
X163824200Y-78076189D02*
X163862295Y-77999999D01*
X163862295Y-77999999D02*
X163862295Y-77847618D01*
X163862295Y-77847618D02*
X163824200Y-77771427D01*
X163824200Y-77771427D02*
X163786104Y-77733332D01*
X163786104Y-77733332D02*
X163709914Y-77695237D01*
X163709914Y-77695237D02*
X163557533Y-77695237D01*
X163557533Y-77695237D02*
X163481342Y-77733332D01*
X163481342Y-77733332D02*
X163443247Y-77771427D01*
X163443247Y-77771427D02*
X163405152Y-77847618D01*
X163862295Y-76971427D02*
X163862295Y-77352379D01*
X163862295Y-77352379D02*
X163062295Y-77352379D01*
D13*
X162395937Y-80068571D02*
X162361651Y-80137142D01*
X162361651Y-80137142D02*
X162293080Y-80205714D01*
X162293080Y-80205714D02*
X162190222Y-80308571D01*
X162190222Y-80308571D02*
X162155937Y-80377142D01*
X162155937Y-80377142D02*
X162155937Y-80445714D01*
X162327365Y-80411428D02*
X162293080Y-80480000D01*
X162293080Y-80480000D02*
X162224508Y-80548571D01*
X162224508Y-80548571D02*
X162087365Y-80582857D01*
X162087365Y-80582857D02*
X161847365Y-80582857D01*
X161847365Y-80582857D02*
X161710222Y-80548571D01*
X161710222Y-80548571D02*
X161641651Y-80480000D01*
X161641651Y-80480000D02*
X161607365Y-80411428D01*
X161607365Y-80411428D02*
X161607365Y-80274285D01*
X161607365Y-80274285D02*
X161641651Y-80205714D01*
X161641651Y-80205714D02*
X161710222Y-80137142D01*
X161710222Y-80137142D02*
X161847365Y-80102857D01*
X161847365Y-80102857D02*
X162087365Y-80102857D01*
X162087365Y-80102857D02*
X162224508Y-80137142D01*
X162224508Y-80137142D02*
X162293080Y-80205714D01*
X162293080Y-80205714D02*
X162327365Y-80274285D01*
X162327365Y-80274285D02*
X162327365Y-80411428D01*
X162327365Y-79417142D02*
X162327365Y-79828571D01*
X162327365Y-79622856D02*
X161607365Y-79622856D01*
X161607365Y-79622856D02*
X161710222Y-79691428D01*
X161710222Y-79691428D02*
X161778794Y-79759999D01*
X161778794Y-79759999D02*
X161813080Y-79828571D01*
D10*
X111904761Y-91062295D02*
X112361904Y-91062295D01*
X112133332Y-91862295D02*
X112133332Y-91062295D01*
X113009523Y-91862295D02*
X112628571Y-91862295D01*
X112628571Y-91862295D02*
X112628571Y-91062295D01*
X113733333Y-91786104D02*
X113695237Y-91824200D01*
X113695237Y-91824200D02*
X113580952Y-91862295D01*
X113580952Y-91862295D02*
X113504761Y-91862295D01*
X113504761Y-91862295D02*
X113390475Y-91824200D01*
X113390475Y-91824200D02*
X113314285Y-91748009D01*
X113314285Y-91748009D02*
X113276190Y-91671819D01*
X113276190Y-91671819D02*
X113238094Y-91519438D01*
X113238094Y-91519438D02*
X113238094Y-91405152D01*
X113238094Y-91405152D02*
X113276190Y-91252771D01*
X113276190Y-91252771D02*
X113314285Y-91176580D01*
X113314285Y-91176580D02*
X113390475Y-91100390D01*
X113390475Y-91100390D02*
X113504761Y-91062295D01*
X113504761Y-91062295D02*
X113580952Y-91062295D01*
X113580952Y-91062295D02*
X113695237Y-91100390D01*
X113695237Y-91100390D02*
X113733333Y-91138485D01*
X114457142Y-91062295D02*
X114076190Y-91062295D01*
X114076190Y-91062295D02*
X114038094Y-91443247D01*
X114038094Y-91443247D02*
X114076190Y-91405152D01*
X114076190Y-91405152D02*
X114152380Y-91367057D01*
X114152380Y-91367057D02*
X114342856Y-91367057D01*
X114342856Y-91367057D02*
X114419047Y-91405152D01*
X114419047Y-91405152D02*
X114457142Y-91443247D01*
X114457142Y-91443247D02*
X114495237Y-91519438D01*
X114495237Y-91519438D02*
X114495237Y-91709914D01*
X114495237Y-91709914D02*
X114457142Y-91786104D01*
X114457142Y-91786104D02*
X114419047Y-91824200D01*
X114419047Y-91824200D02*
X114342856Y-91862295D01*
X114342856Y-91862295D02*
X114152380Y-91862295D01*
X114152380Y-91862295D02*
X114076190Y-91824200D01*
X114076190Y-91824200D02*
X114038094Y-91786104D01*
X115219047Y-91062295D02*
X114838095Y-91062295D01*
X114838095Y-91062295D02*
X114799999Y-91443247D01*
X114799999Y-91443247D02*
X114838095Y-91405152D01*
X114838095Y-91405152D02*
X114914285Y-91367057D01*
X114914285Y-91367057D02*
X115104761Y-91367057D01*
X115104761Y-91367057D02*
X115180952Y-91405152D01*
X115180952Y-91405152D02*
X115219047Y-91443247D01*
X115219047Y-91443247D02*
X115257142Y-91519438D01*
X115257142Y-91519438D02*
X115257142Y-91709914D01*
X115257142Y-91709914D02*
X115219047Y-91786104D01*
X115219047Y-91786104D02*
X115180952Y-91824200D01*
X115180952Y-91824200D02*
X115104761Y-91862295D01*
X115104761Y-91862295D02*
X114914285Y-91862295D01*
X114914285Y-91862295D02*
X114838095Y-91824200D01*
X114838095Y-91824200D02*
X114799999Y-91786104D01*
X115980952Y-91062295D02*
X115600000Y-91062295D01*
X115600000Y-91062295D02*
X115561904Y-91443247D01*
X115561904Y-91443247D02*
X115600000Y-91405152D01*
X115600000Y-91405152D02*
X115676190Y-91367057D01*
X115676190Y-91367057D02*
X115866666Y-91367057D01*
X115866666Y-91367057D02*
X115942857Y-91405152D01*
X115942857Y-91405152D02*
X115980952Y-91443247D01*
X115980952Y-91443247D02*
X116019047Y-91519438D01*
X116019047Y-91519438D02*
X116019047Y-91709914D01*
X116019047Y-91709914D02*
X115980952Y-91786104D01*
X115980952Y-91786104D02*
X115942857Y-91824200D01*
X115942857Y-91824200D02*
X115866666Y-91862295D01*
X115866666Y-91862295D02*
X115676190Y-91862295D01*
X115676190Y-91862295D02*
X115600000Y-91824200D01*
X115600000Y-91824200D02*
X115561904Y-91786104D01*
X117264819Y-94571904D02*
X118074342Y-94571904D01*
X118074342Y-94571904D02*
X118169580Y-94524285D01*
X118169580Y-94524285D02*
X118217200Y-94476666D01*
X118217200Y-94476666D02*
X118264819Y-94381428D01*
X118264819Y-94381428D02*
X118264819Y-94190952D01*
X118264819Y-94190952D02*
X118217200Y-94095714D01*
X118217200Y-94095714D02*
X118169580Y-94048095D01*
X118169580Y-94048095D02*
X118074342Y-94000476D01*
X118074342Y-94000476D02*
X117264819Y-94000476D01*
X118264819Y-93000476D02*
X118264819Y-93571904D01*
X118264819Y-93286190D02*
X117264819Y-93286190D01*
X117264819Y-93286190D02*
X117407676Y-93381428D01*
X117407676Y-93381428D02*
X117502914Y-93476666D01*
X117502914Y-93476666D02*
X117550533Y-93571904D01*
X129771428Y-87862295D02*
X129314285Y-87862295D01*
X129542857Y-87862295D02*
X129542857Y-87062295D01*
X129542857Y-87062295D02*
X129466666Y-87176580D01*
X129466666Y-87176580D02*
X129390476Y-87252771D01*
X129390476Y-87252771D02*
X129314285Y-87290866D01*
X130114286Y-87862295D02*
X130114286Y-87062295D01*
X130114286Y-87062295D02*
X130380952Y-87633723D01*
X130380952Y-87633723D02*
X130647619Y-87062295D01*
X130647619Y-87062295D02*
X130647619Y-87862295D01*
X134913333Y-86454819D02*
X134580000Y-85978628D01*
X134341905Y-86454819D02*
X134341905Y-85454819D01*
X134341905Y-85454819D02*
X134722857Y-85454819D01*
X134722857Y-85454819D02*
X134818095Y-85502438D01*
X134818095Y-85502438D02*
X134865714Y-85550057D01*
X134865714Y-85550057D02*
X134913333Y-85645295D01*
X134913333Y-85645295D02*
X134913333Y-85788152D01*
X134913333Y-85788152D02*
X134865714Y-85883390D01*
X134865714Y-85883390D02*
X134818095Y-85931009D01*
X134818095Y-85931009D02*
X134722857Y-85978628D01*
X134722857Y-85978628D02*
X134341905Y-85978628D01*
X135865714Y-86454819D02*
X135294286Y-86454819D01*
X135580000Y-86454819D02*
X135580000Y-85454819D01*
X135580000Y-85454819D02*
X135484762Y-85597676D01*
X135484762Y-85597676D02*
X135389524Y-85692914D01*
X135389524Y-85692914D02*
X135294286Y-85740533D01*
X135028571Y-92062295D02*
X135523809Y-92062295D01*
X135523809Y-92062295D02*
X135257143Y-92367057D01*
X135257143Y-92367057D02*
X135371428Y-92367057D01*
X135371428Y-92367057D02*
X135447619Y-92405152D01*
X135447619Y-92405152D02*
X135485714Y-92443247D01*
X135485714Y-92443247D02*
X135523809Y-92519438D01*
X135523809Y-92519438D02*
X135523809Y-92709914D01*
X135523809Y-92709914D02*
X135485714Y-92786104D01*
X135485714Y-92786104D02*
X135447619Y-92824200D01*
X135447619Y-92824200D02*
X135371428Y-92862295D01*
X135371428Y-92862295D02*
X135142857Y-92862295D01*
X135142857Y-92862295D02*
X135066666Y-92824200D01*
X135066666Y-92824200D02*
X135028571Y-92786104D01*
X135866667Y-92862295D02*
X135866667Y-92062295D01*
X135942857Y-92557533D02*
X136171429Y-92862295D01*
X136171429Y-92328961D02*
X135866667Y-92633723D01*
X136857143Y-92062295D02*
X136704762Y-92062295D01*
X136704762Y-92062295D02*
X136628571Y-92100390D01*
X136628571Y-92100390D02*
X136590476Y-92138485D01*
X136590476Y-92138485D02*
X136514286Y-92252771D01*
X136514286Y-92252771D02*
X136476190Y-92405152D01*
X136476190Y-92405152D02*
X136476190Y-92709914D01*
X136476190Y-92709914D02*
X136514286Y-92786104D01*
X136514286Y-92786104D02*
X136552381Y-92824200D01*
X136552381Y-92824200D02*
X136628571Y-92862295D01*
X136628571Y-92862295D02*
X136780952Y-92862295D01*
X136780952Y-92862295D02*
X136857143Y-92824200D01*
X136857143Y-92824200D02*
X136895238Y-92786104D01*
X136895238Y-92786104D02*
X136933333Y-92709914D01*
X136933333Y-92709914D02*
X136933333Y-92519438D01*
X136933333Y-92519438D02*
X136895238Y-92443247D01*
X136895238Y-92443247D02*
X136857143Y-92405152D01*
X136857143Y-92405152D02*
X136780952Y-92367057D01*
X136780952Y-92367057D02*
X136628571Y-92367057D01*
X136628571Y-92367057D02*
X136552381Y-92405152D01*
X136552381Y-92405152D02*
X136514286Y-92443247D01*
X136514286Y-92443247D02*
X136476190Y-92519438D01*
X130753333Y-94454819D02*
X130420000Y-93978628D01*
X130181905Y-94454819D02*
X130181905Y-93454819D01*
X130181905Y-93454819D02*
X130562857Y-93454819D01*
X130562857Y-93454819D02*
X130658095Y-93502438D01*
X130658095Y-93502438D02*
X130705714Y-93550057D01*
X130705714Y-93550057D02*
X130753333Y-93645295D01*
X130753333Y-93645295D02*
X130753333Y-93788152D01*
X130753333Y-93788152D02*
X130705714Y-93883390D01*
X130705714Y-93883390D02*
X130658095Y-93931009D01*
X130658095Y-93931009D02*
X130562857Y-93978628D01*
X130562857Y-93978628D02*
X130181905Y-93978628D01*
X131134286Y-93550057D02*
X131181905Y-93502438D01*
X131181905Y-93502438D02*
X131277143Y-93454819D01*
X131277143Y-93454819D02*
X131515238Y-93454819D01*
X131515238Y-93454819D02*
X131610476Y-93502438D01*
X131610476Y-93502438D02*
X131658095Y-93550057D01*
X131658095Y-93550057D02*
X131705714Y-93645295D01*
X131705714Y-93645295D02*
X131705714Y-93740533D01*
X131705714Y-93740533D02*
X131658095Y-93883390D01*
X131658095Y-93883390D02*
X131086667Y-94454819D01*
X131086667Y-94454819D02*
X131705714Y-94454819D01*
X129028571Y-109328961D02*
X129028571Y-109862295D01*
X128838095Y-109024200D02*
X128647618Y-109595628D01*
X128647618Y-109595628D02*
X129142857Y-109595628D01*
X129371428Y-109062295D02*
X129904762Y-109062295D01*
X129904762Y-109062295D02*
X129561904Y-109862295D01*
X130361905Y-109062295D02*
X130438095Y-109062295D01*
X130438095Y-109062295D02*
X130514286Y-109100390D01*
X130514286Y-109100390D02*
X130552381Y-109138485D01*
X130552381Y-109138485D02*
X130590476Y-109214676D01*
X130590476Y-109214676D02*
X130628571Y-109367057D01*
X130628571Y-109367057D02*
X130628571Y-109557533D01*
X130628571Y-109557533D02*
X130590476Y-109709914D01*
X130590476Y-109709914D02*
X130552381Y-109786104D01*
X130552381Y-109786104D02*
X130514286Y-109824200D01*
X130514286Y-109824200D02*
X130438095Y-109862295D01*
X130438095Y-109862295D02*
X130361905Y-109862295D01*
X130361905Y-109862295D02*
X130285714Y-109824200D01*
X130285714Y-109824200D02*
X130247619Y-109786104D01*
X130247619Y-109786104D02*
X130209524Y-109709914D01*
X130209524Y-109709914D02*
X130171428Y-109557533D01*
X130171428Y-109557533D02*
X130171428Y-109367057D01*
X130171428Y-109367057D02*
X130209524Y-109214676D01*
X130209524Y-109214676D02*
X130247619Y-109138485D01*
X130247619Y-109138485D02*
X130285714Y-109100390D01*
X130285714Y-109100390D02*
X130361905Y-109062295D01*
X130971429Y-109328961D02*
X130971429Y-109862295D01*
X130971429Y-109405152D02*
X131009524Y-109367057D01*
X131009524Y-109367057D02*
X131085714Y-109328961D01*
X131085714Y-109328961D02*
X131200000Y-109328961D01*
X131200000Y-109328961D02*
X131276191Y-109367057D01*
X131276191Y-109367057D02*
X131314286Y-109443247D01*
X131314286Y-109443247D02*
X131314286Y-109862295D01*
X132333333Y-108359580D02*
X132285714Y-108407200D01*
X132285714Y-108407200D02*
X132142857Y-108454819D01*
X132142857Y-108454819D02*
X132047619Y-108454819D01*
X132047619Y-108454819D02*
X131904762Y-108407200D01*
X131904762Y-108407200D02*
X131809524Y-108311961D01*
X131809524Y-108311961D02*
X131761905Y-108216723D01*
X131761905Y-108216723D02*
X131714286Y-108026247D01*
X131714286Y-108026247D02*
X131714286Y-107883390D01*
X131714286Y-107883390D02*
X131761905Y-107692914D01*
X131761905Y-107692914D02*
X131809524Y-107597676D01*
X131809524Y-107597676D02*
X131904762Y-107502438D01*
X131904762Y-107502438D02*
X132047619Y-107454819D01*
X132047619Y-107454819D02*
X132142857Y-107454819D01*
X132142857Y-107454819D02*
X132285714Y-107502438D01*
X132285714Y-107502438D02*
X132333333Y-107550057D01*
X133190476Y-107454819D02*
X133000000Y-107454819D01*
X133000000Y-107454819D02*
X132904762Y-107502438D01*
X132904762Y-107502438D02*
X132857143Y-107550057D01*
X132857143Y-107550057D02*
X132761905Y-107692914D01*
X132761905Y-107692914D02*
X132714286Y-107883390D01*
X132714286Y-107883390D02*
X132714286Y-108264342D01*
X132714286Y-108264342D02*
X132761905Y-108359580D01*
X132761905Y-108359580D02*
X132809524Y-108407200D01*
X132809524Y-108407200D02*
X132904762Y-108454819D01*
X132904762Y-108454819D02*
X133095238Y-108454819D01*
X133095238Y-108454819D02*
X133190476Y-108407200D01*
X133190476Y-108407200D02*
X133238095Y-108359580D01*
X133238095Y-108359580D02*
X133285714Y-108264342D01*
X133285714Y-108264342D02*
X133285714Y-108026247D01*
X133285714Y-108026247D02*
X133238095Y-107931009D01*
X133238095Y-107931009D02*
X133190476Y-107883390D01*
X133190476Y-107883390D02*
X133095238Y-107835771D01*
X133095238Y-107835771D02*
X132904762Y-107835771D01*
X132904762Y-107835771D02*
X132809524Y-107883390D01*
X132809524Y-107883390D02*
X132761905Y-107931009D01*
X132761905Y-107931009D02*
X132714286Y-108026247D01*
X123482295Y-102514286D02*
X123482295Y-102971429D01*
X123482295Y-102742857D02*
X122682295Y-102742857D01*
X122682295Y-102742857D02*
X122796580Y-102819048D01*
X122796580Y-102819048D02*
X122872771Y-102895238D01*
X122872771Y-102895238D02*
X122910866Y-102971429D01*
X122682295Y-102019047D02*
X122682295Y-101942857D01*
X122682295Y-101942857D02*
X122720390Y-101866666D01*
X122720390Y-101866666D02*
X122758485Y-101828571D01*
X122758485Y-101828571D02*
X122834676Y-101790476D01*
X122834676Y-101790476D02*
X122987057Y-101752381D01*
X122987057Y-101752381D02*
X123177533Y-101752381D01*
X123177533Y-101752381D02*
X123329914Y-101790476D01*
X123329914Y-101790476D02*
X123406104Y-101828571D01*
X123406104Y-101828571D02*
X123444200Y-101866666D01*
X123444200Y-101866666D02*
X123482295Y-101942857D01*
X123482295Y-101942857D02*
X123482295Y-102019047D01*
X123482295Y-102019047D02*
X123444200Y-102095238D01*
X123444200Y-102095238D02*
X123406104Y-102133333D01*
X123406104Y-102133333D02*
X123329914Y-102171428D01*
X123329914Y-102171428D02*
X123177533Y-102209524D01*
X123177533Y-102209524D02*
X122987057Y-102209524D01*
X122987057Y-102209524D02*
X122834676Y-102171428D01*
X122834676Y-102171428D02*
X122758485Y-102133333D01*
X122758485Y-102133333D02*
X122720390Y-102095238D01*
X122720390Y-102095238D02*
X122682295Y-102019047D01*
X122948961Y-101409523D02*
X123482295Y-101409523D01*
X123025152Y-101409523D02*
X122987057Y-101371428D01*
X122987057Y-101371428D02*
X122948961Y-101295238D01*
X122948961Y-101295238D02*
X122948961Y-101180952D01*
X122948961Y-101180952D02*
X122987057Y-101104761D01*
X122987057Y-101104761D02*
X123063247Y-101066666D01*
X123063247Y-101066666D02*
X123482295Y-101066666D01*
D12*
X121536666Y-102179530D02*
X121512857Y-102203340D01*
X121512857Y-102203340D02*
X121441428Y-102227149D01*
X121441428Y-102227149D02*
X121393809Y-102227149D01*
X121393809Y-102227149D02*
X121322381Y-102203340D01*
X121322381Y-102203340D02*
X121274762Y-102155720D01*
X121274762Y-102155720D02*
X121250952Y-102108101D01*
X121250952Y-102108101D02*
X121227143Y-102012863D01*
X121227143Y-102012863D02*
X121227143Y-101941435D01*
X121227143Y-101941435D02*
X121250952Y-101846197D01*
X121250952Y-101846197D02*
X121274762Y-101798578D01*
X121274762Y-101798578D02*
X121322381Y-101750959D01*
X121322381Y-101750959D02*
X121393809Y-101727149D01*
X121393809Y-101727149D02*
X121441428Y-101727149D01*
X121441428Y-101727149D02*
X121512857Y-101750959D01*
X121512857Y-101750959D02*
X121536666Y-101774768D01*
X121989047Y-101727149D02*
X121750952Y-101727149D01*
X121750952Y-101727149D02*
X121727143Y-101965244D01*
X121727143Y-101965244D02*
X121750952Y-101941435D01*
X121750952Y-101941435D02*
X121798571Y-101917625D01*
X121798571Y-101917625D02*
X121917619Y-101917625D01*
X121917619Y-101917625D02*
X121965238Y-101941435D01*
X121965238Y-101941435D02*
X121989047Y-101965244D01*
X121989047Y-101965244D02*
X122012857Y-102012863D01*
X122012857Y-102012863D02*
X122012857Y-102131911D01*
X122012857Y-102131911D02*
X121989047Y-102179530D01*
X121989047Y-102179530D02*
X121965238Y-102203340D01*
X121965238Y-102203340D02*
X121917619Y-102227149D01*
X121917619Y-102227149D02*
X121798571Y-102227149D01*
X121798571Y-102227149D02*
X121750952Y-102203340D01*
X121750952Y-102203340D02*
X121727143Y-102179530D01*
D10*
X173862295Y-68819047D02*
X173062295Y-68819047D01*
X173062295Y-68819047D02*
X173633723Y-68552381D01*
X173633723Y-68552381D02*
X173062295Y-68285714D01*
X173062295Y-68285714D02*
X173862295Y-68285714D01*
X173633723Y-67942857D02*
X173633723Y-67561904D01*
X173862295Y-68019047D02*
X173062295Y-67752380D01*
X173062295Y-67752380D02*
X173862295Y-67485714D01*
X173862295Y-66761904D02*
X173481342Y-67028571D01*
X173862295Y-67219047D02*
X173062295Y-67219047D01*
X173062295Y-67219047D02*
X173062295Y-66914285D01*
X173062295Y-66914285D02*
X173100390Y-66838095D01*
X173100390Y-66838095D02*
X173138485Y-66800000D01*
X173138485Y-66800000D02*
X173214676Y-66761904D01*
X173214676Y-66761904D02*
X173328961Y-66761904D01*
X173328961Y-66761904D02*
X173405152Y-66800000D01*
X173405152Y-66800000D02*
X173443247Y-66838095D01*
X173443247Y-66838095D02*
X173481342Y-66914285D01*
X173481342Y-66914285D02*
X173481342Y-67219047D01*
X173862295Y-66419047D02*
X173062295Y-66419047D01*
X173862295Y-65961904D02*
X173405152Y-66304762D01*
X173062295Y-65961904D02*
X173519438Y-66419047D01*
X173443247Y-65619047D02*
X173443247Y-65352381D01*
X173862295Y-65238095D02*
X173862295Y-65619047D01*
X173862295Y-65619047D02*
X173062295Y-65619047D01*
X173062295Y-65619047D02*
X173062295Y-65238095D01*
X173862295Y-64438094D02*
X173481342Y-64704761D01*
X173862295Y-64895237D02*
X173062295Y-64895237D01*
X173062295Y-64895237D02*
X173062295Y-64590475D01*
X173062295Y-64590475D02*
X173100390Y-64514285D01*
X173100390Y-64514285D02*
X173138485Y-64476190D01*
X173138485Y-64476190D02*
X173214676Y-64438094D01*
X173214676Y-64438094D02*
X173328961Y-64438094D01*
X173328961Y-64438094D02*
X173405152Y-64476190D01*
X173405152Y-64476190D02*
X173443247Y-64514285D01*
X173443247Y-64514285D02*
X173481342Y-64590475D01*
X173481342Y-64590475D02*
X173481342Y-64895237D01*
X173633723Y-63523809D02*
X173633723Y-63142856D01*
X173862295Y-63599999D02*
X173062295Y-63333332D01*
X173062295Y-63333332D02*
X173862295Y-63066666D01*
X174366666Y-64204819D02*
X174366666Y-64919104D01*
X174366666Y-64919104D02*
X174319047Y-65061961D01*
X174319047Y-65061961D02*
X174223809Y-65157200D01*
X174223809Y-65157200D02*
X174080952Y-65204819D01*
X174080952Y-65204819D02*
X173985714Y-65204819D01*
X174795238Y-64300057D02*
X174842857Y-64252438D01*
X174842857Y-64252438D02*
X174938095Y-64204819D01*
X174938095Y-64204819D02*
X175176190Y-64204819D01*
X175176190Y-64204819D02*
X175271428Y-64252438D01*
X175271428Y-64252438D02*
X175319047Y-64300057D01*
X175319047Y-64300057D02*
X175366666Y-64395295D01*
X175366666Y-64395295D02*
X175366666Y-64490533D01*
X175366666Y-64490533D02*
X175319047Y-64633390D01*
X175319047Y-64633390D02*
X174747619Y-65204819D01*
X174747619Y-65204819D02*
X175366666Y-65204819D01*
X173862295Y-80876190D02*
X173062295Y-80876190D01*
X173062295Y-80876190D02*
X173633723Y-80609524D01*
X173633723Y-80609524D02*
X173062295Y-80342857D01*
X173062295Y-80342857D02*
X173862295Y-80342857D01*
X173633723Y-80000000D02*
X173633723Y-79619047D01*
X173862295Y-80076190D02*
X173062295Y-79809523D01*
X173062295Y-79809523D02*
X173862295Y-79542857D01*
X173862295Y-78819047D02*
X173481342Y-79085714D01*
X173862295Y-79276190D02*
X173062295Y-79276190D01*
X173062295Y-79276190D02*
X173062295Y-78971428D01*
X173062295Y-78971428D02*
X173100390Y-78895238D01*
X173100390Y-78895238D02*
X173138485Y-78857143D01*
X173138485Y-78857143D02*
X173214676Y-78819047D01*
X173214676Y-78819047D02*
X173328961Y-78819047D01*
X173328961Y-78819047D02*
X173405152Y-78857143D01*
X173405152Y-78857143D02*
X173443247Y-78895238D01*
X173443247Y-78895238D02*
X173481342Y-78971428D01*
X173481342Y-78971428D02*
X173481342Y-79276190D01*
X173862295Y-78476190D02*
X173062295Y-78476190D01*
X173862295Y-78019047D02*
X173405152Y-78361905D01*
X173062295Y-78019047D02*
X173519438Y-78476190D01*
X173443247Y-77676190D02*
X173443247Y-77409524D01*
X173862295Y-77295238D02*
X173862295Y-77676190D01*
X173862295Y-77676190D02*
X173062295Y-77676190D01*
X173062295Y-77676190D02*
X173062295Y-77295238D01*
X173862295Y-76495237D02*
X173481342Y-76761904D01*
X173862295Y-76952380D02*
X173062295Y-76952380D01*
X173062295Y-76952380D02*
X173062295Y-76647618D01*
X173062295Y-76647618D02*
X173100390Y-76571428D01*
X173100390Y-76571428D02*
X173138485Y-76533333D01*
X173138485Y-76533333D02*
X173214676Y-76495237D01*
X173214676Y-76495237D02*
X173328961Y-76495237D01*
X173328961Y-76495237D02*
X173405152Y-76533333D01*
X173405152Y-76533333D02*
X173443247Y-76571428D01*
X173443247Y-76571428D02*
X173481342Y-76647618D01*
X173481342Y-76647618D02*
X173481342Y-76952380D01*
X173443247Y-75276190D02*
X173481342Y-75161904D01*
X173481342Y-75161904D02*
X173519438Y-75123809D01*
X173519438Y-75123809D02*
X173595628Y-75085713D01*
X173595628Y-75085713D02*
X173709914Y-75085713D01*
X173709914Y-75085713D02*
X173786104Y-75123809D01*
X173786104Y-75123809D02*
X173824200Y-75161904D01*
X173824200Y-75161904D02*
X173862295Y-75238094D01*
X173862295Y-75238094D02*
X173862295Y-75542856D01*
X173862295Y-75542856D02*
X173062295Y-75542856D01*
X173062295Y-75542856D02*
X173062295Y-75276190D01*
X173062295Y-75276190D02*
X173100390Y-75199999D01*
X173100390Y-75199999D02*
X173138485Y-75161904D01*
X173138485Y-75161904D02*
X173214676Y-75123809D01*
X173214676Y-75123809D02*
X173290866Y-75123809D01*
X173290866Y-75123809D02*
X173367057Y-75161904D01*
X173367057Y-75161904D02*
X173405152Y-75199999D01*
X173405152Y-75199999D02*
X173443247Y-75276190D01*
X173443247Y-75276190D02*
X173443247Y-75542856D01*
X174366666Y-76204819D02*
X174366666Y-76919104D01*
X174366666Y-76919104D02*
X174319047Y-77061961D01*
X174319047Y-77061961D02*
X174223809Y-77157200D01*
X174223809Y-77157200D02*
X174080952Y-77204819D01*
X174080952Y-77204819D02*
X173985714Y-77204819D01*
X174747619Y-76204819D02*
X175366666Y-76204819D01*
X175366666Y-76204819D02*
X175033333Y-76585771D01*
X175033333Y-76585771D02*
X175176190Y-76585771D01*
X175176190Y-76585771D02*
X175271428Y-76633390D01*
X175271428Y-76633390D02*
X175319047Y-76681009D01*
X175319047Y-76681009D02*
X175366666Y-76776247D01*
X175366666Y-76776247D02*
X175366666Y-77014342D01*
X175366666Y-77014342D02*
X175319047Y-77109580D01*
X175319047Y-77109580D02*
X175271428Y-77157200D01*
X175271428Y-77157200D02*
X175176190Y-77204819D01*
X175176190Y-77204819D02*
X174890476Y-77204819D01*
X174890476Y-77204819D02*
X174795238Y-77157200D01*
X174795238Y-77157200D02*
X174747619Y-77109580D01*
X173862295Y-92876190D02*
X173062295Y-92876190D01*
X173062295Y-92876190D02*
X173633723Y-92609524D01*
X173633723Y-92609524D02*
X173062295Y-92342857D01*
X173062295Y-92342857D02*
X173862295Y-92342857D01*
X173633723Y-92000000D02*
X173633723Y-91619047D01*
X173862295Y-92076190D02*
X173062295Y-91809523D01*
X173062295Y-91809523D02*
X173862295Y-91542857D01*
X173862295Y-90819047D02*
X173481342Y-91085714D01*
X173862295Y-91276190D02*
X173062295Y-91276190D01*
X173062295Y-91276190D02*
X173062295Y-90971428D01*
X173062295Y-90971428D02*
X173100390Y-90895238D01*
X173100390Y-90895238D02*
X173138485Y-90857143D01*
X173138485Y-90857143D02*
X173214676Y-90819047D01*
X173214676Y-90819047D02*
X173328961Y-90819047D01*
X173328961Y-90819047D02*
X173405152Y-90857143D01*
X173405152Y-90857143D02*
X173443247Y-90895238D01*
X173443247Y-90895238D02*
X173481342Y-90971428D01*
X173481342Y-90971428D02*
X173481342Y-91276190D01*
X173862295Y-90476190D02*
X173062295Y-90476190D01*
X173862295Y-90019047D02*
X173405152Y-90361905D01*
X173062295Y-90019047D02*
X173519438Y-90476190D01*
X173443247Y-89676190D02*
X173443247Y-89409524D01*
X173862295Y-89295238D02*
X173862295Y-89676190D01*
X173862295Y-89676190D02*
X173062295Y-89676190D01*
X173062295Y-89676190D02*
X173062295Y-89295238D01*
X173862295Y-88495237D02*
X173481342Y-88761904D01*
X173862295Y-88952380D02*
X173062295Y-88952380D01*
X173062295Y-88952380D02*
X173062295Y-88647618D01*
X173062295Y-88647618D02*
X173100390Y-88571428D01*
X173100390Y-88571428D02*
X173138485Y-88533333D01*
X173138485Y-88533333D02*
X173214676Y-88495237D01*
X173214676Y-88495237D02*
X173328961Y-88495237D01*
X173328961Y-88495237D02*
X173405152Y-88533333D01*
X173405152Y-88533333D02*
X173443247Y-88571428D01*
X173443247Y-88571428D02*
X173481342Y-88647618D01*
X173481342Y-88647618D02*
X173481342Y-88952380D01*
X173786104Y-87085713D02*
X173824200Y-87123809D01*
X173824200Y-87123809D02*
X173862295Y-87238094D01*
X173862295Y-87238094D02*
X173862295Y-87314285D01*
X173862295Y-87314285D02*
X173824200Y-87428571D01*
X173824200Y-87428571D02*
X173748009Y-87504761D01*
X173748009Y-87504761D02*
X173671819Y-87542856D01*
X173671819Y-87542856D02*
X173519438Y-87580952D01*
X173519438Y-87580952D02*
X173405152Y-87580952D01*
X173405152Y-87580952D02*
X173252771Y-87542856D01*
X173252771Y-87542856D02*
X173176580Y-87504761D01*
X173176580Y-87504761D02*
X173100390Y-87428571D01*
X173100390Y-87428571D02*
X173062295Y-87314285D01*
X173062295Y-87314285D02*
X173062295Y-87238094D01*
X173062295Y-87238094D02*
X173100390Y-87123809D01*
X173100390Y-87123809D02*
X173138485Y-87085713D01*
X174366666Y-88204819D02*
X174366666Y-88919104D01*
X174366666Y-88919104D02*
X174319047Y-89061961D01*
X174319047Y-89061961D02*
X174223809Y-89157200D01*
X174223809Y-89157200D02*
X174080952Y-89204819D01*
X174080952Y-89204819D02*
X173985714Y-89204819D01*
X175271428Y-88538152D02*
X175271428Y-89204819D01*
X175033333Y-88157200D02*
X174795238Y-88871485D01*
X174795238Y-88871485D02*
X175414285Y-88871485D01*
X173862295Y-104876190D02*
X173062295Y-104876190D01*
X173062295Y-104876190D02*
X173633723Y-104609524D01*
X173633723Y-104609524D02*
X173062295Y-104342857D01*
X173062295Y-104342857D02*
X173862295Y-104342857D01*
X173633723Y-104000000D02*
X173633723Y-103619047D01*
X173862295Y-104076190D02*
X173062295Y-103809523D01*
X173062295Y-103809523D02*
X173862295Y-103542857D01*
X173862295Y-102819047D02*
X173481342Y-103085714D01*
X173862295Y-103276190D02*
X173062295Y-103276190D01*
X173062295Y-103276190D02*
X173062295Y-102971428D01*
X173062295Y-102971428D02*
X173100390Y-102895238D01*
X173100390Y-102895238D02*
X173138485Y-102857143D01*
X173138485Y-102857143D02*
X173214676Y-102819047D01*
X173214676Y-102819047D02*
X173328961Y-102819047D01*
X173328961Y-102819047D02*
X173405152Y-102857143D01*
X173405152Y-102857143D02*
X173443247Y-102895238D01*
X173443247Y-102895238D02*
X173481342Y-102971428D01*
X173481342Y-102971428D02*
X173481342Y-103276190D01*
X173862295Y-102476190D02*
X173062295Y-102476190D01*
X173862295Y-102019047D02*
X173405152Y-102361905D01*
X173062295Y-102019047D02*
X173519438Y-102476190D01*
X173443247Y-101676190D02*
X173443247Y-101409524D01*
X173862295Y-101295238D02*
X173862295Y-101676190D01*
X173862295Y-101676190D02*
X173062295Y-101676190D01*
X173062295Y-101676190D02*
X173062295Y-101295238D01*
X173862295Y-100495237D02*
X173481342Y-100761904D01*
X173862295Y-100952380D02*
X173062295Y-100952380D01*
X173062295Y-100952380D02*
X173062295Y-100647618D01*
X173062295Y-100647618D02*
X173100390Y-100571428D01*
X173100390Y-100571428D02*
X173138485Y-100533333D01*
X173138485Y-100533333D02*
X173214676Y-100495237D01*
X173214676Y-100495237D02*
X173328961Y-100495237D01*
X173328961Y-100495237D02*
X173405152Y-100533333D01*
X173405152Y-100533333D02*
X173443247Y-100571428D01*
X173443247Y-100571428D02*
X173481342Y-100647618D01*
X173481342Y-100647618D02*
X173481342Y-100952380D01*
X173862295Y-99542856D02*
X173062295Y-99542856D01*
X173062295Y-99542856D02*
X173062295Y-99352380D01*
X173062295Y-99352380D02*
X173100390Y-99238094D01*
X173100390Y-99238094D02*
X173176580Y-99161904D01*
X173176580Y-99161904D02*
X173252771Y-99123809D01*
X173252771Y-99123809D02*
X173405152Y-99085713D01*
X173405152Y-99085713D02*
X173519438Y-99085713D01*
X173519438Y-99085713D02*
X173671819Y-99123809D01*
X173671819Y-99123809D02*
X173748009Y-99161904D01*
X173748009Y-99161904D02*
X173824200Y-99238094D01*
X173824200Y-99238094D02*
X173862295Y-99352380D01*
X173862295Y-99352380D02*
X173862295Y-99542856D01*
X174366666Y-100204819D02*
X174366666Y-100919104D01*
X174366666Y-100919104D02*
X174319047Y-101061961D01*
X174319047Y-101061961D02*
X174223809Y-101157200D01*
X174223809Y-101157200D02*
X174080952Y-101204819D01*
X174080952Y-101204819D02*
X173985714Y-101204819D01*
X175319047Y-100204819D02*
X174842857Y-100204819D01*
X174842857Y-100204819D02*
X174795238Y-100681009D01*
X174795238Y-100681009D02*
X174842857Y-100633390D01*
X174842857Y-100633390D02*
X174938095Y-100585771D01*
X174938095Y-100585771D02*
X175176190Y-100585771D01*
X175176190Y-100585771D02*
X175271428Y-100633390D01*
X175271428Y-100633390D02*
X175319047Y-100681009D01*
X175319047Y-100681009D02*
X175366666Y-100776247D01*
X175366666Y-100776247D02*
X175366666Y-101014342D01*
X175366666Y-101014342D02*
X175319047Y-101109580D01*
X175319047Y-101109580D02*
X175271428Y-101157200D01*
X175271428Y-101157200D02*
X175176190Y-101204819D01*
X175176190Y-101204819D02*
X174938095Y-101204819D01*
X174938095Y-101204819D02*
X174842857Y-101157200D01*
X174842857Y-101157200D02*
X174795238Y-101109580D01*
X141199999Y-109100390D02*
X141123809Y-109062295D01*
X141123809Y-109062295D02*
X141009523Y-109062295D01*
X141009523Y-109062295D02*
X140895237Y-109100390D01*
X140895237Y-109100390D02*
X140819047Y-109176580D01*
X140819047Y-109176580D02*
X140780952Y-109252771D01*
X140780952Y-109252771D02*
X140742856Y-109405152D01*
X140742856Y-109405152D02*
X140742856Y-109519438D01*
X140742856Y-109519438D02*
X140780952Y-109671819D01*
X140780952Y-109671819D02*
X140819047Y-109748009D01*
X140819047Y-109748009D02*
X140895237Y-109824200D01*
X140895237Y-109824200D02*
X141009523Y-109862295D01*
X141009523Y-109862295D02*
X141085714Y-109862295D01*
X141085714Y-109862295D02*
X141199999Y-109824200D01*
X141199999Y-109824200D02*
X141238095Y-109786104D01*
X141238095Y-109786104D02*
X141238095Y-109519438D01*
X141238095Y-109519438D02*
X141085714Y-109519438D01*
X141542856Y-109633723D02*
X141923809Y-109633723D01*
X141466666Y-109862295D02*
X141733333Y-109062295D01*
X141733333Y-109062295D02*
X141999999Y-109862295D01*
X142152380Y-109062295D02*
X142609523Y-109062295D01*
X142380951Y-109862295D02*
X142380951Y-109062295D01*
X142876190Y-109443247D02*
X143142856Y-109443247D01*
X143257142Y-109862295D02*
X142876190Y-109862295D01*
X142876190Y-109862295D02*
X142876190Y-109062295D01*
X142876190Y-109062295D02*
X143257142Y-109062295D01*
X140738095Y-105804819D02*
X141309523Y-105804819D01*
X141023809Y-106804819D02*
X141023809Y-105804819D01*
X141642857Y-106804819D02*
X141642857Y-105804819D01*
X141642857Y-105804819D02*
X142023809Y-105804819D01*
X142023809Y-105804819D02*
X142119047Y-105852438D01*
X142119047Y-105852438D02*
X142166666Y-105900057D01*
X142166666Y-105900057D02*
X142214285Y-105995295D01*
X142214285Y-105995295D02*
X142214285Y-106138152D01*
X142214285Y-106138152D02*
X142166666Y-106233390D01*
X142166666Y-106233390D02*
X142119047Y-106281009D01*
X142119047Y-106281009D02*
X142023809Y-106328628D01*
X142023809Y-106328628D02*
X141642857Y-106328628D01*
X143166666Y-106804819D02*
X142595238Y-106804819D01*
X142880952Y-106804819D02*
X142880952Y-105804819D01*
X142880952Y-105804819D02*
X142785714Y-105947676D01*
X142785714Y-105947676D02*
X142690476Y-106042914D01*
X142690476Y-106042914D02*
X142595238Y-106090533D01*
X165923808Y-109824200D02*
X166038094Y-109862295D01*
X166038094Y-109862295D02*
X166228570Y-109862295D01*
X166228570Y-109862295D02*
X166304761Y-109824200D01*
X166304761Y-109824200D02*
X166342856Y-109786104D01*
X166342856Y-109786104D02*
X166380951Y-109709914D01*
X166380951Y-109709914D02*
X166380951Y-109633723D01*
X166380951Y-109633723D02*
X166342856Y-109557533D01*
X166342856Y-109557533D02*
X166304761Y-109519438D01*
X166304761Y-109519438D02*
X166228570Y-109481342D01*
X166228570Y-109481342D02*
X166076189Y-109443247D01*
X166076189Y-109443247D02*
X165999999Y-109405152D01*
X165999999Y-109405152D02*
X165961904Y-109367057D01*
X165961904Y-109367057D02*
X165923808Y-109290866D01*
X165923808Y-109290866D02*
X165923808Y-109214676D01*
X165923808Y-109214676D02*
X165961904Y-109138485D01*
X165961904Y-109138485D02*
X165999999Y-109100390D01*
X165999999Y-109100390D02*
X166076189Y-109062295D01*
X166076189Y-109062295D02*
X166266666Y-109062295D01*
X166266666Y-109062295D02*
X166380951Y-109100390D01*
X166647618Y-109062295D02*
X166838094Y-109862295D01*
X166838094Y-109862295D02*
X166990475Y-109290866D01*
X166990475Y-109290866D02*
X167142856Y-109862295D01*
X167142856Y-109862295D02*
X167333333Y-109062295D01*
X167447619Y-109938485D02*
X168057142Y-109938485D01*
X168628571Y-109862295D02*
X168247619Y-109862295D01*
X168247619Y-109862295D02*
X168247619Y-109062295D01*
X168895238Y-109443247D02*
X169161904Y-109443247D01*
X169276190Y-109862295D02*
X168895238Y-109862295D01*
X168895238Y-109862295D02*
X168895238Y-109062295D01*
X168895238Y-109062295D02*
X169276190Y-109062295D01*
X169619048Y-109862295D02*
X169619048Y-109062295D01*
X169619048Y-109062295D02*
X169809524Y-109062295D01*
X169809524Y-109062295D02*
X169923810Y-109100390D01*
X169923810Y-109100390D02*
X170000000Y-109176580D01*
X170000000Y-109176580D02*
X170038095Y-109252771D01*
X170038095Y-109252771D02*
X170076191Y-109405152D01*
X170076191Y-109405152D02*
X170076191Y-109519438D01*
X170076191Y-109519438D02*
X170038095Y-109671819D01*
X170038095Y-109671819D02*
X170000000Y-109748009D01*
X170000000Y-109748009D02*
X169923810Y-109824200D01*
X169923810Y-109824200D02*
X169809524Y-109862295D01*
X169809524Y-109862295D02*
X169619048Y-109862295D01*
X166738095Y-105804819D02*
X167309523Y-105804819D01*
X167023809Y-106804819D02*
X167023809Y-105804819D01*
X167642857Y-106804819D02*
X167642857Y-105804819D01*
X167642857Y-105804819D02*
X168023809Y-105804819D01*
X168023809Y-105804819D02*
X168119047Y-105852438D01*
X168119047Y-105852438D02*
X168166666Y-105900057D01*
X168166666Y-105900057D02*
X168214285Y-105995295D01*
X168214285Y-105995295D02*
X168214285Y-106138152D01*
X168214285Y-106138152D02*
X168166666Y-106233390D01*
X168166666Y-106233390D02*
X168119047Y-106281009D01*
X168119047Y-106281009D02*
X168023809Y-106328628D01*
X168023809Y-106328628D02*
X167642857Y-106328628D01*
X168595238Y-105900057D02*
X168642857Y-105852438D01*
X168642857Y-105852438D02*
X168738095Y-105804819D01*
X168738095Y-105804819D02*
X168976190Y-105804819D01*
X168976190Y-105804819D02*
X169071428Y-105852438D01*
X169071428Y-105852438D02*
X169119047Y-105900057D01*
X169119047Y-105900057D02*
X169166666Y-105995295D01*
X169166666Y-105995295D02*
X169166666Y-106090533D01*
X169166666Y-106090533D02*
X169119047Y-106233390D01*
X169119047Y-106233390D02*
X168547619Y-106804819D01*
X168547619Y-106804819D02*
X169166666Y-106804819D01*
X157390476Y-109100390D02*
X157314286Y-109062295D01*
X157314286Y-109062295D02*
X157200000Y-109062295D01*
X157200000Y-109062295D02*
X157085714Y-109100390D01*
X157085714Y-109100390D02*
X157009524Y-109176580D01*
X157009524Y-109176580D02*
X156971429Y-109252771D01*
X156971429Y-109252771D02*
X156933333Y-109405152D01*
X156933333Y-109405152D02*
X156933333Y-109519438D01*
X156933333Y-109519438D02*
X156971429Y-109671819D01*
X156971429Y-109671819D02*
X157009524Y-109748009D01*
X157009524Y-109748009D02*
X157085714Y-109824200D01*
X157085714Y-109824200D02*
X157200000Y-109862295D01*
X157200000Y-109862295D02*
X157276191Y-109862295D01*
X157276191Y-109862295D02*
X157390476Y-109824200D01*
X157390476Y-109824200D02*
X157428572Y-109786104D01*
X157428572Y-109786104D02*
X157428572Y-109519438D01*
X157428572Y-109519438D02*
X157276191Y-109519438D01*
X157771429Y-109862295D02*
X157771429Y-109062295D01*
X157771429Y-109062295D02*
X158228572Y-109862295D01*
X158228572Y-109862295D02*
X158228572Y-109062295D01*
X158609524Y-109862295D02*
X158609524Y-109062295D01*
X158609524Y-109062295D02*
X158800000Y-109062295D01*
X158800000Y-109062295D02*
X158914286Y-109100390D01*
X158914286Y-109100390D02*
X158990476Y-109176580D01*
X158990476Y-109176580D02*
X159028571Y-109252771D01*
X159028571Y-109252771D02*
X159066667Y-109405152D01*
X159066667Y-109405152D02*
X159066667Y-109519438D01*
X159066667Y-109519438D02*
X159028571Y-109671819D01*
X159028571Y-109671819D02*
X158990476Y-109748009D01*
X158990476Y-109748009D02*
X158914286Y-109824200D01*
X158914286Y-109824200D02*
X158800000Y-109862295D01*
X158800000Y-109862295D02*
X158609524Y-109862295D01*
X156738095Y-105804819D02*
X157309523Y-105804819D01*
X157023809Y-106804819D02*
X157023809Y-105804819D01*
X157642857Y-106804819D02*
X157642857Y-105804819D01*
X157642857Y-105804819D02*
X158023809Y-105804819D01*
X158023809Y-105804819D02*
X158119047Y-105852438D01*
X158119047Y-105852438D02*
X158166666Y-105900057D01*
X158166666Y-105900057D02*
X158214285Y-105995295D01*
X158214285Y-105995295D02*
X158214285Y-106138152D01*
X158214285Y-106138152D02*
X158166666Y-106233390D01*
X158166666Y-106233390D02*
X158119047Y-106281009D01*
X158119047Y-106281009D02*
X158023809Y-106328628D01*
X158023809Y-106328628D02*
X157642857Y-106328628D01*
X158547619Y-105804819D02*
X159166666Y-105804819D01*
X159166666Y-105804819D02*
X158833333Y-106185771D01*
X158833333Y-106185771D02*
X158976190Y-106185771D01*
X158976190Y-106185771D02*
X159071428Y-106233390D01*
X159071428Y-106233390D02*
X159119047Y-106281009D01*
X159119047Y-106281009D02*
X159166666Y-106376247D01*
X159166666Y-106376247D02*
X159166666Y-106614342D01*
X159166666Y-106614342D02*
X159119047Y-106709580D01*
X159119047Y-106709580D02*
X159071428Y-106757200D01*
X159071428Y-106757200D02*
X158976190Y-106804819D01*
X158976190Y-106804819D02*
X158690476Y-106804819D01*
X158690476Y-106804819D02*
X158595238Y-106757200D01*
X158595238Y-106757200D02*
X158547619Y-106709580D01*
%TO.C,J1*%
D11*
X101900000Y-69500000D02*
X101900000Y-63960000D01*
X102300000Y-69500000D02*
X102300000Y-63960000D01*
X107600000Y-69500000D02*
X101900000Y-69500000D01*
X107600000Y-69500000D02*
X107600000Y-63960000D01*
X108100000Y-69000000D02*
X107600000Y-69500000D01*
X104166000Y-67300000D02*
X105700000Y-68834000D01*
X104300000Y-67166000D02*
X105834000Y-68700000D01*
X104166000Y-64760000D02*
X105700000Y-66294000D01*
X104300000Y-64626000D02*
X105834000Y-66160000D01*
X101900000Y-63960000D02*
X108100000Y-63960000D01*
X108100000Y-63960000D02*
X108100000Y-69000000D01*
X106100000Y-68000000D02*
G75*
G02*
X103900000Y-68000000I-1100000J0D01*
G01*
X103900000Y-68000000D02*
G75*
G02*
X106100000Y-68000000I1100000J0D01*
G01*
X106100000Y-65460000D02*
G75*
G02*
X103900000Y-65460000I-1100000J0D01*
G01*
X103900000Y-65460000D02*
G75*
G02*
X106100000Y-65460000I1100000J0D01*
G01*
%TO.C,SW1*%
X113700000Y-59800000D02*
X113700000Y-64200000D01*
X113700000Y-59800000D02*
X122300000Y-59800000D01*
X113700000Y-64200000D02*
X122300000Y-64200000D01*
X116000000Y-68200000D02*
X116000000Y-64200000D01*
X118000000Y-64200000D02*
X118000000Y-68200000D01*
X118000000Y-68200000D02*
X116000000Y-68200000D01*
X122300000Y-64200000D02*
X122300000Y-59800000D01*
%TO.C,F1*%
X126000000Y-61100000D02*
X133100000Y-61100000D01*
X133100000Y-64100000D01*
X126000000Y-64100000D01*
X126000000Y-61100000D01*
%TO.C,D1*%
X141300000Y-61700000D02*
X141300000Y-64700000D01*
X139649440Y-63999080D02*
X139649440Y-62398880D01*
X139649440Y-63198980D02*
X140551140Y-63198980D01*
X139649440Y-63198980D02*
X138498820Y-63999080D01*
X139649440Y-63198980D02*
X138498820Y-62449680D01*
X138498820Y-63198980D02*
X137500600Y-63198980D01*
X138498820Y-62449680D02*
X138498820Y-63999080D01*
X136700000Y-64700000D02*
X141300000Y-64700000D01*
X136700000Y-64700000D02*
X136700000Y-61700000D01*
X136700000Y-61700000D02*
X141300000Y-61700000D01*
%TO.C,C1*%
X106211139Y-75812500D02*
X107211139Y-75812500D01*
X106711139Y-75312500D02*
X106711139Y-76312500D01*
X115500000Y-78000000D02*
G75*
G02*
X105500000Y-78000000I-5000000J0D01*
G01*
X105500000Y-78000000D02*
G75*
G02*
X115500000Y-78000000I5000000J0D01*
G01*
%TO.C,C2*%
X119375000Y-75000000D02*
X120625000Y-75000000D01*
X120625000Y-77000000D01*
X119375000Y-77000000D01*
X119375000Y-75000000D01*
%TO.C,R5*%
X125375000Y-75000000D02*
X126625000Y-75000000D01*
X126625000Y-77000000D01*
X125375000Y-77000000D01*
X125375000Y-75000000D01*
%TO.C,D2*%
X125700000Y-82000000D02*
X126600000Y-82000000D01*
X126600000Y-82000000D02*
X126600000Y-80000000D01*
X125400000Y-81700000D02*
X125700000Y-82000000D01*
X125400000Y-80000000D02*
X125400000Y-81700000D01*
X126600000Y-80000000D02*
X125400000Y-80000000D01*
%TO.C,R10*%
X143375000Y-65000000D02*
X144625000Y-65000000D01*
X144625000Y-67000000D01*
X143375000Y-67000000D01*
X143375000Y-65000000D01*
%TO.C,C3*%
X142866395Y-74912500D02*
X143366395Y-74912500D01*
X143116395Y-74662500D02*
X143116395Y-75162500D01*
X147500000Y-76000000D02*
G75*
G02*
X142500000Y-76000000I-2500000J0D01*
G01*
X142500000Y-76000000D02*
G75*
G02*
X147500000Y-76000000I2500000J0D01*
G01*
%TO.C,C4*%
X145375000Y-69000000D02*
X146625000Y-69000000D01*
X146625000Y-71000000D01*
X145375000Y-71000000D01*
X145375000Y-69000000D01*
%TO.C,R4*%
X153375000Y-65000000D02*
X154625000Y-65000000D01*
X154625000Y-67000000D01*
X153375000Y-67000000D01*
X153375000Y-65000000D01*
%TO.C,R3*%
X153000000Y-85375000D02*
X155000000Y-85375000D01*
X155000000Y-86625000D01*
X153000000Y-86625000D01*
X153000000Y-85375000D01*
%TO.C,Q1*%
X160550000Y-80325000D02*
X160550000Y-79350000D01*
X163450000Y-79350000D01*
X163450000Y-80650000D01*
X160875000Y-80650000D01*
X160550000Y-80325000D01*
%TO.C,U1*%
X114635000Y-89730000D02*
X115635000Y-88730000D01*
X114635000Y-98890000D02*
X114635000Y-89730000D01*
X115635000Y-88730000D02*
X120985000Y-88730000D01*
X120985000Y-88730000D02*
X120985000Y-98890000D01*
X120985000Y-98890000D02*
X114635000Y-98890000D01*
X112730000Y-88670000D02*
X122890000Y-88670000D01*
X122890000Y-98950000D01*
X112730000Y-98950000D01*
X112730000Y-88670000D01*
%TO.C,R1*%
X130000000Y-86000000D02*
X131930000Y-86000000D01*
X140160000Y-86000000D02*
X138230000Y-86000000D01*
X131930000Y-84750000D02*
X138230000Y-84750000D01*
X138230000Y-87250000D01*
X131930000Y-87250000D01*
X131930000Y-84750000D01*
%TO.C,R2*%
X136000000Y-94000000D02*
X134070000Y-94000000D01*
X125840000Y-94000000D02*
X127770000Y-94000000D01*
X127770000Y-92750000D02*
X134070000Y-92750000D01*
X134070000Y-95250000D01*
X127770000Y-95250000D01*
X127770000Y-92750000D01*
%TO.C,C6*%
X129000000Y-106750000D02*
X136000000Y-106750000D01*
X136000000Y-109250000D01*
X129000000Y-109250000D01*
X129000000Y-106750000D01*
%TO.C,C5*%
X120995000Y-101000000D02*
X122245000Y-101000000D01*
X122245000Y-103000000D01*
X120995000Y-103000000D01*
X120995000Y-101000000D01*
%TO.C,J2*%
X169650000Y-66625000D02*
X170650000Y-66000000D01*
X170650000Y-66000000D02*
X169650000Y-65375000D01*
X169650000Y-61050000D02*
X175400000Y-61050000D01*
X175400000Y-68450000D01*
X169650000Y-68450000D01*
X169650000Y-61050000D01*
%TO.C,J3*%
X169650000Y-78625000D02*
X170650000Y-78000000D01*
X170650000Y-78000000D02*
X169650000Y-77375000D01*
X169650000Y-73050000D02*
X175400000Y-73050000D01*
X175400000Y-80450000D01*
X169650000Y-80450000D01*
X169650000Y-73050000D01*
%TO.C,J4*%
X169650000Y-90625000D02*
X170650000Y-90000000D01*
X170650000Y-90000000D02*
X169650000Y-89375000D01*
X169650000Y-85050000D02*
X175400000Y-85050000D01*
X175400000Y-92450000D01*
X169650000Y-92450000D01*
X169650000Y-85050000D01*
%TO.C,J5*%
X169650000Y-102625000D02*
X170650000Y-102000000D01*
X170650000Y-102000000D02*
X169650000Y-101375000D01*
X169650000Y-97050000D02*
X175400000Y-97050000D01*
X175400000Y-104450000D01*
X169650000Y-104450000D01*
X169650000Y-97050000D01*
%TD*%
M02*
